<?xml version="1.0" encoding="UTF-8" standalone="no"?>
<!DOCTYPE svg PUBLIC "-//W3C//DTD SVG 1.1//EN" "http://www.w3.org/Graphics/SVG/1.1/DTD/svg11.dtd">
<svg version="1.1" xmlns="http://www.w3.org/2000/svg" xmlns:xlink="http://www.w3.org/1999/xlink" preserveAspectRatio="xMidYMid meet" viewBox="0 0 640 640" width="100" height="100"><defs><path d="M16.37 76.37L33.27 76.35L39.32 97.92L11 168.65L23.07 168.64L48.39 110.5L74.39 168.61L99.74 160.2L92.49 153.01L81.02 156.62L39.3 63.17L16.36 63.18L16.37 76.37Z" id="aoQ00nBjf"></path><path d="" id="j5Vw05kvqx"></path><path d="M205.98 57.27L186.86 57.47L205.98 57.27Z" id="oGV0gSOhK"></path><path d="" id="aHfLwk4QJ"></path><path d="" id="f19yM6NKgH"></path><path d="" id="a6y22Mx97"></path><path d="M212.48 87.2C193.69 47.4 192.73 44.58 209.58 78.74" id="at6bglpvK"></path><path d="" id="f1FHOnH9N2"></path><path d="M254.55 77.69L233.22 81.32L230.92 76.25" id="b1980uigkr"></path><path d="M215.1 122.83L189.8 123.1" id="aJ8kIVqEH"></path><path d="M170.29 152.11L141.59 111.03L133.58 110.98L162.59 152.06L170.29 152.11Z" id="d3PEguUwX4"></path><path d="M170.29 151.53L141.59 110.45L133.58 110.4L162.59 151.49L170.29 151.53Z" id="b3FBN95Rur"></path><path d="M140.92 151.21L170.64 109.07L162.39 109.4L133 151.53L140.92 151.21Z" id="icDsJYi5O"></path><path d="M140.92 151.61L170.64 109.47L162.39 109.8L133 151.93L140.92 151.61Z" id="aX6QCKWUw"></path><path d="M182.87 102.27C189.78 189.17 195 188.05 198.55 98.91C198.75 94.01 198.93 89.32 199.11 84.84C202.21 7.91 203.41 20.05 202.71 121.26C203.8 117.69 204.49 115.46 204.76 114.57C205.26 112.92 207.68 113.27 207.69 115C207.69 115 207.69 115 207.69 115" id="bEKtnUe8b"></path><path d="M122.61 110.8L121.42 112.69L120.31 114.57L119.31 116.44L118.4 118.31L117.58 120.16L116.86 122L116.23 123.84L115.69 125.67L115.26 127.49L114.91 129.3L114.66 131.1L114.51 132.89L114.45 134.68L114.48 136.44L114.62 138.21L114.84 139.96L115.15 141.71L115.57 143.45L116.08 145.18L116.68 146.89L117.37 148.61L118.16 150.31L119.05 151.99L120.03 153.68L121.11 155.35L122.27 157.02L123.54 158.67L124.89 160.32L125.15 160.6L125.08 168.64L123.23 166.99L121.48 165.33L119.83 163.66L118.26 161.98L116.8 160.29L115.43 158.6L114.15 156.9L112.97 155.18L111.89 153.46L110.9 151.73L110.01 149.99L109.22 148.25L108.52 146.49L107.91 144.72L107.4 142.94L106.98 141.16L106.66 139.37L106.44 137.57L106.3 135.76L106.27 133.94L106.34 132.11L106.49 130.27L106.75 128.43L107.1 126.57L107.54 124.71L108.07 122.84L108.71 120.96L109.44 119.07L110.27 117.17L111.19 115.26L112.21 113.35L113.32 111.42L114.53 109.49L115.83 107.54L117.23 105.59L118.72 103.63L120.31 101.66L122 99.68L123.77 97.7L125.65 95.7L125.57 106.62L125.29 106.99L123.9 108.9L122.61 110.8Z" id="bOlr1qGVW"></path><path d="M183.37 102.94L184.8 104.87L186.13 106.79L187.39 108.71L188.54 110.62L189.61 112.51L190.6 114.41L191.49 116.3L192.3 118.18L193.01 120.06L193.64 121.92L194.18 123.79L194.63 125.64L194.99 127.49L195.27 129.33L195.44 131.16L195.54 132.98L195.55 134.8L195.46 136.62L195.3 138.42L195.04 140.22L194.68 142.01L194.24 143.8L193.71 145.57L193.1 147.34L192.4 149.11L191.61 150.87L190.72 152.62L189.75 154.36L188.69 156.1L187.55 157.83L186.31 159.55L184.98 161.26L183.56 162.98L182.06 164.68L180.46 166.37L178.79 168.07L178.56 160.02L178.92 159.56L180.17 157.84L181.33 156.11L182.4 154.38L183.37 152.63L184.25 150.89L185.03 149.13L185.72 147.36L186.32 145.59L186.83 143.81L187.25 142.02L187.57 140.23L187.8 138.42L187.93 136.61L187.98 134.8L187.93 132.97L187.79 131.14L187.55 129.3L187.23 127.46L186.81 125.6L186.29 123.74L185.68 121.86L184.99 119.99L184.19 118.1L183.31 116.21L182.33 114.31L181.26 112.4L180.1 110.49L178.84 108.56L177.49 106.64L177.07 106.07L176.77 95.15L178.56 97.11L180.25 99.06L181.85 101.01L183.37 102.94Z" id="aTJaPcfKz"></path><path d="M183.36 102.6L184.79 104.53L186.13 106.45L187.38 108.37L188.54 110.28L189.61 112.18L190.59 114.07L191.49 115.96L192.29 117.84L193.01 119.72L193.64 121.58L194.17 123.45L194.62 125.3L194.99 127.15L195.26 128.99L195.44 130.82L195.54 132.65L195.55 134.46L195.46 136.28L195.29 138.08L195.03 139.88L194.68 141.67L194.24 143.46L193.71 145.23L193.1 147.01L192.39 148.77L191.6 150.53L190.72 152.28L189.75 154.02L188.69 155.76L187.54 157.49L186.3 159.21L184.98 160.93L183.56 162.64L182.06 164.34L180.46 166.04L178.78 167.73L178.56 159.68L178.92 159.22L180.17 157.5L181.33 155.77L182.39 154.04L183.36 152.29L184.24 150.55L185.03 148.79L185.72 147.02L186.32 145.25L186.83 143.47L187.24 141.68L187.57 139.89L187.79 138.08L187.93 136.27L187.97 134.46L187.92 132.63L187.78 130.8L187.55 128.96L187.22 127.12L186.8 125.26L186.28 123.4L185.68 121.52L184.98 119.65L184.19 117.76L183.3 115.87L182.32 113.97L181.26 112.06L180.1 110.15L178.84 108.23L177.49 106.3L177.07 105.73L176.76 94.81L178.55 96.77L180.24 98.72L181.85 100.67L183.36 102.6Z" id="k4wqCQgx9"></path><path d="M227.72 78.73L229.8 80.97L231.74 83.2L233.56 85.42L235.24 87.64L236.8 89.85L238.23 92.04L239.53 94.24L240.7 96.42L241.73 98.6L242.64 100.77L243.42 102.93L244.07 105.09L244.59 107.23L244.99 109.37L245.25 111.5L245.38 113.63L245.38 115.73L245.25 117.84L245 119.94L244.62 122.04L244.1 124.12L243.45 126.2L242.68 128.26L241.78 130.33L240.75 132.38L239.59 134.43L238.29 136.46L236.87 138.5L235.32 140.52L233.64 142.53L231.83 144.54L229.89 146.54L227.82 148.53L225.62 150.52L223.29 152.49L220.84 154.46L220.54 145.11L221.07 144.58L222.89 142.57L224.59 140.56L226.15 138.54L227.57 136.51L228.86 134.47L230.01 132.43L231.02 130.37L231.9 128.31L232.65 126.24L233.26 124.16L233.73 122.07L234.07 119.97L234.27 117.87L234.34 115.75L234.28 113.63L234.08 111.5L233.74 109.37L233.27 107.22L232.66 105.06L231.92 102.9L231.04 100.72L230.03 98.54L228.88 96.36L227.59 94.16L226.17 91.95L224.62 89.74L222.93 87.52L221.1 85.29L219.14 83.05L218.54 82.39L218.13 69.7L220.72 71.97L223.19 74.23L225.52 76.49L227.72 78.73Z" id="b34fyeVtCu"></path><path d="M227.72 78.73L229.8 80.97L231.74 83.2L233.56 85.42L235.24 87.64L236.8 89.85L238.23 92.04L239.53 94.24L240.7 96.42L241.73 98.6L242.64 100.77L243.42 102.93L244.07 105.09L244.59 107.23L244.99 109.37L245.25 111.5L245.38 113.63L245.38 115.73L245.25 117.84L245 119.94L244.62 122.04L244.1 124.12L243.45 126.2L242.68 128.26L241.78 130.33L240.75 132.38L239.59 134.43L238.29 136.46L236.87 138.5L235.32 140.52L233.64 142.53L231.83 144.54L229.89 146.54L227.82 148.53L225.62 150.52L223.29 152.49L220.84 154.46L220.54 145.11L221.07 144.58L222.89 142.57L224.59 140.56L226.15 138.54L227.57 136.51L228.86 134.47L230.01 132.43L231.02 130.37L231.9 128.31L232.65 126.24L233.26 124.16L233.73 122.07L234.07 119.97L234.27 117.87L234.34 115.75L234.28 113.63L234.08 111.5L233.74 109.37L233.27 107.22L232.66 105.06L231.92 102.9L231.04 100.72L230.03 98.54L228.88 96.36L227.59 94.16L226.17 91.95L224.62 89.74L222.93 87.52L221.1 85.29L219.14 83.05L218.54 82.39L218.13 69.7L220.72 71.97L223.19 74.23L225.52 76.49L227.72 78.73Z" id="anMCxA32C"></path><path d="M51.36 107.14L6 168.6L51.36 107.14Z" id="d1hXEx0NMP"></path></defs><g><g><g><g><filter id="shadow12586686" x="-6" y="46.17" width="131.74" height="140.48" filterUnits="userSpaceOnUse" primitiveUnits="userSpaceOnUse"><feFlood></feFlood><feComposite in2="SourceAlpha" operator="in"></feComposite><feGaussianBlur stdDeviation="1"></feGaussianBlur><feOffset dx="9" dy="1" result="afterOffset"></feOffset><feFlood flood-color="#000000" flood-opacity="0.5"></feFlood><feComposite in2="afterOffset" operator="in"></feComposite><feMorphology operator="dilate" radius="1"></feMorphology><feComposite in2="SourceAlpha" operator="out"></feComposite></filter><path d="M16.37 76.37L33.27 76.35L39.32 97.92L11 168.65L23.07 168.64L48.39 110.5L74.39 168.61L99.74 160.2L92.49 153.01L81.02 156.62L39.3 63.17L16.36 63.18L16.37 76.37Z" id="acRAyQT3C" fill="white" fill-opacity="1" filter="url(#shadow12586686)"></path></g><use xlink:href="#aoQ00nBjf" opacity="1" fill="#17cba3" fill-opacity="1"></use><g><use xlink:href="#aoQ00nBjf" opacity="1" fill-opacity="0" stroke="#000000" stroke-width="0" stroke-opacity="1"></use></g></g><g><g><use xlink:href="#j5Vw05kvqx" opacity="1" fill-opacity="0" stroke="#000000" stroke-width="0" stroke-opacity="1"></use></g></g><g><g><use xlink:href="#oGV0gSOhK" opacity="1" fill-opacity="0" stroke="#000000" stroke-width="0" stroke-opacity="1"></use></g></g><g><g><use xlink:href="#aHfLwk4QJ" opacity="1" fill-opacity="0" stroke="#000000" stroke-width="0" stroke-opacity="1"></use></g></g><g><g><use xlink:href="#f19yM6NKgH" opacity="1" fill-opacity="0" stroke="#000000" stroke-width="0" stroke-opacity="1"></use></g></g><g><g><use xlink:href="#a6y22Mx97" opacity="1" fill-opacity="0" stroke="#000000" stroke-width="0" stroke-opacity="1"></use></g></g><g><g><use xlink:href="#at6bglpvK" opacity="1" fill-opacity="0" stroke="#000000" stroke-width="0" stroke-opacity="1"></use></g></g><g><g><use xlink:href="#f1FHOnH9N2" opacity="1" fill-opacity="0" stroke="#000000" stroke-width="0" stroke-opacity="1"></use></g></g><g><g><use xlink:href="#b1980uigkr" opacity="1" fill-opacity="0" stroke="#000000" stroke-width="0" stroke-opacity="1"></use></g></g><g><g><use xlink:href="#aJ8kIVqEH" opacity="1" fill-opacity="0" stroke="#000000" stroke-width="0" stroke-opacity="1"></use></g></g><g><g><filter id="shadow4815760" x="119.58" y="96.98" width="65.71" height="75.13" filterUnits="userSpaceOnUse" primitiveUnits="userSpaceOnUse"><feFlood></feFlood><feComposite in2="SourceAlpha" operator="in"></feComposite><feGaussianBlur stdDeviation="1"></feGaussianBlur><feOffset dx="1" dy="6" result="afterOffset"></feOffset><feFlood flood-color="#000000" flood-opacity="0.5"></feFlood><feComposite in2="afterOffset" operator="in"></feComposite><feMorphology operator="dilate" radius="1"></feMorphology><feComposite in2="SourceAlpha" operator="out"></feComposite></filter><path d="M170.29 152.11L141.59 111.03L133.58 110.98L162.59 152.06L170.29 152.11Z" id="l2fMkrj3Du" fill="white" fill-opacity="1" filter="url(#shadow4815760)"></path></g><use xlink:href="#d3PEguUwX4" opacity="1" fill="#213e8d" fill-opacity="1"></use><g><use xlink:href="#d3PEguUwX4" opacity="1" fill-opacity="0" stroke="#000000" stroke-width="1" stroke-opacity="0"></use></g></g><g><g><filter id="shadow929723" x="123.58" y="100.4" width="57.71" height="66.13" filterUnits="userSpaceOnUse" primitiveUnits="userSpaceOnUse"><feFlood></feFlood><feComposite in2="SourceAlpha" operator="in"></feComposite><feGaussianBlur stdDeviation="0"></feGaussianBlur><feOffset dx="1" dy="5" result="afterOffset"></feOffset><feFlood flood-color="#808080" flood-opacity="1"></feFlood><feComposite in2="afterOffset" operator="in"></feComposite><feMorphology operator="dilate" radius="0"></feMorphology><feComposite in2="SourceAlpha" operator="out"></feComposite></filter><path d="M170.29 151.53L141.59 110.45L133.58 110.4L162.59 151.49L170.29 151.53Z" id="axANhgYay" fill="white" fill-opacity="1" filter="url(#shadow929723)"></path></g><use xlink:href="#b3FBN95Rur" opacity="1" fill="#3947a7" fill-opacity="1"></use><g><use xlink:href="#b3FBN95Rur" opacity="1" fill-opacity="0" stroke="#000000" stroke-width="0" stroke-opacity="1"></use></g></g><g><g><filter id="shadow11778377" x="119" y="95.07" width="66.64" height="76.46" filterUnits="userSpaceOnUse" primitiveUnits="userSpaceOnUse"><feFlood></feFlood><feComposite in2="SourceAlpha" operator="in"></feComposite><feGaussianBlur stdDeviation="1"></feGaussianBlur><feOffset dx="1" dy="6" result="afterOffset"></feOffset><feFlood flood-color="#000000" flood-opacity="0.5"></feFlood><feComposite in2="afterOffset" operator="in"></feComposite><feMorphology operator="dilate" radius="1"></feMorphology><feComposite in2="SourceAlpha" operator="out"></feComposite></filter><path d="M140.92 151.21L170.64 109.07L162.39 109.4L133 151.53L140.92 151.21Z" id="cJT0cHiAS" fill="white" fill-opacity="1" filter="url(#shadow11778377)"></path></g><use xlink:href="#icDsJYi5O" opacity="1" fill="#091d3e" fill-opacity="1"></use><g><use xlink:href="#icDsJYi5O" opacity="1" fill-opacity="0" stroke="#000000" stroke-width="1" stroke-opacity="0"></use></g></g><g><g><filter id="shadow4403314" x="125" y="101.47" width="53.64" height="61.46" filterUnits="userSpaceOnUse" primitiveUnits="userSpaceOnUse"><feFlood></feFlood><feComposite in2="SourceAlpha" operator="in"></feComposite><feGaussianBlur stdDeviation="0"></feGaussianBlur><feOffset dx="0" dy="3" result="afterOffset"></feOffset><feFlood flood-color="#808080" flood-opacity="1"></feFlood><feComposite in2="afterOffset" operator="in"></feComposite><feMorphology operator="dilate" radius="0"></feMorphology><feComposite in2="SourceAlpha" operator="out"></feComposite></filter><path d="M140.92 151.61L170.64 109.47L162.39 109.8L133 151.93L140.92 151.61Z" id="cBkrVlaZc" fill="white" fill-opacity="1" filter="url(#shadow4403314)"></path></g><use xlink:href="#aX6QCKWUw" opacity="1" fill="#3947a7" fill-opacity="1"></use><g><use xlink:href="#aX6QCKWUw" opacity="1" fill-opacity="0" stroke="#000000" stroke-width="0" stroke-opacity="1"></use></g></g><g><use xlink:href="#bEKtnUe8b" opacity="1" fill="#000000" fill-opacity="0"></use><g><use xlink:href="#bEKtnUe8b" opacity="1" fill-opacity="0" stroke="#000000" stroke-width="0" stroke-opacity="1"></use></g></g><g><g><filter id="shadow8460961" x="91.27" y="80.7" width="56.38" height="103.94" filterUnits="userSpaceOnUse" primitiveUnits="userSpaceOnUse"><feFlood></feFlood><feComposite in2="SourceAlpha" operator="in"></feComposite><feGaussianBlur stdDeviation="1"></feGaussianBlur><feOffset dx="7" dy="1" result="afterOffset"></feOffset><feFlood flood-color="#000000" flood-opacity="0.5"></feFlood><feComposite in2="afterOffset" operator="in"></feComposite><feMorphology operator="dilate" radius="1"></feMorphology><feComposite in2="SourceAlpha" operator="out"></feComposite></filter><path d="M122.61 110.8L121.42 112.69L120.31 114.57L119.31 116.44L118.4 118.31L117.58 120.16L116.86 122L116.23 123.84L115.69 125.67L115.26 127.49L114.91 129.3L114.66 131.1L114.51 132.89L114.45 134.68L114.48 136.44L114.62 138.21L114.84 139.96L115.15 141.71L115.57 143.45L116.08 145.18L116.68 146.89L117.37 148.61L118.16 150.31L119.05 151.99L120.03 153.68L121.11 155.35L122.27 157.02L123.54 158.67L124.89 160.32L125.15 160.6L125.08 168.64L123.23 166.99L121.48 165.33L119.83 163.66L118.26 161.98L116.8 160.29L115.43 158.6L114.15 156.9L112.97 155.18L111.89 153.46L110.9 151.73L110.01 149.99L109.22 148.25L108.52 146.49L107.91 144.72L107.4 142.94L106.98 141.16L106.66 139.37L106.44 137.57L106.3 135.76L106.27 133.94L106.34 132.11L106.49 130.27L106.75 128.43L107.1 126.57L107.54 124.71L108.07 122.84L108.71 120.96L109.44 119.07L110.27 117.17L111.19 115.26L112.21 113.35L113.32 111.42L114.53 109.49L115.83 107.54L117.23 105.59L118.72 103.63L120.31 101.66L122 99.68L123.77 97.7L125.65 95.7L125.57 106.62L125.29 106.99L123.9 108.9L122.61 110.8Z" id="c1hLyBUDkX" fill="white" fill-opacity="1" filter="url(#shadow8460961)"></path></g><use xlink:href="#bOlr1qGVW" opacity="1" fill="#d76155" fill-opacity="1"></use><g><use xlink:href="#bOlr1qGVW" opacity="1" fill-opacity="0" stroke="#000000" stroke-width="1" stroke-opacity="0"></use></g></g><g><use xlink:href="#aTJaPcfKz" opacity="1" fill="#0cd3e0" fill-opacity="1"></use><g><use xlink:href="#aTJaPcfKz" opacity="1" fill-opacity="0" stroke="#000000" stroke-width="1" stroke-opacity="0"></use></g></g><g><g><filter id="shadow5428301" x="161.76" y="79.81" width="55.78" height="103.92" filterUnits="userSpaceOnUse" primitiveUnits="userSpaceOnUse"><feFlood></feFlood><feComposite in2="SourceAlpha" operator="in"></feComposite><feGaussianBlur stdDeviation="1"></feGaussianBlur><feOffset dx="-7" dy="1" result="afterOffset"></feOffset><feFlood flood-color="#000000" flood-opacity="0.5"></feFlood><feComposite in2="afterOffset" operator="in"></feComposite><feMorphology operator="dilate" radius="1"></feMorphology><feComposite in2="SourceAlpha" operator="out"></feComposite></filter><path d="M183.36 102.6L184.79 104.53L186.13 106.45L187.38 108.37L188.54 110.28L189.61 112.18L190.59 114.07L191.49 115.96L192.29 117.84L193.01 119.72L193.64 121.58L194.17 123.45L194.62 125.3L194.99 127.15L195.26 128.99L195.44 130.82L195.54 132.65L195.55 134.46L195.46 136.28L195.29 138.08L195.03 139.88L194.68 141.67L194.24 143.46L193.71 145.23L193.1 147.01L192.39 148.77L191.6 150.53L190.72 152.28L189.75 154.02L188.69 155.76L187.54 157.49L186.3 159.21L184.98 160.93L183.56 162.64L182.06 164.34L180.46 166.04L178.78 167.73L178.56 159.68L178.92 159.22L180.17 157.5L181.33 155.77L182.39 154.04L183.36 152.29L184.24 150.55L185.03 148.79L185.72 147.02L186.32 145.25L186.83 143.47L187.24 141.68L187.57 139.89L187.79 138.08L187.93 136.27L187.97 134.46L187.92 132.63L187.78 130.8L187.55 128.96L187.22 127.12L186.8 125.26L186.28 123.4L185.68 121.52L184.98 119.65L184.19 117.76L183.3 115.87L182.32 113.97L181.26 112.06L180.1 110.15L178.84 108.23L177.49 106.3L177.07 105.73L176.76 94.81L178.55 96.77L180.24 98.72L181.85 100.67L183.36 102.6Z" id="c1uTnOUTZY" fill="white" fill-opacity="1" filter="url(#shadow5428301)"></path></g><use xlink:href="#k4wqCQgx9" opacity="1" fill="#d76155" fill-opacity="1"></use><g><use xlink:href="#k4wqCQgx9" opacity="1" fill-opacity="0" stroke="#000000" stroke-width="1" stroke-opacity="0"></use></g></g><g><use xlink:href="#b34fyeVtCu" opacity="1" fill="#000000" fill-opacity="0"></use><g><use xlink:href="#b34fyeVtCu" opacity="1" fill-opacity="0" stroke="#000000" stroke-width="1" stroke-opacity="0"></use></g></g><g><use xlink:href="#anMCxA32C" opacity="1" fill="#000000" fill-opacity="0"></use><g><use xlink:href="#anMCxA32C" opacity="1" fill-opacity="0" stroke="#000000" stroke-width="0" stroke-opacity="1"></use></g></g><g><use xlink:href="#d1hXEx0NMP" opacity="1" fill="#000000" fill-opacity="0"></use><g><use xlink:href="#d1hXEx0NMP" opacity="1" fill-opacity="0" stroke="#d4462a" stroke-width="0" stroke-opacity="1"></use></g></g></g></g></svg>