<?xml version="1.0" encoding="UTF-8" standalone="no"?>
<!-- Created with Inkscape (http://www.inkscape.org/) -->

<svg
   xmlns:dc="http://purl.org/dc/elements/1.1/"
   xmlns:cc="http://creativecommons.org/ns#"
   xmlns:rdf="http://www.w3.org/1999/02/22-rdf-syntax-ns#"
   xmlns:svg="http://www.w3.org/2000/svg"
   xmlns="http://www.w3.org/2000/svg"
   xmlns:sodipodi="http://sodipodi.sourceforge.net/DTD/sodipodi-0.dtd"
   xmlns:inkscape="http://www.inkscape.org/namespaces/inkscape"
   width="32"
   height="32"
   viewBox="0 0 8.4666665 8.4666669"
   version="1.1"
   id="svg1662"
   sodipodi:docname="cloud.svg"
   inkscape:version="0.92.2 (unknown)">
  <defs
     id="defs1656" />
  <sodipodi:namedview
     id="base"
     pagecolor="#ffffff"
     bordercolor="#666666"
     borderopacity="1.0"
     inkscape:pageopacity="0.0"
     inkscape:pageshadow="2"
     inkscape:zoom="10.24"
     inkscape:cx="25.421875"
     inkscape:cy="-2.5813554"
     inkscape:document-units="mm"
     inkscape:current-layer="layer1"
     showgrid="false"
     inkscape:window-width="1920"
     inkscape:window-height="1050"
     inkscape:window-x="0"
     inkscape:window-y="30"
     inkscape:window-maximized="1"
     units="px" />
  <metadata
     id="metadata1659">
    <rdf:RDF>
      <cc:Work
         rdf:about="">
        <dc:format>image/svg+xml</dc:format>
        <dc:type
           rdf:resource="http://purl.org/dc/dcmitype/StillImage" />
        <dc:title></dc:title>
      </cc:Work>
    </rdf:RDF>
  </metadata>
  <g
     inkscape:label="Layer 1"
     inkscape:groupmode="layer"
     id="layer1"
     transform="translate(0,-288.53332)">
    <path
       style="opacity:1;fill:#2ad4ff;fill-opacity:1;stroke:none;stroke-width:0;stroke-linejoin:miter;stroke-miterlimit:0;stroke-dasharray:none;stroke-opacity:0.83529412;paint-order:stroke fill markers"
       d="m -0.02177955,288.60728 v 8.46488 H 8.6441246 v -8.46488 z m 5.09497345,1.7505 a 1.268526,1.6940619 56.768434 0 1 1.1044552,0.75491 1.268526,1.6940619 56.768434 0 1 -0.47834,1.41343 l 0.07067,0.25589 -2.6591709,1.1305 a 1.2792696,1.4914523 10.852764 0 1 -0.8759246,1.16926 1.2792696,1.4914523 10.852764 0 1 -1.61263109,-0.86709 1.2792696,1.4914523 10.852764 0 1 0.84506849,-1.91189 1.2792696,1.4914523 10.852764 0 1 0.5088405,-0.0938 1.2792696,1.4914523 10.852764 0 1 0.5793216,0.19796 l 0.5064391,-0.2152 a 1.268526,1.6940619 56.768434 0 1 1.2306395,-1.67263 1.268526,1.6940619 56.768434 0 1 0.7806421,-0.16105 z m 1.8691627,2.38974 a 1.2431423,1.6845017 57.453413 0 1 1.0942977,0.73373 1.2431423,1.6845017 57.453413 0 1 -1.1951286,1.87424 1.2431423,1.6845017 57.453413 0 1 -1.8705057,-0.571 1.2431423,1.6845017 57.453413 0 1 1.195125,-1.87423 1.2431423,1.6845017 57.453413 0 1 0.7762116,-0.16277 z"
       id="rect2244"
       inkscape:connector-curvature="0" />
    <ellipse
       style="opacity:1;fill:#ff8080;fill-opacity:1;stroke:none;stroke-width:0;stroke-linejoin:miter;stroke-miterlimit:0;stroke-dasharray:none;stroke-opacity:0.83529412;paint-order:stroke fill markers"
       id="path2207-7"
       cx="-82.475914"
       cy="274.6055"
       rx="1.3776212"
       ry="1.0304469"
       transform="matrix(0.93354543,-0.35845912,0.29243427,0.95628563,0,0)" />
    <ellipse
       style="opacity:1;fill:#ff7f2a;fill-opacity:1;stroke:none;stroke-width:0;stroke-linejoin:miter;stroke-miterlimit:0;stroke-dasharray:none;stroke-opacity:0.83529412;paint-order:stroke fill markers"
       id="path2207-9"
       cx="-75.955681"
       cy="272.24649"
       rx="1.0788604"
       ry="0.85617286"
       transform="matrix(0.92390814,-0.38261436,0.27278547,0.96207489,0,0)" />
    <rect
       style="opacity:1;fill:#ff8080;fill-opacity:1;stroke:none;stroke-width:0;stroke-linejoin:miter;stroke-miterlimit:0;stroke-dasharray:none;stroke-opacity:0.83529412;paint-order:stroke fill markers"
       id="rect2234"
       width="0.017131394"
       height="0.056298558"
       x="-73.266426"
       y="274.06381"
       transform="matrix(0.92390814,-0.38261436,0.27278547,0.96207489,0,0)" />
    <ellipse
       style="opacity:1;fill:#55ddff;fill-opacity:1;stroke:none;stroke-width:0;stroke-linejoin:miter;stroke-miterlimit:0;stroke-dasharray:none;stroke-opacity:0.83529412;paint-order:stroke fill markers"
       id="path2236"
       cx="-74.738937"
       cy="274.74222"
       rx="1.3027656"
       ry="0.97207165"
       transform="matrix(0.92390814,-0.38261436,0.27278547,0.96207489,0,0)" />
    <ellipse
       style="opacity:1;fill:#ffb380;fill-opacity:1;stroke:none;stroke-width:0;stroke-linejoin:miter;stroke-miterlimit:0;stroke-dasharray:none;stroke-opacity:0.83529412;paint-order:stroke fill markers"
       id="path2236-5"
       cx="-80.007645"
       cy="276.21173"
       rx="1.8073987"
       ry="1.3070378"
       transform="matrix(0.92916141,-0.36967428,0.28306188,0.95910165,0,0)" />
  </g>
</svg>
