<?xml version="1.0" encoding="UTF-8" standalone="no"?>
<!-- Created with Inkscape (http://www.inkscape.org/) -->

<svg
   xmlns:dc="http://purl.org/dc/elements/1.1/"
   xmlns:cc="http://creativecommons.org/ns#"
   xmlns:rdf="http://www.w3.org/1999/02/22-rdf-syntax-ns#"
   xmlns:svg="http://www.w3.org/2000/svg"
   xmlns="http://www.w3.org/2000/svg"
   xmlns:sodipodi="http://sodipodi.sourceforge.net/DTD/sodipodi-0.dtd"
   xmlns:inkscape="http://www.inkscape.org/namespaces/inkscape"
   width="420mm"
   height="594mm"
   viewBox="0 0 420 594"
   version="1.1"
   id="svg827"
   sodipodi:docname="drawing2.svg"
   inkscape:version="0.91 r13725">
  <defs
     id="defs821" />
  <sodipodi:namedview
     id="base"
     pagecolor="#ffffff"
     bordercolor="#666666"
     borderopacity="1.0"
     inkscape:pageopacity="0.0"
     inkscape:pageshadow="2"
     inkscape:zoom="0.25105255"
     inkscape:cx="-1173.6749"
     inkscape:cy="-400.67995"
     inkscape:document-units="in"
     inkscape:current-layer="layer1"
     showgrid="false"
     showborder="true"
     inkscape:window-width="1920"
     inkscape:window-height="1056"
     inkscape:window-x="0"
     inkscape:window-y="24"
     inkscape:window-maximized="1"
     units="mm">
    <inkscape:grid
       units="px"
       empspacing="5"
       spacingy="7.6729167"
       type="axonomgrid"
       id="grid1374" />
  </sodipodi:namedview>
  <metadata
     id="metadata824">
    <rdf:RDF>
      <cc:Work
         rdf:about="">
        <dc:format>image/svg+xml</dc:format>
        <dc:type
           rdf:resource="http://purl.org/dc/dcmitype/StillImage" />
        <dc:title></dc:title>
      </cc:Work>
    </rdf:RDF>
  </metadata>
  <g
     inkscape:label="Layer 1"
     inkscape:groupmode="layer"
     id="layer1"
     transform="translate(0,297.00013)">
    <path
       style="opacity:0.98500001;fill:#c83737;stroke:#000000;stroke-width:0.26458332px;stroke-linecap:butt;stroke-linejoin:miter;stroke-opacity:1"
       d="m 117.43835,17.138178 86.38424,-49.873962 86.38423,49.873962 -86.38423,49.873954 z"
       id="path1384"
       inkscape:connector-curvature="0" />
    <path
       style="opacity:0.98500001;fill:#53676c;fill-opacity:1;stroke:#000000;stroke-width:0.26458332px;stroke-linecap:butt;stroke-linejoin:miter;stroke-opacity:1"
       d="m 137.37318,20.974628 66.44941,-38.36458 66.4494,38.36458 -66.4494,38.364594 z"
       id="path1378"
       inkscape:connector-curvature="0" />
    <path
       style="opacity:0.98500001;fill:#800000;stroke:#000000;stroke-width:0.26458332px;stroke-linecap:butt;stroke-linejoin:miter;stroke-opacity:1"
       d="m 137.37318,20.974628 -6.64494,-3.83645 73.09435,-42.201046 0,7.672916 z"
       id="path1380"
       inkscape:connector-curvature="0" />
    <path
       style="opacity:0.98500001;fill:#ff8080;stroke:#000000;stroke-width:0.26458332px;stroke-linecap:butt;stroke-linejoin:miter;stroke-opacity:1"
       d="m 203.82259,-25.062868 73.09434,42.201046 -6.64494,3.83645 -66.4494,-38.36458 z"
       id="path1382"
       inkscape:connector-curvature="0" />
    <path
       style="opacity:0.98500001;fill:#363636;fill-opacity:1;stroke:#000000;stroke-width:0.26458332px;stroke-linecap:butt;stroke-linejoin:miter;stroke-opacity:1"
       d="m 203.82259,-17.389952 6.64494,3.83646 -66.44941,38.36458 -6.64494,-3.83646 z"
       id="path1415"
       inkscape:connector-curvature="0" />
    <path
       style="opacity:0.98500001;fill:#ff8080;stroke:#000000;stroke-width:0.26458332px;stroke-linecap:butt;stroke-linejoin:miter;stroke-opacity:1"
       d="m 117.43835,17.138178 0,7.67291 86.38424,49.873964 0,-7.67292 z"
       id="path1417"
       inkscape:connector-curvature="0" />
    <path
       style="opacity:0.98500001;fill:#800000;stroke:#000000;stroke-width:0.26458332px;stroke-linecap:butt;stroke-linejoin:miter;stroke-opacity:1"
       d="m 203.82259,67.012132 0,7.67292 86.38423,-49.873964 0,-7.67291 z"
       id="path1419"
       inkscape:connector-curvature="0" />
    <path
       style="opacity:0.98500001;fill:#e6e6e6;stroke:#000000;stroke-width:0.26458332px;stroke-linecap:butt;stroke-linejoin:miter;stroke-opacity:1"
       d="m 124.08355,28.647508 0,76.729162 46.51447,26.85521 6.64456,-3.83646 19.93522,11.50938 0,7.67291 6.64455,3.83645 0,-76.729148 -79.7388,-46.037504 z"
       id="path1421"
       inkscape:connector-curvature="0" />
    <path
       inkscape:connector-curvature="0"
       id="path1423"
       d="m 283.56188,28.647548 0,76.729172 0,0 -79.7393,46.0375 0,-76.729168 z"
       style="opacity:0.98500001;fill:#b3b3b3;fill-opacity:1;stroke:#000000;stroke-width:0.26458332px;stroke-linecap:butt;stroke-linejoin:miter;stroke-opacity:1" />
    <path
       style="opacity:0.98500001;fill:#808080;stroke:#000000;stroke-width:0.26458332px;stroke-linecap:butt;stroke-linejoin:miter;stroke-opacity:1"
       d="m 203.82259,74.685052 0,7.67292 79.73929,-46.037504 0,-7.67292 z"
       id="path1425"
       inkscape:connector-curvature="0" />
    <path
       style="opacity:0.98500001;fill:#2ad4ff;stroke:#000000;stroke-width:0.26458332px;stroke-linecap:butt;stroke-linejoin:miter;stroke-opacity:1"
       d="m 197.17765,139.90485 0,-46.037498 -19.93483,-11.50937 0,46.037498 z"
       id="path1427"
       inkscape:connector-curvature="0" />
    <path
       style="opacity:0.98500001;fill:#b3b3b3;stroke:#000000;stroke-width:0.26458332px;stroke-linecap:butt;stroke-linejoin:miter;stroke-opacity:1"
       d="m 177.24282,128.39547 -6.64494,3.83645 0,-53.710408 6.64494,3.83646 z"
       id="path1435"
       inkscape:connector-curvature="0" />
    <path
       style="opacity:0.98500001;fill:#d40000;stroke:#000000;stroke-width:0.26458332px;stroke-linecap:butt;stroke-linejoin:miter;stroke-opacity:1"
       d="m 177.24282,120.72255 -6.64494,3.83646 0,7.67291 6.64494,-3.83645 z"
       id="path1437"
       inkscape:connector-curvature="0" />
    <path
       style="opacity:0.98500001;fill:#ff5555;stroke:#000000;stroke-width:0.26458332px;stroke-linecap:butt;stroke-linejoin:miter;stroke-opacity:1"
       d="m 170.59788,124.55901 -46.51458,-26.855208 0,7.672918 46.51458,26.8552 z"
       id="path1439"
       inkscape:connector-curvature="0" />
    <path
       style="opacity:0.98500001;fill:#ff5555;stroke:#000000;stroke-width:0.26458332px;stroke-linecap:butt;stroke-linejoin:miter;stroke-opacity:1"
       d="m 197.17765,139.90484 6.64494,3.83646 0,7.67292 -6.64494,-3.83646 z"
       id="path1441"
       inkscape:connector-curvature="0" />
    <path
       style="opacity:0.98500001;fill:#800000;stroke:#000000;stroke-width:0.26458332px;stroke-linecap:butt;stroke-linejoin:miter;stroke-opacity:1"
       d="m 203.82259,143.7413 79.73929,-46.037498 0,7.672918 -79.73929,46.0375 z"
       id="path1443"
       inkscape:connector-curvature="0" />
    <path
       style="opacity:0.98500001;fill:#55ddff;stroke:#000000;stroke-width:0.26458332px;stroke-linecap:butt;stroke-linejoin:miter;stroke-opacity:1"
       d="m 163.95294,74.685052 -33.2247,-19.18229 0,30.69166 33.2247,19.182298 z"
       id="path1445"
       inkscape:connector-curvature="0" />
    <path
       style="opacity:0.98500001;fill:#b3b3b3;stroke:#000000;stroke-width:0.26458332px;stroke-linecap:butt;stroke-linejoin:miter;stroke-opacity:1"
       d="m 130.72824,55.502762 6.64494,3.83646 0,23.01875 -6.64494,3.83645 z"
       id="path1473"
       inkscape:connector-curvature="0" />
    <path
       style="opacity:0.98500001;fill:#f2f2f2;stroke:#000000;stroke-width:0.26458332px;stroke-linecap:butt;stroke-linejoin:miter;stroke-opacity:1"
       d="m 130.72824,86.194422 6.64494,-3.83645 26.57976,15.34583 0,7.672918 z"
       id="path1475"
       inkscape:connector-curvature="0" />
    <path
       inkscape:connector-curvature="0"
       id="path1483"
       d="m 210.46753,93.867342 33.2247,-19.18229 0,30.691658 -33.2247,19.1823 z"
       style="opacity:0.98500001;fill:#55ddff;stroke:#000000;stroke-width:0.26458332px;stroke-linecap:butt;stroke-linejoin:miter;stroke-opacity:1" />
    <path
       inkscape:connector-curvature="0"
       id="path1485"
       d="m 243.69223,74.685052 -6.64494,3.83646 0,23.018748 6.64494,3.83645 z"
       style="opacity:0.98500001;fill:#808080;fill-opacity:1;stroke:#000000;stroke-width:0.26458332px;stroke-linecap:butt;stroke-linejoin:miter;stroke-opacity:1" />
    <path
       inkscape:connector-curvature="0"
       id="path1487"
       d="m 243.69223,105.37671 -6.64494,-3.83645 -26.57976,15.34583 0,7.67292 z"
       style="opacity:0.98500001;fill:#f2f2f2;stroke:#000000;stroke-width:0.26458332px;stroke-linecap:butt;stroke-linejoin:miter;stroke-opacity:1" />
    <path
       style="opacity:0.98500001;fill:#55ddff;stroke:#000000;stroke-width:0.26458332px;stroke-linecap:butt;stroke-linejoin:miter;stroke-opacity:1"
       d="m 243.69223,74.685052 33.2247,-19.18229 0,30.69166 -33.2247,19.182298 z"
       id="path1489"
       inkscape:connector-curvature="0" />
    <path
       style="opacity:0.98500001;fill:#808080;fill-opacity:1;stroke:#000000;stroke-width:0.26458332px;stroke-linecap:butt;stroke-linejoin:miter;stroke-opacity:1"
       d="m 276.91693,55.502762 -6.64493,3.83646 0,23.01875 6.64493,3.83645 z"
       id="path1491"
       inkscape:connector-curvature="0" />
    <path
       style="opacity:0.98500001;fill:#f2f2f2;stroke:#000000;stroke-width:0.26458332px;stroke-linecap:butt;stroke-linejoin:miter;stroke-opacity:1"
       d="m 276.91693,86.194422 -6.64493,-3.83645 -26.57977,15.34583 0,7.672918 z"
       id="path1493"
       inkscape:connector-curvature="0" />
    <path
       style="opacity:0.98500001;fill:#53676c;fill-opacity:1;stroke:#000000;stroke-width:0.26458332px;stroke-linecap:butt;stroke-linejoin:miter;stroke-opacity:1"
       d="m 84.213652,105.37672 119.608938,69.05625 119.60893,-69.05625 -39.86964,-23.018748 0,23.018748 -79.73929,46.0375 -6.64494,-3.83646 0,-7.67292 -19.93483,-11.50937 -6.64494,3.83645 -46.51458,-26.8552 0,-23.018748 z"
       id="path1495"
       inkscape:connector-curvature="0" />
    <path
       style="opacity:0.98500001;fill:#999999;stroke:#000000;stroke-width:0.26458332px;stroke-linecap:butt;stroke-linejoin:miter;stroke-opacity:1"
       d="m 203.82259,174.43297 0,7.67292 -119.608938,-69.05626 0,-7.67291 z"
       id="path1497"
       inkscape:connector-curvature="0" />
    <path
       style="opacity:0.98500001;fill:#333333;stroke:#000000;stroke-width:0.26458332px;stroke-linecap:butt;stroke-linejoin:miter;stroke-opacity:1"
       d="m 203.82259,174.43297 0,7.67292 119.60893,-69.05626 0,-7.67291 z"
       id="path1499"
       inkscape:connector-curvature="0" />
    <path
       style="opacity:0.98500001;fill:#333333;stroke:#000000;stroke-width:0.26458332px;stroke-linecap:butt;stroke-linejoin:miter;stroke-opacity:1"
       d="m 177.24282,120.72255 0,7.67292 19.93483,11.50937 0,-7.67292 z"
       id="path1501"
       inkscape:connector-curvature="0" />
    <path
       inkscape:connector-curvature="0"
       id="path1520"
       d="m 170.78766,-4.9281022 a 24.233859,10.391033 39.006885 0 0 -19.9347,0.87213 24.233859,10.391033 39.006885 0 0 0.43356,2.85509 l -20.36878,-11.5087798 0,23.01875 79.73933,45.055094 0,-23.018754 -20.12437,-11.37079 a 24.233859,10.391033 39.006885 0 0 0.18966,-1.51128 24.233859,10.391033 39.006885 0 0 -19.9347,-24.3914602 z"
       style="opacity:0.98500001;fill:#550000;stroke:#000000;stroke-width:0.26458332px;stroke-linecap:butt;stroke-linejoin:miter;stroke-opacity:1" />
    <path
       style="opacity:0.98500001;fill:#ff8080;stroke:#000000;stroke-width:0.26458332px;stroke-linecap:butt;stroke-linejoin:miter;stroke-opacity:1"
       d="m 163.95318,-1.6843422 a 24.452768,10.298009 39.680817 0 0 -19.9347,0.5065 24.452768,10.298009 39.680817 0 0 0.43356,2.86304 l -20.36877,-11.8823798 0,23.01875 79.73932,46.517654 0,-23.018754 -20.12437,-11.73991 a 24.452768,10.298009 39.680817 0 0 0.18966,-1.5078 24.452768,10.298009 39.680817 0 0 -19.9347,-24.7571002 z"
       id="path1503"
       inkscape:connector-curvature="0" />
    <path
       style="opacity:0.98500001;fill:#550000;stroke:#000000;stroke-width:0.26458332px;stroke-linecap:butt;stroke-linejoin:miter;stroke-opacity:1"
       d="m 203.82259,51.666302 0,7.67292 6.64494,-3.83646 z"
       id="path1530"
       inkscape:connector-curvature="0" />
    <path
       style="opacity:0.98500001;fill:#550000;stroke:#000000;stroke-width:0.26458332px;stroke-linecap:butt;stroke-linejoin:miter;stroke-opacity:1"
       d="m 124.0833,-9.7170322 6.64494,-3.8364598 0,7.6729198 z"
       id="path1532"
       inkscape:connector-curvature="0" />
    <path
       style="opacity:0.98500001;fill:#ff8080;stroke:#000000;stroke-width:0.26458332px;stroke-linecap:butt;stroke-linejoin:miter;stroke-opacity:1"
       d="m 117.43835,17.138178 -13.28988,23.018754 86.38423,49.87396 13.28989,-23.01875 z"
       id="path1536"
       inkscape:connector-curvature="0" />
    <path
       style="opacity:0.98500001;fill:#800000;stroke:#000000;stroke-width:0.26458332px;stroke-linecap:butt;stroke-linejoin:miter;stroke-opacity:1"
       d="m 190.5327,90.030882 13.28989,-7.67291 0,-15.34584 z"
       id="path1538"
       inkscape:connector-curvature="0" />
    <path
       style="opacity:0.98500001;fill:#cd2f2f;fill-opacity:1;stroke:#000000;stroke-width:0.26458332px;stroke-linecap:butt;stroke-linejoin:miter;stroke-opacity:1"
       d="m 104.14847,40.156922 0,7.67292 86.38423,49.87396 0,-7.67292 z"
       id="path1540"
       inkscape:connector-curvature="0" />
    <path
       style="opacity:0.98500001;fill:#800000;stroke:#000000;stroke-width:0.26458332px;stroke-linecap:butt;stroke-linejoin:miter;stroke-opacity:1"
       d="m 190.5327,90.030882 0,7.67292 13.28989,-7.67292 0,-7.67291 z"
       id="path1542"
       inkscape:connector-curvature="0" />
    <path
       style="opacity:0.98500001;fill:#ffffff;stroke:#000000;stroke-width:0.26458332px;stroke-linecap:butt;stroke-linejoin:miter;stroke-opacity:1"
       d="m 124.0833,20.974628 -13.28989,23.018754 6.64494,3.83646 13.28989,-23.018754 z"
       id="path1544"
       inkscape:connector-curvature="0" />
    <path
       style="opacity:0.98500001;fill:#cccccc;stroke:#000000;stroke-width:0.26458332px;stroke-linecap:butt;stroke-linejoin:miter;stroke-opacity:1"
       d="m 110.79341,43.993382 0,7.67292 6.64494,3.83646 0,-7.67292 z"
       id="path1546"
       inkscape:connector-curvature="0" />
    <path
       inkscape:connector-curvature="0"
       id="path1548"
       d="m 137.37318,28.647548 -13.28989,23.018754 6.64495,3.83646 13.28988,-23.018754 z"
       style="opacity:0.98500001;fill:#ffffff;stroke:#000000;stroke-width:0.26458332px;stroke-linecap:butt;stroke-linejoin:miter;stroke-opacity:1" />
    <path
       inkscape:connector-curvature="0"
       id="path1550"
       d="m 124.08329,51.666302 0,7.67292 6.64495,3.83646 0,-7.67292 z"
       style="opacity:0.98500001;fill:#cccccc;stroke:#000000;stroke-width:0.26458332px;stroke-linecap:butt;stroke-linejoin:miter;stroke-opacity:1" />
    <path
       style="opacity:0.98500001;fill:#ffffff;stroke:#000000;stroke-width:0.26458332px;stroke-linecap:butt;stroke-linejoin:miter;stroke-opacity:1"
       d="m 150.66306,36.320468 -13.28988,23.018754 6.64494,3.83646 13.28988,-23.01875 z"
       id="path1552"
       inkscape:connector-curvature="0" />
    <path
       style="opacity:0.98500001;fill:#cccccc;stroke:#000000;stroke-width:0.26458332px;stroke-linecap:butt;stroke-linejoin:miter;stroke-opacity:1"
       d="m 137.37318,59.339222 0,7.67292 6.64494,3.83646 0,-7.67292 z"
       id="path1554"
       inkscape:connector-curvature="0" />
    <path
       inkscape:connector-curvature="0"
       id="path1556"
       d="m 163.95294,43.993392 -13.28988,23.01875 6.64494,3.83646 13.28988,-23.01875 z"
       style="opacity:0.98500001;fill:#ffffff;stroke:#000000;stroke-width:0.26458332px;stroke-linecap:butt;stroke-linejoin:miter;stroke-opacity:1" />
    <path
       inkscape:connector-curvature="0"
       id="path1558"
       d="m 150.66306,67.012142 0,7.67292 6.64494,3.83646 0,-7.67292 z"
       style="opacity:0.98500001;fill:#cccccc;stroke:#000000;stroke-width:0.26458332px;stroke-linecap:butt;stroke-linejoin:miter;stroke-opacity:1" />
    <path
       style="opacity:0.98500001;fill:#ffffff;stroke:#000000;stroke-width:0.26458332px;stroke-linecap:butt;stroke-linejoin:miter;stroke-opacity:1"
       d="m 177.24282,51.666302 -13.28988,23.01875 6.64494,3.83646 13.28988,-23.01875 z"
       id="path1560"
       inkscape:connector-curvature="0" />
    <path
       style="opacity:0.98500001;fill:#cccccc;stroke:#000000;stroke-width:0.26458332px;stroke-linecap:butt;stroke-linejoin:miter;stroke-opacity:1"
       d="m 163.95294,74.685052 0,7.67292 6.64494,3.83646 0,-7.67292 z"
       id="path1562"
       inkscape:connector-curvature="0" />
    <path
       inkscape:connector-curvature="0"
       id="path1564"
       d="m 190.5327,59.339222 -13.28988,23.01875 6.64494,3.83646 13.28989,-23.01875 z"
       style="opacity:0.98500001;fill:#ffffff;stroke:#000000;stroke-width:0.26458332px;stroke-linecap:butt;stroke-linejoin:miter;stroke-opacity:1" />
    <path
       inkscape:connector-curvature="0"
       id="path1566"
       d="m 177.24282,82.357972 0,7.67292 6.64494,3.83646 0,-7.67292 z"
       style="opacity:0.98500001;fill:#cccccc;stroke:#000000;stroke-width:0.26458332px;stroke-linecap:butt;stroke-linejoin:miter;stroke-opacity:1" />
    <path
       style="opacity:0.98500001;fill:#000000;stroke:#000000;stroke-width:0.26458332px;stroke-linecap:butt;stroke-linejoin:miter;stroke-opacity:1"
       d="m 124.0833,59.339222 0,7.67291 66.4494,38.364588 13.28989,-7.672918 0,-7.67292 -13.28989,7.67292 z"
       id="path1568"
       inkscape:connector-curvature="0" />
    <path
       inkscape:connector-curvature="0"
       id="path1570"
       d="m 117.43835,17.138178 86.38424,-49.873962 86.38423,49.873962 -86.38423,49.873954 z"
       style="opacity:0.98500001;fill:#c83737;stroke:#000000;stroke-width:0.26458332px;stroke-linecap:butt;stroke-linejoin:miter;stroke-opacity:1" />
    <path
       inkscape:connector-curvature="0"
       id="path1572"
       d="m 137.37318,20.974628 66.44941,-38.36458 66.4494,38.36458 -66.4494,38.364594 z"
       style="opacity:0.98500001;fill:#53676c;fill-opacity:1;stroke:#000000;stroke-width:0.26458332px;stroke-linecap:butt;stroke-linejoin:miter;stroke-opacity:1" />
    <path
       inkscape:connector-curvature="0"
       id="path1574"
       d="m 137.37318,20.974628 -6.64494,-3.83645 73.09435,-42.201046 0,7.672916 z"
       style="opacity:0.98500001;fill:#800000;stroke:#000000;stroke-width:0.26458332px;stroke-linecap:butt;stroke-linejoin:miter;stroke-opacity:1" />
    <path
       inkscape:connector-curvature="0"
       id="path1576"
       d="m 203.82259,-25.062868 73.09434,42.201046 -6.64494,3.83645 -66.4494,-38.36458 z"
       style="opacity:0.98500001;fill:#ff8080;stroke:#000000;stroke-width:0.26458332px;stroke-linecap:butt;stroke-linejoin:miter;stroke-opacity:1" />
    <path
       inkscape:connector-curvature="0"
       id="path1578"
       d="m 203.82259,-17.389952 6.64494,3.83646 -66.44941,38.36458 -6.64494,-3.83646 z"
       style="opacity:0.98500001;fill:#363636;fill-opacity:1;stroke:#000000;stroke-width:0.26458332px;stroke-linecap:butt;stroke-linejoin:miter;stroke-opacity:1" />
    <path
       inkscape:connector-curvature="0"
       id="path1580"
       d="m 117.43835,17.138178 0,7.67291 86.38424,49.873964 0,-7.67292 z"
       style="opacity:0.98500001;fill:#ff8080;stroke:#000000;stroke-width:0.26458332px;stroke-linecap:butt;stroke-linejoin:miter;stroke-opacity:1" />
    <path
       inkscape:connector-curvature="0"
       id="path1582"
       d="m 203.82259,67.012132 0,7.67292 86.38423,-49.873964 0,-7.67291 z"
       style="opacity:0.98500001;fill:#800000;stroke:#000000;stroke-width:0.26458332px;stroke-linecap:butt;stroke-linejoin:miter;stroke-opacity:1" />
    <path
       id="path1584"
       d="m 124.08355,28.647508 0,76.729162 46.51447,26.85521 6.64456,-3.83646 19.93522,11.50938 0,7.67291 6.64455,3.83645 0,-76.729148 -79.7388,-46.037504 z"
       style="opacity:0.98500001;fill:#e6e6e6;stroke:#000000;stroke-width:0.26458332px;stroke-linecap:butt;stroke-linejoin:miter;stroke-opacity:1"
       inkscape:connector-curvature="0" />
    <path
       style="opacity:0.98500001;fill:#b3b3b3;fill-opacity:1;stroke:#000000;stroke-width:0.26458332px;stroke-linecap:butt;stroke-linejoin:miter;stroke-opacity:1"
       d="m 283.56188,28.647548 0,76.729172 0,0 -79.7393,46.0375 0,-76.729168 z"
       id="path1586"
       inkscape:connector-curvature="0" />
    <path
       inkscape:connector-curvature="0"
       id="path1588"
       d="m 203.82259,74.685052 0,7.67292 79.73929,-46.037504 0,-7.67292 z"
       style="opacity:0.98500001;fill:#808080;stroke:#000000;stroke-width:0.26458332px;stroke-linecap:butt;stroke-linejoin:miter;stroke-opacity:1" />
    <path
       inkscape:connector-curvature="0"
       id="path1590"
       d="m 197.17765,139.90485 0,-46.037498 -19.93483,-11.50937 0,46.037498 z"
       style="opacity:0.98500001;fill:#2ad4ff;stroke:#000000;stroke-width:0.26458332px;stroke-linecap:butt;stroke-linejoin:miter;stroke-opacity:1" />
    <path
       inkscape:connector-curvature="0"
       id="path1592"
       d="m 177.24282,128.39547 -6.64494,3.83645 0,-53.710408 6.64494,3.83646 z"
       style="opacity:0.98500001;fill:#b3b3b3;stroke:#000000;stroke-width:0.26458332px;stroke-linecap:butt;stroke-linejoin:miter;stroke-opacity:1" />
    <path
       inkscape:connector-curvature="0"
       id="path1594"
       d="m 177.24282,120.72255 -6.64494,3.83646 0,7.67291 6.64494,-3.83645 z"
       style="opacity:0.98500001;fill:#d40000;stroke:#000000;stroke-width:0.26458332px;stroke-linecap:butt;stroke-linejoin:miter;stroke-opacity:1" />
    <path
       inkscape:connector-curvature="0"
       id="path1596"
       d="m 170.59788,124.55901 -46.51458,-26.855208 0,7.672918 46.51458,26.8552 z"
       style="opacity:0.98500001;fill:#ff5555;stroke:#000000;stroke-width:0.26458332px;stroke-linecap:butt;stroke-linejoin:miter;stroke-opacity:1" />
    <path
       inkscape:connector-curvature="0"
       id="path1598"
       d="m 197.17765,139.90484 6.64494,3.83646 0,7.67292 -6.64494,-3.83646 z"
       style="opacity:0.98500001;fill:#ff5555;stroke:#000000;stroke-width:0.26458332px;stroke-linecap:butt;stroke-linejoin:miter;stroke-opacity:1" />
    <path
       inkscape:connector-curvature="0"
       id="path1600"
       d="m 203.82259,143.7413 79.73929,-46.037498 0,7.672918 -79.73929,46.0375 z"
       style="opacity:0.98500001;fill:#800000;stroke:#000000;stroke-width:0.26458332px;stroke-linecap:butt;stroke-linejoin:miter;stroke-opacity:1" />
    <path
       inkscape:connector-curvature="0"
       id="path1602"
       d="m 163.95294,74.685052 -33.2247,-19.18229 0,30.69166 33.2247,19.182298 z"
       style="opacity:0.98500001;fill:#55ddff;stroke:#000000;stroke-width:0.26458332px;stroke-linecap:butt;stroke-linejoin:miter;stroke-opacity:1" />
    <path
       inkscape:connector-curvature="0"
       id="path1604"
       d="m 130.72824,55.502762 6.64494,3.83646 0,23.01875 -6.64494,3.83645 z"
       style="opacity:0.98500001;fill:#b3b3b3;stroke:#000000;stroke-width:0.26458332px;stroke-linecap:butt;stroke-linejoin:miter;stroke-opacity:1" />
    <path
       inkscape:connector-curvature="0"
       id="path1606"
       d="m 130.72824,86.194422 6.64494,-3.83645 26.57976,15.34583 0,7.672918 z"
       style="opacity:0.98500001;fill:#f2f2f2;stroke:#000000;stroke-width:0.26458332px;stroke-linecap:butt;stroke-linejoin:miter;stroke-opacity:1" />
    <path
       style="opacity:0.98500001;fill:#55ddff;stroke:#000000;stroke-width:0.26458332px;stroke-linecap:butt;stroke-linejoin:miter;stroke-opacity:1"
       d="m 210.46753,93.867342 33.2247,-19.18229 0,30.691658 -33.2247,19.1823 z"
       id="path1608"
       inkscape:connector-curvature="0" />
    <path
       style="opacity:0.98500001;fill:#808080;fill-opacity:1;stroke:#000000;stroke-width:0.26458332px;stroke-linecap:butt;stroke-linejoin:miter;stroke-opacity:1"
       d="m 243.69223,74.685052 -6.64494,3.83646 0,23.018748 6.64494,3.83645 z"
       id="path1610"
       inkscape:connector-curvature="0" />
    <path
       style="opacity:0.98500001;fill:#f2f2f2;stroke:#000000;stroke-width:0.26458332px;stroke-linecap:butt;stroke-linejoin:miter;stroke-opacity:1"
       d="m 243.69223,105.37671 -6.64494,-3.83645 -26.57976,15.34583 0,7.67292 z"
       id="path1612"
       inkscape:connector-curvature="0" />
    <path
       inkscape:connector-curvature="0"
       id="path1614"
       d="m 243.69223,74.685052 33.2247,-19.18229 0,30.69166 -33.2247,19.182298 z"
       style="opacity:0.98500001;fill:#55ddff;stroke:#000000;stroke-width:0.26458332px;stroke-linecap:butt;stroke-linejoin:miter;stroke-opacity:1" />
    <path
       inkscape:connector-curvature="0"
       id="path1616"
       d="m 276.91693,55.502762 -6.64493,3.83646 0,23.01875 6.64493,3.83645 z"
       style="opacity:0.98500001;fill:#808080;fill-opacity:1;stroke:#000000;stroke-width:0.26458332px;stroke-linecap:butt;stroke-linejoin:miter;stroke-opacity:1" />
    <path
       inkscape:connector-curvature="0"
       id="path1618"
       d="m 276.91693,86.194422 -6.64493,-3.83645 -26.57977,15.34583 0,7.672918 z"
       style="opacity:0.98500001;fill:#f2f2f2;stroke:#000000;stroke-width:0.26458332px;stroke-linecap:butt;stroke-linejoin:miter;stroke-opacity:1" />
    <path
       inkscape:connector-curvature="0"
       id="path1620"
       d="m 84.213652,105.37672 119.608938,69.05625 119.60893,-69.05625 -39.86964,-23.018748 0,23.018748 -79.73929,46.0375 -6.64494,-3.83646 0,-7.67292 -19.93483,-11.50937 -6.64494,3.83645 -46.51458,-26.8552 0,-23.018748 z"
       style="opacity:0.98500001;fill:#53676c;fill-opacity:1;stroke:#000000;stroke-width:0.26458332px;stroke-linecap:butt;stroke-linejoin:miter;stroke-opacity:1" />
    <path
       inkscape:connector-curvature="0"
       id="path1622"
       d="m 203.82259,174.43297 0,7.67292 -119.608938,-69.05626 0,-7.67291 z"
       style="opacity:0.98500001;fill:#999999;stroke:#000000;stroke-width:0.26458332px;stroke-linecap:butt;stroke-linejoin:miter;stroke-opacity:1" />
    <path
       inkscape:connector-curvature="0"
       id="path1624"
       d="m 203.82259,174.43297 0,7.67292 119.60893,-69.05626 0,-7.67291 z"
       style="opacity:0.98500001;fill:#333333;stroke:#000000;stroke-width:0.26458332px;stroke-linecap:butt;stroke-linejoin:miter;stroke-opacity:1" />
    <path
       inkscape:connector-curvature="0"
       id="path1626"
       d="m 177.24282,120.72255 0,7.67292 19.93483,11.50937 0,-7.67292 z"
       style="opacity:0.98500001;fill:#333333;stroke:#000000;stroke-width:0.26458332px;stroke-linecap:butt;stroke-linejoin:miter;stroke-opacity:1" />
    <path
       style="opacity:0.98500001;fill:#550000;stroke:#000000;stroke-width:0.26458332px;stroke-linecap:butt;stroke-linejoin:miter;stroke-opacity:1"
       d="m 170.78766,-4.9281022 a 24.233859,10.391033 39.006885 0 0 -19.9347,0.87213 24.233859,10.391033 39.006885 0 0 0.43356,2.85509 l -20.36878,-11.5087798 0,23.01875 79.73933,45.055094 0,-23.018754 -20.12437,-11.37079 a 24.233859,10.391033 39.006885 0 0 0.18966,-1.51128 24.233859,10.391033 39.006885 0 0 -19.9347,-24.3914602 z"
       id="path1628"
       inkscape:connector-curvature="0" />
    <path
       inkscape:connector-curvature="0"
       id="path1630"
       d="m 163.95318,-1.6843422 a 24.452768,10.298009 39.680817 0 0 -19.9347,0.5065 24.452768,10.298009 39.680817 0 0 0.43356,2.86304 l -20.36877,-11.8823798 0,23.01875 79.73932,46.517654 0,-23.018754 -20.12437,-11.73991 a 24.452768,10.298009 39.680817 0 0 0.18966,-1.5078 24.452768,10.298009 39.680817 0 0 -19.9347,-24.7571002 z"
       style="opacity:0.98500001;fill:#ff8080;stroke:#000000;stroke-width:0.26458332px;stroke-linecap:butt;stroke-linejoin:miter;stroke-opacity:1" />
    <path
       inkscape:connector-curvature="0"
       id="path1632"
       d="m 203.82259,51.666302 0,7.67292 6.64494,-3.83646 z"
       style="opacity:0.98500001;fill:#550000;stroke:#000000;stroke-width:0.26458332px;stroke-linecap:butt;stroke-linejoin:miter;stroke-opacity:1" />
    <path
       inkscape:connector-curvature="0"
       id="path1634"
       d="m 124.0833,-9.7170322 6.64494,-3.8364598 0,7.6729198 z"
       style="opacity:0.98500001;fill:#550000;stroke:#000000;stroke-width:0.26458332px;stroke-linecap:butt;stroke-linejoin:miter;stroke-opacity:1" />
    <path
       inkscape:connector-curvature="0"
       id="path1636"
       d="m 117.43835,17.138178 -13.28988,23.018754 86.38423,49.87396 13.28989,-23.01875 z"
       style="opacity:0.98500001;fill:#ff8080;stroke:#000000;stroke-width:0.26458332px;stroke-linecap:butt;stroke-linejoin:miter;stroke-opacity:1" />
    <path
       inkscape:connector-curvature="0"
       id="path1638"
       d="m 190.5327,90.030882 13.28989,-7.67291 0,-15.34584 z"
       style="opacity:0.98500001;fill:#800000;stroke:#000000;stroke-width:0.26458332px;stroke-linecap:butt;stroke-linejoin:miter;stroke-opacity:1" />
    <path
       inkscape:connector-curvature="0"
       id="path1640"
       d="m 104.14847,40.156922 0,7.67292 86.38423,49.87396 0,-7.67292 z"
       style="opacity:0.98500001;fill:#cd2f2f;fill-opacity:1;stroke:#000000;stroke-width:0.26458332px;stroke-linecap:butt;stroke-linejoin:miter;stroke-opacity:1" />
    <path
       inkscape:connector-curvature="0"
       id="path1642"
       d="m 190.5327,90.030882 0,7.67292 13.28989,-7.67292 0,-7.67291 z"
       style="opacity:0.98500001;fill:#800000;stroke:#000000;stroke-width:0.26458332px;stroke-linecap:butt;stroke-linejoin:miter;stroke-opacity:1" />
    <path
       inkscape:connector-curvature="0"
       id="path1644"
       d="m 124.0833,20.974628 -13.28989,23.018754 6.64494,3.83646 13.28989,-23.018754 z"
       style="opacity:0.98500001;fill:#ffffff;stroke:#000000;stroke-width:0.26458332px;stroke-linecap:butt;stroke-linejoin:miter;stroke-opacity:1" />
    <path
       inkscape:connector-curvature="0"
       id="path1646"
       d="m 110.79341,43.993382 0,7.67292 6.64494,3.83646 0,-7.67292 z"
       style="opacity:0.98500001;fill:#cccccc;stroke:#000000;stroke-width:0.26458332px;stroke-linecap:butt;stroke-linejoin:miter;stroke-opacity:1" />
    <path
       style="opacity:0.98500001;fill:#ffffff;stroke:#000000;stroke-width:0.26458332px;stroke-linecap:butt;stroke-linejoin:miter;stroke-opacity:1"
       d="m 137.37318,28.647548 -13.28989,23.018754 6.64495,3.83646 13.28988,-23.018754 z"
       id="path1648"
       inkscape:connector-curvature="0" />
    <path
       style="opacity:0.98500001;fill:#cccccc;stroke:#000000;stroke-width:0.26458332px;stroke-linecap:butt;stroke-linejoin:miter;stroke-opacity:1"
       d="m 124.08329,51.666302 0,7.67292 6.64495,3.83646 0,-7.67292 z"
       id="path1650"
       inkscape:connector-curvature="0" />
    <path
       inkscape:connector-curvature="0"
       id="path1652"
       d="m 150.66306,36.320468 -13.28988,23.018754 6.64494,3.83646 13.28988,-23.01875 z"
       style="opacity:0.98500001;fill:#ffffff;stroke:#000000;stroke-width:0.26458332px;stroke-linecap:butt;stroke-linejoin:miter;stroke-opacity:1" />
    <path
       inkscape:connector-curvature="0"
       id="path1654"
       d="m 137.37318,59.339222 0,7.67292 6.64494,3.83646 0,-7.67292 z"
       style="opacity:0.98500001;fill:#cccccc;stroke:#000000;stroke-width:0.26458332px;stroke-linecap:butt;stroke-linejoin:miter;stroke-opacity:1" />
    <path
       style="opacity:0.98500001;fill:#ffffff;stroke:#000000;stroke-width:0.26458332px;stroke-linecap:butt;stroke-linejoin:miter;stroke-opacity:1"
       d="m 163.95294,43.993392 -13.28988,23.01875 6.64494,3.83646 13.28988,-23.01875 z"
       id="path1656"
       inkscape:connector-curvature="0" />
    <path
       style="opacity:0.98500001;fill:#cccccc;stroke:#000000;stroke-width:0.26458332px;stroke-linecap:butt;stroke-linejoin:miter;stroke-opacity:1"
       d="m 150.66306,67.012142 0,7.67292 6.64494,3.83646 0,-7.67292 z"
       id="path1658"
       inkscape:connector-curvature="0" />
    <path
       inkscape:connector-curvature="0"
       id="path1660"
       d="m 177.24282,51.666302 -13.28988,23.01875 6.64494,3.83646 13.28988,-23.01875 z"
       style="opacity:0.98500001;fill:#ffffff;stroke:#000000;stroke-width:0.26458332px;stroke-linecap:butt;stroke-linejoin:miter;stroke-opacity:1" />
    <path
       inkscape:connector-curvature="0"
       id="path1662"
       d="m 163.95294,74.685052 0,7.67292 6.64494,3.83646 0,-7.67292 z"
       style="opacity:0.98500001;fill:#cccccc;stroke:#000000;stroke-width:0.26458332px;stroke-linecap:butt;stroke-linejoin:miter;stroke-opacity:1" />
    <path
       style="opacity:0.98500001;fill:#ffffff;stroke:#000000;stroke-width:0.26458332px;stroke-linecap:butt;stroke-linejoin:miter;stroke-opacity:1"
       d="m 190.5327,59.339222 -13.28988,23.01875 6.64494,3.83646 13.28989,-23.01875 z"
       id="path1664"
       inkscape:connector-curvature="0" />
    <path
       style="opacity:0.98500001;fill:#cccccc;stroke:#000000;stroke-width:0.26458332px;stroke-linecap:butt;stroke-linejoin:miter;stroke-opacity:1"
       d="m 177.24282,82.357972 0,7.67292 6.64494,3.83646 0,-7.67292 z"
       id="path1666"
       inkscape:connector-curvature="0" />
    <path
       inkscape:connector-curvature="0"
       id="path1668"
       d="m 124.0833,59.339222 0,7.67291 66.4494,38.364588 13.28989,-7.672918 0,-7.67292 -13.28989,7.67292 z"
       style="opacity:0.30199998;fill:#000000;stroke:#000000;stroke-width:0.26458332px;stroke-linecap:butt;stroke-linejoin:miter;stroke-opacity:1" />
    <text
       xml:space="preserve"
       style="font-style:normal;font-weight:normal;font-size:10.58333302px;line-height:1.25;font-family:sans-serif;letter-spacing:0px;word-spacing:0px;opacity:0.98500001;fill:#ffffff;fill-opacity:1;stroke:none;stroke-width:0.26458332"
       x="127.21973"
       y="-69.73941"
       id="text1672"
       transform="matrix(1,0.60441093,0,1,0,0)"
       inkscape:transform-center-x="84.189901"
       inkscape:transform-center-y="9.9390856"><tspan
         sodipodi:role="line"
         id="tspan1670"
         x="127.21973"
         y="-69.73941"
         style="fill:#ffffff;stroke-width:0.26458332">YASH HOUSE</tspan></text>
  </g>
</svg>
