<?xml version="1.0" encoding="UTF-8" standalone="no"?>
<!-- Created with Inkscape (http://www.inkscape.org/) -->

<svg
   xmlns:dc="http://purl.org/dc/elements/1.1/"
   xmlns:cc="http://creativecommons.org/ns#"
   xmlns:rdf="http://www.w3.org/1999/02/22-rdf-syntax-ns#"
   xmlns:svg="http://www.w3.org/2000/svg"
   xmlns="http://www.w3.org/2000/svg"
   xmlns:xlink="http://www.w3.org/1999/xlink"
   xmlns:sodipodi="http://sodipodi.sourceforge.net/DTD/sodipodi-0.dtd"
   xmlns:inkscape="http://www.inkscape.org/namespaces/inkscape"
   width="210mm"
   height="297mm"
   viewBox="0 0 210 297"
   version="1.1"
   id="svg2124"
   inkscape:version="0.92.2 (unknown)"
   sodipodi:docname="drawing-5.svg">
  <defs
     id="defs2118">
    <linearGradient
       inkscape:collect="always"
       id="linearGradient2338">
      <stop
         style="stop-color:#000000;stop-opacity:1;"
         offset="0"
         id="stop2334" />
      <stop
         style="stop-color:#000000;stop-opacity:0;"
         offset="1"
         id="stop2336" />
    </linearGradient>
    <linearGradient
       inkscape:collect="always"
       id="linearGradient2276">
      <stop
         style="stop-color:#f5f5f5;stop-opacity:1"
         offset="0"
         id="stop2272" />
      <stop
         id="stop2326"
         offset="0.49700177"
         style="stop-color:#202020;stop-opacity:0.98823529" />
      <stop
         style="stop-color:#ffffff;stop-opacity:0.97647059"
         offset="1"
         id="stop2274" />
    </linearGradient>
    <linearGradient
       inkscape:collect="always"
       id="linearGradient3463">
      <stop
         style="stop-color:#97dff2;stop-opacity:1;"
         offset="0"
         id="stop3459" />
      <stop
         id="stop3467"
         offset="0.50477064"
         style="stop-color:#052027;stop-opacity:0.95686275" />
      <stop
         style="stop-color:#97dff2;stop-opacity:0.91959798"
         offset="1"
         id="stop3461" />
    </linearGradient>
    <linearGradient
       inkscape:collect="always"
       id="linearGradient3395">
      <stop
         style="stop-color:#9bebff;stop-opacity:1"
         offset="0"
         id="stop3391" />
      <stop
         id="stop3409"
         offset="0.5362832"
         style="stop-color:#0088aa;stop-opacity:0.98823529;" />
      <stop
         style="stop-color:#00132c;stop-opacity:0.97647059"
         offset="1"
         id="stop3393" />
    </linearGradient>
    <linearGradient
       inkscape:collect="always"
       id="linearGradient2714">
      <stop
         style="stop-color:#fefefe;stop-opacity:1"
         offset="0"
         id="stop2710" />
      <stop
         id="stop2748"
         offset="0.40129775"
         style="stop-color:#d3d3d3;stop-opacity:1" />
      <stop
         id="stop2746"
         offset="0.69436556"
         style="stop-color:#565656;stop-opacity:1" />
      <stop
         style="stop-color:#000000;stop-opacity:1"
         offset="1"
         id="stop2712" />
    </linearGradient>
    <radialGradient
       inkscape:collect="always"
       xlink:href="#linearGradient2714"
       id="radialGradient2716"
       cx="-16.203053"
       cy="124.12849"
       fx="-16.203053"
       fy="124.12849"
       r="39.523925"
       gradientTransform="matrix(0.67282409,0.7578502,-0.69675971,0.6522967,87.768914,58.544368)"
       gradientUnits="userSpaceOnUse" />
    <radialGradient
       inkscape:collect="always"
       xlink:href="#linearGradient3395"
       id="radialGradient3397"
       cx="-17.016251"
       cy="130.67384"
       fx="-17.016251"
       fy="130.67384"
       r="21.695833"
       gradientTransform="matrix(1.0134245,0,0,0.97432964,102.75809,-29.426478)"
       gradientUnits="userSpaceOnUse" />
    <linearGradient
       inkscape:collect="always"
       xlink:href="#linearGradient3463"
       id="linearGradient3465"
       x1="-47.400204"
       y1="134.76649"
       x2="15.198865"
       y2="133.70816"
       gradientUnits="userSpaceOnUse"
       gradientTransform="matrix(0.9858271,0.03424076,-0.00984113,1.0140348,1.1005164,-1.2532116)" />
    <linearGradient
       inkscape:collect="always"
       xlink:href="#linearGradient2276"
       id="linearGradient2278"
       x1="-181.16016"
       y1="505.35352"
       x2="60.617188"
       y2="505.35352"
       gradientUnits="userSpaceOnUse"
       gradientTransform="matrix(0.26083342,0.00905954,-0.0026038,0.26829672,1.1005156,-1.2532122)" />
    <radialGradient
       inkscape:collect="always"
       xlink:href="#linearGradient2714"
       id="radialGradient2328"
       gradientUnits="userSpaceOnUse"
       gradientTransform="matrix(0.67282409,0.7578502,-0.69675971,0.6522967,87.768914,58.544368)"
       cx="-16.203053"
       cy="124.12849"
       fx="-16.203053"
       fy="124.12849"
       r="39.523925" />
    <radialGradient
       inkscape:collect="always"
       xlink:href="#linearGradient3395"
       id="radialGradient2330"
       gradientUnits="userSpaceOnUse"
       gradientTransform="matrix(1.0134245,0,0,0.97432964,102.75809,-29.426478)"
       cx="-17.016251"
       cy="130.67384"
       fx="-17.016251"
       fy="130.67384"
       r="21.695833" />
    <linearGradient
       inkscape:collect="always"
       xlink:href="#linearGradient2338"
       id="linearGradient2340"
       x1="-12.884203"
       y1="165.04405"
       x2="-12.051022"
       y2="178.01051"
       gradientUnits="userSpaceOnUse" />
  </defs>
  <sodipodi:namedview
     id="base"
     pagecolor="#ffffff"
     bordercolor="#666666"
     borderopacity="1.0"
     inkscape:pageopacity="0.0"
     inkscape:pageshadow="2"
     inkscape:zoom="1.0820313"
     inkscape:cx="0.40694668"
     inkscape:cy="583.99284"
     inkscape:document-units="mm"
     inkscape:current-layer="layer1"
     showgrid="false"
     showborder="false"
     inkscape:object-nodes="true"
     inkscape:window-width="1360"
     inkscape:window-height="744"
     inkscape:window-x="0"
     inkscape:window-y="24"
     inkscape:window-maximized="1"
     showguides="false" />
  <metadata
     id="metadata2121">
    <rdf:RDF>
      <cc:Work
         rdf:about="">
        <dc:format>image/svg+xml</dc:format>
        <dc:type
           rdf:resource="http://purl.org/dc/dcmitype/StillImage" />
        <dc:title />
      </cc:Work>
    </rdf:RDF>
  </metadata>
  <g
     inkscape:label="Layer 1"
     inkscape:groupmode="layer"
     id="layer1">
    <path
       style="opacity:1;fill:url(#radialGradient3397);fill-opacity:1;stroke-width:0.26291242;paint-order:stroke fill markers"
       id="path2688"
       sodipodi:type="arc"
       sodipodi:cx="86.317818"
       sodipodi:cy="100.76578"
       sodipodi:rx="21.987089"
       sodipodi:ry="21.138893"
       sodipodi:start="1.0319975"
       sodipodi:end="1.0220334"
       sodipodi:open="true"
       d="m 97.599511,118.90983 a 21.987089,21.138893 0 0 1 -30.125614,-7.25241 21.987089,21.138893 0 0 1 7.468346,-28.981433 21.987089,21.138893 0 0 1 30.162817,7.108023 21.987089,21.138893 0 0 1 -7.318069,29.01685"
       transform="matrix(0.66391142,0.74781122,-0.73001564,0.68343044,0,0)" />
    <path
       style="opacity:0.99299999;fill:#000000;fill-opacity:0.92568629;stroke-width:0.14414245;paint-order:stroke fill markers"
       d="m 17.049733,115.45629 -9.0399455,-5.85665 -8.9377548,-3.38212 -12.3948907,0.58874 -4.385128,4.1053 -0.0092,1.13169 a 21.895301,20.499443 59.480825 0 0 -14.225991,7.21751 l -3.663447,-3.34223 -9.090494,-4.34066 -7.867532,8.83417 16.972795,6.14065 0.347109,-0.18583 a 17.385683,8.2824013 14.646396 0 1 13.86839,4.13244 17.385683,8.2824013 14.646396 0 1 5.123494,4.01058 17.385683,8.2824013 14.646396 0 1 -1.323699,8.59199 17.385683,8.2824013 14.646396 0 1 -15.985205,0.26748 21.895301,20.499443 59.480825 0 0 0.239881,0.39072 l -15.295752,7.83821 12.2569,9.08693 11.606972,0.88324 10.704241,0.25967 0.83445,-6.81589 a 21.895301,20.499443 59.480825 0 0 12.23770245,-5.31881 c 1.53525915,2.11669 3.44030295,4.38659 3.44030295,4.38659 l 11.3267766,-1.79183 7.3851,-5.44514 -16.7689046,-6.06692 a 21.895301,20.499443 59.480825 0 0 0.012931,-0.0416 17.385683,8.2824013 14.646396 0 1 -0.1726306,-0.0161 l -0.043819,-0.0168 c 0,0 -0.013643,0.0107 -0.013712,0.0108 a 17.385683,8.2824013 14.646396 0 1 -13.9370899,-4.10613 l -0.1364628,-0.0765 a 17.385683,8.2824013 14.646396 0 1 -3.6819364,-12.58814 17.385683,8.2824013 14.646396 0 1 15.9382459,-0.24429 21.895301,20.499443 59.480825 0 0 -0.00265,-0.005 z"
       id="path2677"
       inkscape:connector-curvature="0" />
    <path
       style="opacity:1;fill:url(#radialGradient2716);fill-opacity:1;stroke-width:0.26458332;paint-order:stroke fill markers"
       d="M 10.427472,106.43265 A 40.190315,37.628122 59.480826 0 0 -6.1242576,95.930607 40.190315,37.628122 59.480826 0 0 -52.675413,120.29196 a 31.912605,15.202912 14.646396 0 1 26.135376,7.64926 31.912605,15.202912 14.646396 0 1 9.404253,7.36151 31.912605,15.202912 14.646396 0 1 -2.430019,15.7714 31.912605,15.202912 14.646396 0 1 -29.341588,0.49134 40.190315,37.628122 59.480826 0 0 22.984798,19.46543 l 0.368931,0.12288 A 40.190315,37.628122 59.480826 0 0 20.808062,146.72881 31.912605,15.202912 14.646396 0 1 -5.1969964,139.1526 l -0.2507345,-0.14101 a 31.912605,15.202912 14.646396 0 1 -6.7586451,-23.1067 31.912605,15.202912 14.646396 0 1 29.256109,-0.4486 40.190315,37.628122 59.480826 0 0 -6.622261,-9.02364 z"
       id="path2669"
       inkscape:connector-curvature="0" />
    <path
       transform="matrix(0.66391142,0.74781122,-0.73001564,0.68343044,0,0)"
       d="m 97.599511,118.90983 a 21.987089,21.138893 0 0 1 -30.125614,-7.25241 21.987089,21.138893 0 0 1 7.468346,-28.981433 21.987089,21.138893 0 0 1 30.162817,7.108023 21.987089,21.138893 0 0 1 -7.318069,29.01685"
       sodipodi:open="true"
       sodipodi:end="1.0220334"
       sodipodi:start="1.0319975"
       sodipodi:ry="21.138893"
       sodipodi:rx="21.987089"
       sodipodi:cy="100.76578"
       sodipodi:cx="86.317818"
       sodipodi:type="arc"
       id="path3443"
       style="opacity:1;fill:url(#radialGradient2330);fill-opacity:1;stroke-width:0.26291242;paint-order:stroke fill markers" />
    <path
       style="opacity:0.40900005;fill:#000000;fill-opacity:1;stroke-width:0.12293649;paint-order:stroke fill markers"
       d="m -3.5515223,120.94167 a 18.614226,17.539837 49.829299 0 0 -7.7764597,-4.83232 18.614226,17.539837 49.829299 0 0 -21.865678,11.17937 14.974525,6.9947551 14.223618 0 1 12.278232,3.52466 14.974525,6.9947551 14.223618 0 1 4.418517,3.3865 14.974525,6.9947551 14.223618 0 1 -1.13998,7.24727 14.974525,6.9947551 14.223618 0 1 -13.783595,0.21543 18.614226,17.539837 49.829299 0 0 10.799373,8.95396 l 0.17329,0.0567 A 18.614226,17.539837 49.829299 0 0 1.3288621,139.46454 14.974525,6.9947551 14.223618 0 1 -10.888145,135.97349 l -0.117707,-0.0651 a 14.974525,6.9947551 14.223618 0 1 -3.177259,-10.62164 14.974525,6.9947551 14.223618 0 1 13.74344509,-0.19581 18.614226,17.539837 49.829299 0 0 -3.11179609,-4.14939 z"
       id="path3469"
       inkscape:connector-curvature="0" />
    <path
       inkscape:connector-curvature="0"
       id="path3445"
       d="m 17.049733,115.45629 -9.0399455,-5.85665 -8.9377548,-3.38212 -12.3948907,0.58874 -4.385128,4.1053 -0.0092,1.13169 a 21.895301,20.499443 59.480825 0 0 -14.225991,7.21751 l -3.663447,-3.34223 -9.090494,-4.34066 -7.867532,8.83417 16.972795,6.14065 0.347109,-0.18583 a 17.385683,8.2824013 14.646396 0 1 13.86839,4.13244 17.385683,8.2824013 14.646396 0 1 5.123494,4.01058 17.385683,8.2824013 14.646396 0 1 -1.323699,8.59199 17.385683,8.2824013 14.646396 0 1 -15.985205,0.26748 21.895301,20.499443 59.480825 0 0 0.239881,0.39072 l -15.295752,7.83821 12.2569,9.08693 11.606972,0.88324 10.704241,0.25967 0.83445,-6.81589 a 21.895301,20.499443 59.480825 0 0 12.23770245,-5.31881 c 1.53525915,2.11669 3.44030295,4.38659 3.44030295,4.38659 l 11.3267766,-1.79183 7.3851,-5.44514 -16.7689046,-6.06692 a 21.895301,20.499443 59.480825 0 0 0.012931,-0.0416 17.385683,8.2824013 14.646396 0 1 -0.1726306,-0.0161 l -0.043819,-0.0168 c 0,0 -0.013643,0.0107 -0.013712,0.0108 a 17.385683,8.2824013 14.646396 0 1 -13.9370899,-4.10613 l -0.1364628,-0.0765 a 17.385683,8.2824013 14.646396 0 1 -3.6819364,-12.58814 17.385683,8.2824013 14.646396 0 1 15.9382459,-0.24429 21.895301,20.499443 59.480825 0 0 -0.00265,-0.005 z"
       style="opacity:0.99299999;fill:url(#linearGradient3465);fill-opacity:1;stroke-width:0.14414245;paint-order:stroke fill markers" />
    <path
       style="opacity:0.48699999;fill:#ff0000;fill-opacity:1;stroke-width:0.26458332;paint-order:stroke fill markers"
       d="M 10.427472,106.43265 A 40.190315,37.628122 59.480826 0 0 -6.1242576,95.930607 40.190315,37.628122 59.480826 0 0 -52.675413,120.29196 a 31.912605,15.202912 14.646396 0 1 26.135376,7.64926 31.912605,15.202912 14.646396 0 1 9.404253,7.36151 31.912605,15.202912 14.646396 0 1 -2.430019,15.7714 31.912605,15.202912 14.646396 0 1 -29.341588,0.49134 40.190315,37.628122 59.480826 0 0 22.984798,19.46543 l 0.368931,0.12288 A 40.190315,37.628122 59.480826 0 0 20.808062,146.72881 31.912605,15.202912 14.646396 0 1 -5.1969964,139.1526 l -0.2507345,-0.14101 a 31.912605,15.202912 14.646396 0 1 -6.7586451,-23.1067 31.912605,15.202912 14.646396 0 1 29.256109,-0.4486 40.190315,37.628122 59.480826 0 0 -6.622261,-9.02364 z"
       id="path3471"
       inkscape:connector-curvature="0" />
    <path
       style="opacity:1;fill:url(#linearGradient2278);fill-opacity:1;stroke-width:0.22635178;paint-order:stroke fill markers"
       d="m -0.9280681,106.21728 -12.3948939,0.58905 -4.384789,4.10519 -0.0095,1.13194 a 21.895301,20.499443 59.480825 0 0 -14.226046,7.2173 l -3.663268,-3.34212 -7.097107,-3.3885 a 34.38293,32.190966 59.480824 0 0 -4.662539,9.67194 27.301325,13.006134 14.646396 0 1 22.358914,6.54376 27.301325,13.006134 14.646396 0 1 0.20116,0.12122 17.385683,8.2824013 14.646396 0 1 3.42962,1.63252 17.385683,8.2824013 14.646396 0 1 5.123449,4.01033 17.385683,8.2824013 14.646396 0 1 1.823234,4.7947 27.301325,13.006134 14.646396 0 1 -4.611378,9.2318 27.301325,13.006134 14.646396 0 1 -24.641859,0.53324 l -0.297052,0.15218 a 34.38293,32.190966 59.480824 0 0 10.452438,11.67934 l 8.773631,0.66746 10.704426,0.25963 0.834644,-6.81593 a 21.895301,20.499443 59.480825 0 0 12.23745915,-5.31907 c 1.53526405,2.11668 3.44062545,4.38696 3.44062545,4.38696 l 9.6418814,-1.52546 a 34.38293,32.190966 59.480824 0 0 3.394174,-7.73558 27.301325,13.006134 14.646396 0 1 -22.247399,-6.48171 l -0.2148995,-0.1207 a 27.301325,13.006134 14.646396 0 1 -1.7813224,-1.07933 17.385683,8.2824013 14.646396 0 1 -1.0044266,-0.53017 l -0.1364805,-0.0768 a 17.385683,8.2824013 14.646396 0 1 -6.791063,-7.14422 27.301325,13.006134 14.646396 0 1 3.931291,-10.93705 27.301325,13.006134 14.646396 0 1 25.028724,-0.38349 34.38293,32.190966 59.480824 0 0 -5.6653498,-7.71999 34.38293,32.190966 59.480824 0 0 -2.2522455,-2.12469 z"
       id="path2247"
       inkscape:connector-curvature="0" />
    <path
       inkscape:connector-curvature="0"
       id="path3447"
       d="M 10.427472,106.43265 A 40.190315,37.628122 59.480826 0 0 -6.1242576,95.930607 40.190315,37.628122 59.480826 0 0 -52.675413,120.29196 a 31.912605,15.202912 14.646396 0 1 26.135376,7.64926 31.912605,15.202912 14.646396 0 1 9.404253,7.36151 31.912605,15.202912 14.646396 0 1 -2.430019,15.7714 31.912605,15.202912 14.646396 0 1 -29.341588,0.49134 40.190315,37.628122 59.480826 0 0 22.984798,19.46543 l 0.368931,0.12288 A 40.190315,37.628122 59.480826 0 0 20.808062,146.72881 31.912605,15.202912 14.646396 0 1 -5.1969964,139.1526 l -0.2507345,-0.14101 a 31.912605,15.202912 14.646396 0 1 -6.7586451,-23.1067 31.912605,15.202912 14.646396 0 1 29.256109,-0.4486 40.190315,37.628122 59.480826 0 0 -6.622261,-9.02364 z"
       style="opacity:1;fill:url(#radialGradient2328);fill-opacity:1;stroke-width:0.26458332;paint-order:stroke fill markers" />
    <path
       style="opacity:1;fill:url(#linearGradient2340);fill-opacity:1;stroke-width:0.26458332;paint-order:stroke fill markers"
       d="m -4.5005037,245.87563 a 38.232291,39.555205 68.081295 0 1 -19.4243403,1.91139 38.232291,39.555205 68.081295 0 1 -32.135999,-42.76493 32.142795,15.094036 12.643413 0 0 26.942836,4.96121 32.142795,15.094036 12.643413 0 0 11.618399,-2.33157 32.142795,15.094036 12.643413 0 0 4.373905,-15.18323 32.142795,15.094036 12.643413 0 0 -26.458997,-13.67901 38.232291,39.555205 68.081295 0 1 29.011227,-7.01444 l 0.386551,0.0567 a 38.232291,39.555205 68.081295 0 1 31.937306,42.73626 32.142795,15.094036 12.643413 0 0 -26.7939253,-4.96764 l -0.2867052,0.0128 a 32.142795,15.094036 12.643413 0 0 -15.7854505,17.5887 32.142795,15.094036 12.643413 0 0 26.3991575,13.60226 38.232291,39.555205 68.081295 0 1 -9.7839642,5.0715 z"
       id="path2332"
       inkscape:connector-curvature="0" />
  </g>
</svg>
