<?xml version="1.0" encoding="UTF-8" standalone="no"?>
<!-- Generator: Adobe Illustrator 19.0.0, SVG Export Plug-In . SVG Version: 6.00 Build 0)  -->

<svg
   xmlns:dc="http://purl.org/dc/elements/1.1/"
   xmlns:cc="http://creativecommons.org/ns#"
   xmlns:rdf="http://www.w3.org/1999/02/22-rdf-syntax-ns#"
   xmlns:svg="http://www.w3.org/2000/svg"
   xmlns="http://www.w3.org/2000/svg"
   xmlns:sodipodi="http://sodipodi.sourceforge.net/DTD/sodipodi-0.dtd"
   xmlns:inkscape="http://www.inkscape.org/namespaces/inkscape"
   version="1.1"
   id="Layer_1"
   x="0px"
   y="0px"
   viewBox="0 0 32.000001 32.000001"
   xml:space="preserve"
   sodipodi:docname="elephant.svg"
   width="32"
   height="32"
   inkscape:version="0.92.2 (unknown)"><metadata
     id="metadata876"><rdf:RDF><cc:Work
         rdf:about=""><dc:format>image/svg+xml</dc:format><dc:type
           rdf:resource="http://purl.org/dc/dcmitype/StillImage" /><dc:title /></cc:Work></rdf:RDF></metadata><defs
     id="defs874" /><sodipodi:namedview
     pagecolor="#ffffff"
     bordercolor="#666666"
     borderopacity="1"
     objecttolerance="10"
     gridtolerance="10"
     guidetolerance="10"
     inkscape:pageopacity="0"
     inkscape:pageshadow="2"
     inkscape:window-width="1920"
     inkscape:window-height="1050"
     id="namedview872"
     showgrid="false"
     inkscape:zoom="4.5740882"
     inkscape:cx="-30.602968"
     inkscape:cy="31.282823"
     inkscape:window-x="0"
     inkscape:window-y="30"
     inkscape:window-maximized="1"
     inkscape:current-layer="Layer_1" /><g
     id="g1650"
     transform="matrix(0.65574588,0,0,0.74155297,42.206728,145.36004)"><path
       inkscape:connector-curvature="0"
       id="rect1620"
       d="m -66.163735,-195.96848 v 44.10884 h 53.796218 v -44.10884 z m 15.797334,7.9986 c 2.512549,0 4.504802,1.66292 7.190667,1.81704 0.853519,-0.1381 1.839343,-0.2168 2.982385,-0.2168 1.143042,0 2.128848,0.0787 2.982386,0.2168 2.685864,-0.15412 4.678118,-1.81704 7.190667,-1.81704 2.692794,0 8.377502,9.15845 8.377502,10.13659 0,3.46771 -4.089978,2.492 -5.983651,5.86842 -1.196797,2.13394 -3.590931,3.20049 -4.189402,3.20049 l -3.175091,-3.70178 c -0.03595,0.0317 -0.07049,0.064 -0.107421,0.0951 0.145155,0.7679 0.291012,1.47264 0.291012,1.47264 l -2.442678,2.17771 c -0.192028,2.2906 -0.872368,10.69941 -0.549473,11.16001 0.372456,0.53137 1.944354,-1.33663 2.648405,-2.22458 0.202027,-0.25477 0.580824,-0.33738 0.89387,-0.19791 0.351832,0.15685 0.494378,0.53648 0.315751,0.84895 -0.390715,0.68343 -1.012269,1.72395 -2.063126,2.63994 -2.571628,2.24169 -4.59992,1.80089 -5.385351,0.53385 -1.157305,-1.86694 -1.417957,-8.67982 -1.746723,-12.76092 l -2.442028,-2.17705 c 0,0 0.145858,-0.70475 0.291013,-1.47264 -0.03701,-0.0311 -0.0714,-0.064 -0.107421,-0.0957 l -3.175743,3.70243 c -0.598471,0 -2.991953,-1.06655 -4.18875,-3.20049 -1.893673,-3.37642 -5.984302,-2.40071 -5.984302,-5.86842 0,-0.97807 5.684708,-10.13659 8.377502,-10.13659 z"
       style="opacity:1;fill:#ff8080;fill-opacity:1;stroke:none;stroke-width:0;stroke-linejoin:miter;stroke-miterlimit:0;stroke-dasharray:none;stroke-opacity:0.83529412;paint-order:stroke fill markers" /><path
       style="fill:#ffebd2;stroke-width:0.06841964"
       d="m -45.551648,-164.67246 c 0.119491,-0.87917 0.596949,-2.52187 2.366493,-4.62531 l -1.795196,-1.60045 c -0.430285,0.84383 -1.554039,4.51122 -0.999698,6.26362 0.06449,0.20414 0.399705,0.17267 0.428401,-0.0379 z"
       id="path827"
       inkscape:connector-curvature="0" /><path
       style="fill:#ffebd2;stroke-width:0.06841964"
       d="m -35.35938,-170.89822 -1.795196,1.60045 c 1.768602,2.10228 2.246567,3.74433 2.366349,4.62389 0.0287,0.21086 0.364488,0.24238 0.429052,0.0379 0.553255,-1.75291 -0.570065,-5.41869 -1.000205,-6.26226 z"
       id="path829"
       inkscape:connector-curvature="0" /><ellipse
       ry="0.80022484"
       rx="0.89759785"
       style="fill:#464655;stroke-width:0.06841964"
       cx="-45.878021"
       cy="-178.10051"
       id="circle835" /><ellipse
       ry="0.80022484"
       rx="0.89759785"
       style="fill:#464655;stroke-width:0.06841964"
       cx="-34.508377"
       cy="-178.10051"
       id="circle837" /></g></svg>