<?xml version="1.0" encoding="UTF-8" standalone="no"?>
<!-- Created with Inkscape (http://www.inkscape.org/) -->

<svg
   xmlns:dc="http://purl.org/dc/elements/1.1/"
   xmlns:cc="http://creativecommons.org/ns#"
   xmlns:rdf="http://www.w3.org/1999/02/22-rdf-syntax-ns#"
   xmlns:svg="http://www.w3.org/2000/svg"
   xmlns="http://www.w3.org/2000/svg"
   xmlns:sodipodi="http://sodipodi.sourceforge.net/DTD/sodipodi-0.dtd"
   xmlns:inkscape="http://www.inkscape.org/namespaces/inkscape"
   width="32"
   height="32"
   viewBox="0 0 8.4666665 8.4666669"
   version="1.1"
   id="svg1609"
   inkscape:version="0.92.2 (unknown)"
   sodipodi:docname="reactive.svg">
  <defs
     id="defs1603" />
  <sodipodi:namedview
     id="base"
     pagecolor="#ffffff"
     bordercolor="#666666"
     borderopacity="1.0"
     inkscape:pageopacity="0.0"
     inkscape:pageshadow="2"
     inkscape:zoom="4"
     inkscape:cx="70.25"
     inkscape:cy="38.333058"
     inkscape:document-units="mm"
     inkscape:current-layer="layer1"
     showgrid="false"
     showguides="false"
     inkscape:window-width="1920"
     inkscape:window-height="1050"
     inkscape:window-x="0"
     inkscape:window-y="30"
     inkscape:window-maximized="1"
     units="px" />
  <metadata
     id="metadata1606">
    <rdf:RDF>
      <cc:Work
         rdf:about="">
        <dc:format>image/svg+xml</dc:format>
        <dc:type
           rdf:resource="http://purl.org/dc/dcmitype/StillImage" />
        <dc:title />
      </cc:Work>
    </rdf:RDF>
  </metadata>
  <g
     inkscape:label="Layer 1"
     inkscape:groupmode="layer"
     id="layer1"
     transform="translate(0,-288.53332)">
    <path
       style="opacity:0.66500005;fill:#c83737;fill-opacity:1;stroke:none;stroke-width:0;stroke-linejoin:miter;stroke-miterlimit:0;stroke-dasharray:none;stroke-opacity:0.83529412;paint-order:stroke fill markers"
       d="m -0.12734519,288.4196 v 8.83837 H 8.803968 v -8.83837 z m 4.36927739,1.8573 a 2.8175248,2.2162904 0 0 1 2.319342,0.9674 l 0.7716525,-0.46084 -0.094459,1.40435 a 2.2162405,2.8175884 89.825854 0 1 0.1838549,0.84981 2.2162405,2.8175884 89.825854 0 1 -2.8959921,2.15617 2.2162405,2.8175884 89.825854 0 1 -0.3540791,-0.0255 2.2162405,2.8175884 89.825854 0 1 -1.929675,-0.99035 l -0.7879016,0.44443 0.1420476,-1.3749 a 2.8175248,2.2162904 0 0 1 -0.1723334,-0.75425 2.8175248,2.2162904 0 0 1 2.8175441,-2.2163 z m 2.9965346,1.91091 -1.8955489,-0.21585 0.7577852,-0.45259 a 2.2356449,1.7585783 0 0 0 -1.8587709,-0.78474 2.2356449,1.7585783 0 0 0 -2.2356587,1.75858 2.2356449,1.7585783 0 0 0 0.1528557,0.63884 l -0.3083633,0.12251 1.635828,0.22165 -0.7737599,0.43646 a 1.7585387,2.2356953 89.825854 0 0 1.8299136,0.82357 1.7585387,2.2356953 89.825854 0 0 2.2979287,-1.71086 1.7585387,2.2356953 89.825854 0 0 -0.1298783,-0.64182 z"
       id="rect2154"
       inkscape:connector-curvature="0" />
  </g>
</svg>
