<?xml version="1.0" encoding="UTF-8" standalone="no"?>
<!-- Created with Inkscape (http://www.inkscape.org/) -->

<svg
   xmlns:dc="http://purl.org/dc/elements/1.1/"
   xmlns:cc="http://creativecommons.org/ns#"
   xmlns:rdf="http://www.w3.org/1999/02/22-rdf-syntax-ns#"
   xmlns:svg="http://www.w3.org/2000/svg"
   xmlns="http://www.w3.org/2000/svg"
   xmlns:sodipodi="http://sodipodi.sourceforge.net/DTD/sodipodi-0.dtd"
   xmlns:inkscape="http://www.inkscape.org/namespaces/inkscape"
   width="250"
   height="80"
   viewBox="0 0 250 80"
   id="svg4135"
   version="1.1"
   inkscape:version="0.91 r13725"
   sodipodi:docname="scala-mill.svg">
  <defs
     id="defs4137" />
  <sodipodi:namedview
     id="base"
     pagecolor="#ffffff"
     bordercolor="#666666"
     borderopacity="1.0"
     inkscape:pageopacity="0.0"
     inkscape:pageshadow="2"
     inkscape:zoom="1.0608765"
     inkscape:cx="-27.424517"
     inkscape:cy="60.561814"
     inkscape:document-units="px"
     inkscape:current-layer="layer1"
     showgrid="false"
     inkscape:window-width="1366"
     inkscape:window-height="747"
     inkscape:window-x="0"
     inkscape:window-y="21"
     inkscape:window-maximized="1"
     units="px"
     showguides="false" />
  <metadata
     id="metadata4140">
    <rdf:RDF>
      <cc:Work
         rdf:about="">
        <dc:format>image/svg+xml</dc:format>
        <dc:type
           rdf:resource="http://purl.org/dc/dcmitype/StillImage" />
        <dc:title></dc:title>
      </cc:Work>
    </rdf:RDF>
  </metadata>
  <g
     inkscape:label="Layer 1"
     inkscape:groupmode="layer"
     id="layer1"
     transform="translate(0,-972.3622)">
    <text
       xml:space="preserve"
       style="font-style:normal;font-weight:normal;font-size:19.46531105px;line-height:137.00000048%;font-family:'Noto Sans CJK JP';letter-spacing:0px;word-spacing:0px;fill:#000000;fill-opacity:1;stroke:none;stroke-width:1px;stroke-linecap:butt;stroke-linejoin:miter;stroke-opacity:1;-inkscape-font-specification:'Noto Sans CJK JP';font-stretch:normal;font-variant:normal;"
       x="113.24152"
       y="1031.0167"
       id="text4683"
       sodipodi:linespacing="137%"><tspan
         sodipodi:role="line"
         id="tspan4685"
         x="113.24152"
         y="1031.0167"
         style="font-style:normal;font-variant:normal;font-weight:normal;font-stretch:normal;font-size:30px;line-height:137.00000048%;font-family:FreeMono;-inkscape-font-specification:FreeMono;text-align:center;text-anchor:middle"><tspan
           style="font-style:normal;font-variant:normal;font-weight:normal;font-stretch:normal;font-size:30px;line-height:132%;font-family:FreeMono;-inkscape-font-specification:FreeMono;text-align:center;text-anchor:middle;fill:#373748;fill-opacity:1"
           id="tspan4687">SCALA</tspan><tspan
           style="font-style:normal;font-variant:normal;font-weight:normal;font-stretch:normal;font-size:30px;line-height:132%;font-family:FreeMono;-inkscape-font-specification:FreeMono;text-align:center;text-anchor:middle;opacity:1;fill:#ff2a7f;fill-opacity:1"
           id="tspan4689">MILL</tspan></tspan></text>
    <g
       id="g4871"
       transform="matrix(0.101795,0,0,0.101795,206.95928,751.26244)"
       style="opacity:0.63999999">
      <path
         transform="translate(0,1002.3622)"
         id="path4824"
         d="m 404.46484,-609.98047 a 202.23273,202.23273 0 0 0 -202.23242,202.23242 202.23273,202.23273 0 0 0 202.23242,202.23243 202.23273,202.23273 0 0 0 202.23243,-202.23243 202.23273,202.23273 0 0 0 -202.23243,-202.23242 z m 0,23.00781 a 179.22421,179.22421 0 0 1 179.22461,179.22461 179.22421,179.22421 0 0 1 -179.22461,179.22461 179.22421,179.22421 0 0 1 -179.22265,-179.22461 179.22421,179.22421 0 0 1 179.22265,-179.22461 z"
         style="opacity:0.76000001;fill:#a300ff;fill-opacity:1;stroke-width:2.20000005;stroke-miterlimit:4;stroke-dasharray:none"
         inkscape:connector-curvature="0" />
      <path
         id="circle4843"
         transform="translate(0,1002.3622)"
         d="m 404.46484,-586.97266 a 179.22421,179.22421 0 0 0 -179.22265,179.22461 179.22421,179.22421 0 0 0 179.22265,179.22461 179.22421,179.22421 0 0 0 179.22461,-179.22461 179.22421,179.22421 0 0 0 -179.22461,-179.22461 z m 0,24.21875 a 155.00471,155.00471 0 0 1 155.00586,155.00586 155.00471,155.00471 0 0 1 -155.00586,155.00391 155.00471,155.00471 0 0 1 -155.0039,-155.00391 155.00471,155.00471 0 0 1 155.0039,-155.00586 z"
         style="opacity:0.76000001;fill:#ff5555;fill-opacity:1;stroke-width:2.20000005;stroke-miterlimit:4;stroke-dasharray:none"
         inkscape:connector-curvature="0" />
    </g>
    <rect
       style="opacity:1;fill:#d42dff;fill-opacity:1;stroke-width:2.20000005;stroke-miterlimit:4;stroke-dasharray:none"
       id="rect4947"
       width="5.0649943"
       height="29.221119"
       x="177.03601"
       y="856.29791" />
    <rect
       style="opacity:1;fill:#2affd5;fill-opacity:1;stroke-width:2.20000005;stroke-miterlimit:4;stroke-dasharray:none"
       id="rect4949"
       width="5.6557007"
       height="35.819439"
       x="242.2525"
       y="889.28949" />
  </g>
</svg>
