<?xml version="1.0" encoding="UTF-8" standalone="no"?>
<!-- Created with Inkscape (http://www.inkscape.org/) -->

<svg
   xmlns:dc="http://purl.org/dc/elements/1.1/"
   xmlns:cc="http://creativecommons.org/ns#"
   xmlns:rdf="http://www.w3.org/1999/02/22-rdf-syntax-ns#"
   xmlns:svg="http://www.w3.org/2000/svg"
   xmlns="http://www.w3.org/2000/svg"
   xmlns:sodipodi="http://sodipodi.sourceforge.net/DTD/sodipodi-0.dtd"
   xmlns:inkscape="http://www.inkscape.org/namespaces/inkscape"
   width="32"
   height="32"
   viewBox="0 0 32 32.000001"
   id="svg2"
   version="1.1"
   inkscape:version="0.91 r13725"
   sodipodi:docname="slick.svg">
  <defs
     id="defs4" />
  <sodipodi:namedview
     id="base"
     pagecolor="#ffffff"
     bordercolor="#666666"
     borderopacity="1.0"
     inkscape:pageopacity="0.0"
     inkscape:pageshadow="2"
     inkscape:zoom="1"
     inkscape:cx="3417.2805"
     inkscape:cy="10149.313"
     inkscape:document-units="px"
     inkscape:current-layer="layer1"
     showgrid="false"
     inkscape:window-width="1366"
     inkscape:window-height="747"
     inkscape:window-x="0"
     inkscape:window-y="21"
     inkscape:window-maximized="1"
     units="px"
     borderlayer="true" />
  <metadata
     id="metadata7">
    <rdf:RDF>
      <cc:Work
         rdf:about="">
        <dc:format>image/svg+xml</dc:format>
        <dc:type
           rdf:resource="http://purl.org/dc/dcmitype/StillImage" />
        <dc:title></dc:title>
      </cc:Work>
    </rdf:RDF>
  </metadata>
  <g
     inkscape:label="Layer 1"
     inkscape:groupmode="layer"
     id="layer1"
     transform="translate(0,-1020.3622)">
    <g
       id="g5475"
       transform="matrix(0.19377494,0,0,0.19377494,462.40471,290.81341)">
      <path
         inkscape:connector-curvature="0"
         id="rect4215"
         d="m 485.11649,268.84932 c -1.90234,0 -3.43355,1.56486 -3.43355,3.50886 l 0,176.70356 c 0,1.944 1.53121,3.50886 3.43355,3.50886 l 176.85295,0 c 1.90235,0 3.43355,-1.56486 3.43356,-3.50886 l 0,-176.70356 c 0,-1.944 -1.53121,-3.50886 -3.43356,-3.50886 l -176.85295,0 z m 86.39302,31.54887 c 2.64706,0.026 5.2746,0.5797 7.26465,1.65443 l 36.34176,19.6259 c 3.98009,2.14945 3.85662,5.54544 -0.27657,7.61529 l -37.73937,18.89995 c -4.13318,2.06984 -10.66403,2.005 -14.64412,-0.14447 l -36.34176,-19.6259 c -3.9801,-2.14946 -3.85662,-5.54545 0.27656,-7.61529 l 37.73937,-18.89994 c 2.0666,-1.03493 4.73241,-1.53595 7.37948,-1.50997 z m 0,55.10589 c 2.64706,0.026 5.2746,0.57846 7.26465,1.65319 l 36.34176,19.62591 c 3.98009,2.14946 3.85662,5.54667 -0.27657,7.61652 l -37.73937,18.8987 c -4.13318,2.06985 -10.66402,2.00624 -14.64412,-0.14321 L 526.1141,383.52928 c -3.9801,-2.14946 -3.85662,-5.54668 0.27656,-7.61652 l 37.73937,-18.89871 c 2.0666,-1.03492 4.73241,-1.53595 7.37948,-1.50997 z"
         style="opacity:0.76000001;fill:#ff5555;fill-opacity:1;stroke:#000000;stroke-width:1.39070368;stroke-miterlimit:4;stroke-dasharray:none;stroke-opacity:1" />
      <rect
         ry="8.0594988"
         rx="7.8867664"
         transform="matrix(0.87988666,0.47518361,-0.89414518,0.44777717,0,0)"
         y="21.296185"
         x="669.28473"
         height="56.887058"
         width="55.667839"
         id="rect4138-5-6"
         style="opacity:0.87999998;fill:#ff5555;fill-opacity:1;stroke:#e20067;stroke-width:1.34331;stroke-miterlimit:4;stroke-dasharray:none;stroke-opacity:0.5968586" />
    </g>
  </g>
</svg>
