<?xml version="1.0" encoding="UTF-8" standalone="no"?>
<!-- Created with Inkscape (http://www.inkscape.org/) -->

<svg
   xmlns:dc="http://purl.org/dc/elements/1.1/"
   xmlns:cc="http://creativecommons.org/ns#"
   xmlns:rdf="http://www.w3.org/1999/02/22-rdf-syntax-ns#"
   xmlns:svg="http://www.w3.org/2000/svg"
   xmlns="http://www.w3.org/2000/svg"
   xmlns:sodipodi="http://sodipodi.sourceforge.net/DTD/sodipodi-0.dtd"
   xmlns:inkscape="http://www.inkscape.org/namespaces/inkscape"
   width="32"
   height="32"
   viewBox="0 0 32 32.000001"
   id="svg4226"
   version="1.1"
   inkscape:version="0.91 r13725"
   sodipodi:docname="slick2.svg">
  <defs
     id="defs4228" />
  <sodipodi:namedview
     id="base"
     pagecolor="#ffffff"
     bordercolor="#666666"
     borderopacity="1.0"
     inkscape:pageopacity="0.0"
     inkscape:pageshadow="2"
     inkscape:zoom="1.4624433"
     inkscape:cx="159.21487"
     inkscape:cy="178.99642"
     inkscape:document-units="px"
     inkscape:current-layer="layer1"
     showgrid="false"
     inkscape:window-width="1366"
     inkscape:window-height="747"
     inkscape:window-x="0"
     inkscape:window-y="21"
     inkscape:window-maximized="1"
     units="px" />
  <metadata
     id="metadata4231">
    <rdf:RDF>
      <cc:Work
         rdf:about="">
        <dc:format>image/svg+xml</dc:format>
        <dc:type
           rdf:resource="http://purl.org/dc/dcmitype/StillImage" />
        <dc:title />
      </cc:Work>
    </rdf:RDF>
  </metadata>
  <g
     inkscape:label="Layer 1"
     inkscape:groupmode="layer"
     id="layer1"
     transform="translate(0,-1020.3622)">
    <path
       style="opacity:0.76000001;fill:#ff7f2a;fill-opacity:1;stroke-width:2.20000005;stroke-miterlimit:4;stroke-dasharray:none"
       d="m -1.1732144,1019.6663 c -0.4162839,0 -0.7513554,0.335 -0.7513554,0.7515 l 0,32.9318 c 0,0.4165 0.3350715,0.7515 0.7513554,0.7515 l 33.6750444,0 c 0.416284,0 0.751355,-0.335 0.751355,-0.7515 l 0,-32.9318 c 0,-0.4165 -0.335071,-0.7515 -0.751355,-0.7515 l -33.6750444,0 z m 17.3684094,6.5254 c 0.579251,0 1.154233,0.1239 1.589713,0.3541 l 7.952296,4.2039 c 0.870958,0.4606 0.843942,1.1883 -0.06055,1.6316 l -2.564767,1.2575 2.290264,1.2105 c 0.870958,0.4605 0.843943,1.1883 -0.06056,1.6316 l -2.625556,1.2873 2.853582,1.5085 c 0.870958,0.4604 0.843931,1.1882 -0.06056,1.6315 l -8.25814,4.0481 c -0.904454,0.4434 -2.333848,0.4297 -3.204806,-0.03 l -7.9523078,-4.2038 c -0.8709474,-0.4606 -0.8439318,-1.1881 0.060552,-1.6314 l 2.625825,-1.2872 -2.8538503,-1.5089 c -0.8709573,-0.4604 -0.8439417,-1.188 0.060564,-1.6313 l 2.5647669,-1.2572 -2.2902632,-1.2108 c -0.8709586,-0.4605 -0.8439317,-1.1882 0.060552,-1.6315 l 8.2581514,-4.0483 c 0.452229,-0.2217 1.035846,-0.329 1.615095,-0.3233 z"
       id="rect4774"
       inkscape:connector-curvature="0" />
  </g>
</svg>
