<?xml version="1.0" encoding="UTF-8" standalone="no"?>
<!-- Created with Inkscape (http://www.inkscape.org/) -->

<svg
   xmlns:dc="http://purl.org/dc/elements/1.1/"
   xmlns:cc="http://creativecommons.org/ns#"
   xmlns:rdf="http://www.w3.org/1999/02/22-rdf-syntax-ns#"
   xmlns:svg="http://www.w3.org/2000/svg"
   xmlns="http://www.w3.org/2000/svg"
   xmlns:sodipodi="http://sodipodi.sourceforge.net/DTD/sodipodi-0.dtd"
   xmlns:inkscape="http://www.inkscape.org/namespaces/inkscape"
   width="32"
   height="32"
   viewBox="0 0 8.4666659 8.4666659"
   version="1.1"
   id="svg2736"
   sodipodi:docname="technologies.svg"
   inkscape:version="0.92.2 (unknown)">
  <defs
     id="defs2730" />
  <sodipodi:namedview
     id="base"
     pagecolor="#ffffff"
     bordercolor="#666666"
     borderopacity="1.0"
     inkscape:pageopacity="0.0"
     inkscape:pageshadow="2"
     inkscape:zoom="7.919596"
     inkscape:cx="1.8079422"
     inkscape:cy="33.170485"
     inkscape:document-units="mm"
     inkscape:current-layer="layer1"
     showgrid="false"
     inkscape:window-width="1920"
     inkscape:window-height="1050"
     inkscape:window-x="0"
     inkscape:window-y="30"
     inkscape:window-maximized="1"
     units="px" />
  <metadata
     id="metadata2733">
    <rdf:RDF>
      <cc:Work
         rdf:about="">
        <dc:format>image/svg+xml</dc:format>
        <dc:type
           rdf:resource="http://purl.org/dc/dcmitype/StillImage" />
        <dc:title></dc:title>
      </cc:Work>
    </rdf:RDF>
  </metadata>
  <g
     inkscape:label="Layer 1"
     inkscape:groupmode="layer"
     id="layer1"
     transform="translate(0,-288.53334)">
    <path
       style="opacity:1;fill:#ff7f2a;fill-opacity:0.73446326;stroke:none;stroke-width:0;stroke-linejoin:miter;stroke-miterlimit:0;stroke-dasharray:none;stroke-opacity:0.83529412;paint-order:stroke fill markers"
       d="m -0.00123823,297.0833 8.54088423,0.0688 0.070382,-8.59497 -8.54088145,-0.0688 z m 1.00678833,-2.29811 0.3686279,-0.12238 a 1.677716,1.6198805 0.34797423 0 1 0.0908,-0.81265 l -0.3402004,-0.18852 0.2834536,-0.47683 0.346271,0.19222 a 1.677716,1.6198805 0.34797423 0 1 0.4219525,-0.34619 l -0.1299901,-0.3755 0.5401951,-0.1741 0.1225713,0.35488 a 1.677716,1.6198805 0.34797423 0 1 0.7484879,0.0222 l 0.1771535,-0.35405 0.5129635,0.2391 -0.1719221,0.34375 a 1.677716,1.6198805 0.34797423 0 1 0.4986759,0.51048 l 0.3845314,-0.12761 0.1851758,0.51985 -0.3674052,0.12187 a 1.677716,1.6198805 0.34797423 0 1 -2.644e-4,1.2e-4 1.677716,1.6198805 0.34797423 0 1 -0.026609,0.7369 l 0.3723898,0.17977 -0.2544447,0.49184 -0.3587554,-0.17336 a 1.677716,1.6198805 0.34797423 0 1 -0.5966025,0.50898 l 0.1268058,0.36684 -0.5400542,0.17398 -0.1279989,-0.37051 a 1.677716,1.6198805 0.34797423 0 1 -0.735331,-0.0572 l -0.1642055,0.32824 -0.5126917,-0.2395 0.1687581,-0.33723 a 1.677716,1.6198805 0.34797423 0 1 -0.4739459,-0.5361 L 1.1907477,295.305 Z m 0.3137517,-3.96148 0.00396,-0.48694 0.3452473,0.003 a 1.4862746,1.4350385 0.3479746 0 1 0.3240553,-0.65299 l -0.22665,-0.25434 0.3824214,-0.3176 0.2306773,0.25921 a 1.4862746,1.4350385 0.3479746 0 1 0.4581765,-0.16901 l 0.00608,-0.35071 0.5045579,0.008 -0.00599,0.33135 a 1.4862746,1.4350385 0.3479746 0 1 0.6185982,0.23184 l 0.2560809,-0.24535 0.3555814,0.34579 -0.2485691,0.23808 a 1.4862746,1.4350385 0.3479746 0 1 0.2606648,0.56833 l 0.3602838,0.003 -0.00396,0.48694 -0.3443003,-0.003 a 1.4862746,1.4350385 0.3479746 0 0 -1.325e-4,-10e-6 1.4862746,1.4350385 0.3479746 0 1 -0.2474028,0.60782 l 0.2563141,0.25628 -0.3628104,0.33829 -0.2467641,-0.24691 a 1.4862746,1.4350385 0.3479746 0 1 -0.6540106,0.25451 l -0.00608,0.34234 -0.5042887,-0.008 0.00608,-0.34587 a 1.4862746,1.4350385 0.3479746 0 1 -0.5968228,-0.25714 l -0.2375071,0.22745 -0.3551704,-0.34604 0.2440599,-0.23367 a 1.4862746,1.4350385 0.3479746 0 1 -0.2323595,-0.58265 z m 0.2704383,3.54476 a 1.4438526,1.3940788 0.34797484 0 0 -2.432e-4,0.0987 1.4438526,1.3940788 0.34797484 0 0 0.077947,0.40987 1.4438526,1.3940788 0.34797484 0 0 1.835112,0.8652 1.4438526,1.3940788 0.34797484 0 0 0.8952882,-1.77123 1.4438526,1.3940788 0.34797484 0 0 -1.8349765,-0.86558 1.4438526,1.3940788 0.34797484 0 0 -0.9729672,1.26296 z m 0.258225,-3.76646 a 1.279097,1.2350029 0.3479752 0 0 1.2691096,1.24502 1.279097,1.2350029 0.3479752 0 0 1.2889272,-1.22444 1.279097,1.2350029 0.3479752 0 0 -1.2687024,-1.24541 1.279097,1.2350029 0.3479752 0 0 -1.2893344,1.22483 z m 0.2542281,3.80303 a 0.94592077,0.91331215 0.34797473 0 1 0.6375516,-0.82723 0.94592077,0.91331215 0.34797473 0 1 1.202169,0.5669 0.94592077,0.91331215 0.34797473 0 1 -0.5866224,1.16048 0.94592077,0.91331215 0.34797473 0 1 -1.2024391,-0.56676 0.94592077,0.91331215 0.34797473 0 1 -0.050657,-0.33339 z m 0.1939748,-3.78072 a 0.83798335,0.80909564 0.34797466 0 1 0.8446677,-0.80228 0.83798335,0.80909564 0.34797466 0 1 0.8312923,0.81577 0.83798335,0.80909564 0.34797466 0 1 -0.8445397,0.80229 0.83798335,0.80909564 0.34797466 0 1 -0.8314203,-0.81578 z m 0.079928,3.79131 a 0.67186905,0.64870778 0.34797478 0 0 -3.972e-4,0.046 0.67186905,0.64870778 0.34797478 0 0 0.036117,0.19066 0.67186905,0.64870778 0.34797478 0 0 0.8540444,0.40264 0.67186905,0.64870778 0.34797478 0 0 0.4166518,-0.8243 0.67186905,0.64870778 0.34797478 0 0 -0.8537727,-0.40264 0.67186905,0.64870778 0.34797478 0 0 -0.4527939,0.58759 z m 0.1627554,-3.78935 a 0.59520314,0.5746848 0.34797464 0 0 0.5906655,0.57937 0.59520314,0.5746848 0.34797464 0 0 0.5998069,-0.56979 0.59520314,0.5746848 0.34797464 0 0 -0.5903981,-0.57939 0.59520314,0.5746848 0.34797464 0 0 -0.6000743,0.56981 z m 2.1768196,2.06101 0.2833965,-0.0892 a 1.2366152,1.1939854 0.34797459 0 1 0.0471,-0.52309 l -0.2497079,-0.11858 0.1850921,-0.36365 0.2567341,0.12202 a 1.2366152,1.1939854 0.34797459 0 1 0.4115474,-0.33451 l -0.090293,-0.25898 0.3976838,-0.12907 0.091611,0.26293 a 1.2366152,1.1939854 0.34797459 0 1 0.6199158,0.0691 l 0.1456108,-0.24114 0.3627016,0.20441 -0.1483583,0.24543 a 1.2366152,1.1939854 0.34797459 0 1 0.262172,0.30198 l 0.2873335,-0.0904 0.130318,0.38544 -0.2714445,0.0853 a 1.2366152,1.1939854 0.34797459 0 1 -0.020648,0.53259 l 0.2694195,0.12789 -0.1849659,0.36381 -0.2615888,-0.12417 a 1.2366152,1.1939854 0.34797459 0 1 -0.3919243,0.35206 l 0.095594,0.27433 -0.3978203,0.12907 -0.091215,-0.26213 a 1.2366152,1.1939854 0.34797459 0 0 -1.392e-4,-1.3e-4 1.2366152,1.1939854 0.34797459 0 1 -0.5622949,-0.023 l -0.1391576,0.2641 -0.3741181,-0.1837 0.1339317,-0.25445 a 1.2366152,1.1939854 0.34797459 0 1 -0.385672,-0.42727 l -0.2806756,0.0884 z m 0.443865,-0.22578 a 1.0642384,1.0275512 0.34797517 0 0 0.055254,0.30253 1.0642384,1.0275512 0.34797517 0 0 1.3478592,0.64671 1.0642384,1.0275512 0.34797517 0 0 0.6693513,-1.30125 1.0642384,1.0275512 0.34797517 0 0 -1.3481337,-0.64684 1.0642384,1.0275512 0.34797517 0 0 -0.724327,0.99885 z m 0.3539091,-0.0457 a 0.6972217,0.67318645 0.3479747 0 1 0.4740913,-0.60679 0.6972217,0.67318645 0.3479747 0 1 0.8831426,0.4238 0.6972217,0.67318645 0.3479747 0 1 -0.4384308,0.85253 0.6972217,0.67318645 0.3479747 0 1 -0.8830074,-0.42368 0.6972217,0.67318645 0.3479747 0 1 -0.035794,-0.24586 z m 0.2014166,0.043 a 0.49522298,0.47815121 0.34797472 0 0 0.025826,0.14072 0.49522298,0.47815121 0.34797472 0 0 0.6272268,0.30099 0.49522298,0.47815121 0.34797472 0 0 0.3113367,-0.60548 0.49522298,0.47815121 0.34797472 0 0 -0.6272268,-0.30112 0.49522298,0.47815121 0.34797472 0 0 -0.3371505,0.46489 z"
       id="rect3281"
       inkscape:connector-curvature="0" />
  </g>
</svg>
