<svg id="dia01-platform" xmlns="http://www.w3.org/2000/svg" viewBox="0 0 1964 1481"><title>lightbend-reactive-platform-v06</title><g id="dia01-development"><g id="dia01-lagom"><polygon points="954 601 14 601 0 591 0 327 944 327 954 341 954 601" fill="#ff931e"/><rect x="4" y="331" width="940" height="260" fill="#454e57"/><text transform="translate(297.5 429)" font-size="60" fill="#ff931e" font-family="SourceSansPro-Bold, Source Sans Pro" font-weight="700" style="isolation:isolate">Mic<tspan x="90.3" y="0" letter-spacing="-0.01em">r</tspan><tspan x="113.58" y="0" letter-spacing="0em">o</tspan><tspan x="146.58" y="0">se</tspan><tspan x="204.24" y="0" letter-spacing="0em">r</tspan><tspan x="228.42" y="0" letter-spacing="0em">vi</tspan><tspan x="276.36" y="0" letter-spacing="-0.03em">c</tspan><tspan x="302.7" y="0">es</tspan></text><g id="Lagom"><path d="M465.18,502.65h7.2v31.92c0,2.94,1,4.2,3.6,4.2a7.66,7.66,0,0,0,2.16-.24V545a12.94,12.94,0,0,1-3.42.36c-6.36,0-9.54-3.24-9.54-9.78Z" transform="translate(-17.5 -14)" fill="#fff"/><path d="M503.94,518.61v-4.38h7.2v21.12c0,2.58.6,3.54,2.22,3.54a15,15,0,0,0,1.5-.12v5.82a10.4,10.4,0,0,1-3.54.48,7.92,7.92,0,0,1-4.2-1,5.57,5.57,0,0,1-2.46-3.66c-2.1,3.18-5.58,4.74-10.38,4.74a14.37,14.37,0,0,1-10.8-4.56,15.78,15.78,0,0,1-4.32-11.28,15.53,15.53,0,0,1,4.32-11.22,14.37,14.37,0,0,1,10.8-4.56C499.14,513.57,502.8,515.73,503.94,518.61ZM501.78,536a9.42,9.42,0,0,0,0-13.2,9,9,0,0,0-6.54-2.64,8.69,8.69,0,0,0-6.42,2.64,9.9,9.9,0,0,0,0,13.2,8.69,8.69,0,0,0,6.42,2.64A9,9,0,0,0,501.78,536Z" transform="translate(-17.5 -14)" fill="#fff"/><path d="M539.29,514.23h7.2v25.2c0,7.26-1,11.7-5.1,14.88a17,17,0,0,1-10.68,3.36,24.57,24.57,0,0,1-14.64-4.38l3.48-5.34a18.33,18.33,0,0,0,10.38,3.3,11,11,0,0,0,6.66-1.8c1.92-1.38,2.88-4,2.88-7.68v-1.5c-1.44,2.58-5,4.44-9.84,4.44a14.72,14.72,0,0,1-10.8-4.44,16.26,16.26,0,0,1,.06-22.14,14.24,14.24,0,0,1,10.74-4.56c5,0,8.64,2.1,9.66,5v-4.34Zm-2.16,21.54a8.78,8.78,0,0,0,2.7-6.54,8.65,8.65,0,0,0-2.7-6.48,9,9,0,0,0-6.54-2.64,8.69,8.69,0,0,0-6.42,2.64,9,9,0,0,0-2.52,6.48,9.11,9.11,0,0,0,2.52,6.54,8.64,8.64,0,0,0,6.42,2.58,8.91,8.91,0,0,0,6.54-2.58Z" transform="translate(-17.5 -14)" fill="#fff"/><path d="M549,529.35a15.27,15.27,0,0,1,4.8-11.4,17.13,17.13,0,0,1,23.4,0,15.94,15.94,0,0,1,.26,22.54l-.26.26a17.13,17.13,0,0,1-23.4,0A15.27,15.27,0,0,1,549,529.35Zm23.16,6.78a9.32,9.32,0,0,0,2.7-6.78,9.09,9.09,0,0,0-2.7-6.72,9.49,9.49,0,0,0-13.38,0,9.28,9.28,0,0,0-2.64,6.72,9.52,9.52,0,0,0,2.64,6.78,9.64,9.64,0,0,0,13.39,0Z" transform="translate(-17.5 -14)" fill="#fff"/><path d="M584.66,544.47V514.23h7.14v4.32a8.48,8.48,0,0,1,8.1-4.92c4.14,0,7,1.74,8.52,5.28,1.74-3.54,5-5.28,9.72-5.28,6.54,0,10.32,4.62,10.32,12.12v9.54c0,2.34.42,3.18,2,3.18a5.29,5.29,0,0,0,1-.12v6.06a10.3,10.3,0,0,1-3.12.36c-4.74,0-7.08-2.64-7.08-7.92V526.77c0-4.14-1.92-6.72-5.28-6.72s-5.82,2.94-5.82,7v17.4H603v-17.7c0-4.14-2-6.72-5.4-6.72s-5.88,2.94-5.88,7v17.4H584.6Z" transform="translate(-17.5 -14)" fill="#fff"/></g><g id="Icon"><g opacity="0.8"><path d="M454.07,521.61,428.66,534l25.42,12.35S454,521.7,454.07,521.61Z" transform="translate(-17.5 -14)" fill="#fff"/></g><g opacity="0.8"><polygon points="385 532.3 410.42 519.95 385 507.61 385 532.3" fill="#fff"/></g><path d="M428.66,534l25.42,12.35c-.1,0-15.16,9.08-22,13.16a6.41,6.41,0,0,1-6.55,0c-6.85-4.08-22.27-13.16-22.27-13.16Z" transform="translate(-17.5 -14)" fill="#fff" opacity="0.6" style="isolation:isolate"/><path d="M432,508.4c6.85,4.08,22.07,13.2,22.07,13.2L428.66,534l-25.42-12.35c.1,0,15.37-9.12,22.22-13.2A6.41,6.41,0,0,1,432,508.4Z" transform="translate(-17.5 -14)" fill="#fff"/><g opacity="0.8"><path d="M412,498.58l-12.71,6.17L412,510.92S411.91,498.63,412,498.58Z" transform="translate(-17.5 -14)" fill="#fff"/></g><g opacity="0.8"><polygon points="369 496.92 381.71 490.75 369 484.58 369 496.92" fill="#fff"/></g><path d="M399.24,504.75,412,510.92l-11,6.58a3.2,3.2,0,0,1-3.28,0c-3.42-2-11.14-6.58-11.14-6.58Z" transform="translate(-17.5 -14)" fill="#fff" opacity="0.6" style="isolation:isolate"/><path d="M400.92,492l11,6.6-12.71,6.17L386.5,498.6l11.11-6.6A3.2,3.2,0,0,1,400.92,492Z" transform="translate(-17.5 -14)" fill="#fff"/><g opacity="0.8"><path d="M396,524.15l-18.16,8.91L396,542S395.92,524.22,396,524.15Z" transform="translate(-17.5 -14)" fill="#fff"/></g><g opacity="0.8"><polygon points="342 527.97 360.16 519.06 342 510.15 342 527.97" fill="#fff"/></g><path d="M377.82,533.06,396,542c-.07,0-10.83,6.55-15.72,9.49a4.54,4.54,0,0,1-4.68,0c-4.89-2.94-15.91-9.49-15.91-9.49Z" transform="translate(-17.5 -14)" fill="#fff" opacity="0.6" style="isolation:isolate"/><path d="M380.21,514.63c4.89,2.94,15.76,9.52,15.76,9.52l-18.16,8.91-18.16-8.91c.07,0,11-6.58,15.87-9.52A4.54,4.54,0,0,1,380.21,514.63Z" transform="translate(-17.5 -14)" fill="#fff"/></g></g><g id="dia01-play"><polygon points="1964 601 1024 601 1010 591 1010 327 1954 327 1964 341 1964 601" fill="#ff931e"/><rect x="1014" y="331" width="940" height="260" fill="#454e57"/><text transform="translate(1240.5 429)" font-size="60" fill="#ff931e" font-family="SourceSansPro-Bold, Source Sans Pro" font-weight="700" style="isolation:isolate">Web Ap<tspan x="195.48" y="0" letter-spacing="0em">p</tspan><tspan x="229.56" y="0">s/Se</tspan><tspan x="340.92" y="0" letter-spacing="0em">r</tspan><tspan x="365.1" y="0">vi</tspan><tspan x="413.03" y="0" letter-spacing="-0.03em">c</tspan><tspan x="439.37" y="0" letter-spacing="0em">es</tspan></text><path d="M1439.6,535.54l-18.42,22.1a8.27,8.27,0,0,0,.51,11.15l2.22,2.22a8.27,8.27,0,0,0,11.7,0l.36-.39,6.66-7.55a36.79,36.79,0,0,0-1.92-36.41A8.28,8.28,0,0,1,1439.6,535.54Z" transform="translate(-17.5 -14)" fill="#fff" opacity="0.5" style="isolation:isolate"/><path d="M1466.74,535.75a8.27,8.27,0,0,0,.08-10.86l-30.88-36a8.27,8.27,0,0,0-11.66-.89q-.24.2-.46.42l-2.23,2.22a8.27,8.27,0,0,0-.62,11L1439.7,525a8.26,8.26,0,0,1,1,1.72l0-.12a36.79,36.79,0,0,1,1.92,36.41Z" transform="translate(-17.5 -14)" fill="#fff"/><path d="M1482.69,556.54h-7.17V514.89h7.17v4.36c1-2.93,4.66-5,9.62-5a14.1,14.1,0,0,1,10.7,4.54,15.27,15.27,0,0,1,4.36,11.18A15.51,15.51,0,0,1,1503,541.2a14.26,14.26,0,0,1-10.7,4.48c-5,0-8.61-2.09-9.62-5v15.86Zm2.09-33.17a9.53,9.53,0,0,0,0,13.15,9.16,9.16,0,0,0,6.57,2.63,8.43,8.43,0,0,0,6.33-2.63,9.69,9.69,0,0,0,0-13.15,8.43,8.43,0,0,0-6.33-2.63,9.16,9.16,0,0,0-6.57,2.64Z" transform="translate(-17.5 -14)" fill="#fff"/><path d="M1509.82,503.36H1517v31.79c0,2.93,1,4.18,3.59,4.18a7.63,7.63,0,0,0,2.15-.24v6.39a12.88,12.88,0,0,1-3.41.36c-6.33,0-9.5-3.23-9.5-9.74V503.36Z" transform="translate(-17.5 -14)" fill="#fff"/><path d="M1547,519.25v-4.36h7.17v21c0,2.57.6,3.53,2.21,3.53a14.92,14.92,0,0,0,1.49-.12v5.8a10.37,10.37,0,0,1-3.53.48,7.89,7.89,0,0,1-4.18-1,5.54,5.54,0,0,1-2.45-3.65c-2.09,3.17-5.56,4.72-10.34,4.72a14.31,14.31,0,0,1-10.76-4.54,15.71,15.71,0,0,1-4.3-11.23,15.47,15.47,0,0,1,4.3-11.18,14.31,14.31,0,0,1,10.76-4.54C1542.21,514.23,1545.86,516.38,1547,519.25Zm-2.15,17.27a9.38,9.38,0,0,0,0-13.15,8.92,8.92,0,0,0-6.51-2.63,8.65,8.65,0,0,0-6.39,2.63,9.86,9.86,0,0,0,0,13.15,8.65,8.65,0,0,0,6.39,2.63,8.92,8.92,0,0,0,6.5-2.63Z" transform="translate(-17.5 -14)" fill="#fff"/><path d="M1560.35,551a10.72,10.72,0,0,0,3.35.48,4.75,4.75,0,0,0,2.63-.66,5.21,5.21,0,0,0,1.73-2.57l.78-2.15-12.61-31.25h7.23l8.84,22.71,8.31-22.71h7.23l-13.51,35a15.28,15.28,0,0,1-3.23,5.38,10.14,10.14,0,0,1-7.23,2.51,12.57,12.57,0,0,1-3.53-.48V551Z" transform="translate(-17.5 -14)" fill="#fff"/></g><g id="dia01-akka"><polygon points="1964 921 14 921 0 911 0 647 1954 647 1964 661 1964 921" fill="#ff931e"/><rect x="4" y="651" width="1950" height="260" fill="#454e57"/><text transform="translate(654.52 749)" font-size="60" fill="#ff931e" font-family="SourceSansPro-Bold, Source Sans Pro" font-weight="700" style="isolation:isolate">Messa<tspan x="162" y="0" letter-spacing="-0.02em">g</tspan><tspan x="192.96" y="0" letter-spacing="0em">e-dri</tspan><tspan x="318.78" y="0" letter-spacing="-0.01em">v</tspan><tspan x="349.68" y="0" letter-spacing="0em">en Runtime</tspan></text><path d="M992,838.61v-4.36h7.17v21c0,2.57.6,3.53,2.21,3.53a14.92,14.92,0,0,0,1.49-.12v5.8a10.37,10.37,0,0,1-3.53.48,7.89,7.89,0,0,1-4.18-1,5.54,5.54,0,0,1-2.45-3.65c-2.09,3.17-5.56,4.72-10.34,4.72a14.31,14.31,0,0,1-10.76-4.54,15.71,15.71,0,0,1-4.3-11.23,15.47,15.47,0,0,1,4.3-11.18,14.31,14.31,0,0,1,10.76-4.54C987.22,833.59,990.87,835.74,992,838.61Zm-2.15,17.27a9.38,9.38,0,0,0,0-13.15,8.92,8.92,0,0,0-6.51-2.63,8.65,8.65,0,0,0-6.39,2.63,9.86,9.86,0,0,0,0,13.15,8.65,8.65,0,0,0,6.39,2.63,8.92,8.92,0,0,0,6.49-2.63Z" transform="translate(-17.5 -14)" fill="#fff"/><path d="M1006,864.36V822.71h7.11V847l11.12-12.79h8.25l-11.77,13.45,13,16.67h-8.13l-9.5-12.13-3,3.35v8.78H1006Z" transform="translate(-17.5 -14)" fill="#fff"/><path d="M1035.63,864.36V822.71h7.11V847l11.12-12.79h8.25l-11.77,13.45,13,16.67h-8.13l-9.5-12.13-3,3.35v8.78h-7.11Z" transform="translate(-17.5 -14)" fill="#fff"/><path d="M1085,838.61v-4.36h7.17v21c0,2.57.6,3.53,2.21,3.53a14.92,14.92,0,0,0,1.49-.12v5.8a10.37,10.37,0,0,1-3.53.48,7.89,7.89,0,0,1-4.18-1,5.54,5.54,0,0,1-2.45-3.65c-2.09,3.17-5.56,4.72-10.34,4.72a14.31,14.31,0,0,1-10.76-4.54,15.71,15.71,0,0,1-4.3-11.23,15.47,15.47,0,0,1,4.3-11.18,14.32,14.32,0,0,1,10.76-4.54C1080.19,833.59,1083.83,835.74,1085,838.61Zm-2.15,17.27a9.38,9.38,0,0,0,0-13.15,8.92,8.92,0,0,0-6.51-2.63,8.65,8.65,0,0,0-6.39,2.63,9.86,9.86,0,0,0,0,13.15,8.65,8.65,0,0,0,6.39,2.63A8.92,8.92,0,0,0,1082.82,855.88Z" transform="translate(-17.5 -14)" fill="#fff"/><path d="M949,877.26c12.92,10.32,21.21-20.52.63-26.22-17.27-4.78-34.68,3.42-52.08,22.58C897.58,873.62,929.73,861.84,949,877.26Z" transform="translate(-17.5 -14)" fill="#fff" opacity="0.5" style="isolation:isolate"/><path d="M897.84,873.36c12.39-12.85,33-27.19,52.16-21.87a16.61,16.61,0,0,1,9.69,7L941.55,821.8c-2.59-4.12-9.21-3.29-13-.09l-48,40.16a9.86,9.86,0,0,0-1.07,13.9q.24.28.51.55h0a9.86,9.86,0,0,0,13.14.74l4.64-3.71h0Z" transform="translate(-17.5 -14)" fill="#fff"/></g></g><g id="dia01-bridges"><polyline points="1955.51 269 1955.51 275 1949.51 275" fill="none" stroke="#489dbd" stroke-miterlimit="10" stroke-width="4"/><line x1="1937.45" y1="275" x2="1027.03" y2="275" fill="none" stroke="#489dbd" stroke-miterlimit="10" stroke-width="4" stroke-dasharray="12.06 12.06"/><polyline points="1021 275 1015 275 1015 269" fill="none" stroke="#489dbd" stroke-miterlimit="10" stroke-width="4"/><line x1="1015" y1="256.57" x2="1015" y2="14.21" fill="none" stroke="#489dbd" stroke-miterlimit="10" stroke-width="4" stroke-dasharray="12.43 12.43"/><polyline points="1015 8 1015 2 1021 2" fill="none" stroke="#489dbd" stroke-miterlimit="10" stroke-width="4"/><line x1="1033.06" y1="2" x2="1943.48" y2="2" fill="none" stroke="#489dbd" stroke-miterlimit="10" stroke-width="4" stroke-dasharray="12.06 12.06"/><polyline points="1949.51 2 1955.51 2 1955.51 8" fill="none" stroke="#489dbd" stroke-miterlimit="10" stroke-width="4"/><line x1="1955.51" y1="20.43" x2="1955.51" y2="262.79" fill="none" stroke="#489dbd" stroke-miterlimit="10" stroke-width="4" stroke-dasharray="12.43 12.43"/><circle cx="1264.9" cy="162.1" r="83.9" fill="none" stroke="#489dbd" stroke-miterlimit="10" stroke-width="4"/><text transform="translate(1241.99 210.35)" font-size="27.97" fill="#489dbd" font-family="SourceSansPro-Regular, Source Sans Pro" style="isolation:isolate">SAP</text><path d="M1319.8,143.9l-5.49-2.69a11.69,11.69,0,0,0-.93-4.19l3.82-4.76a1,1,0,0,0,0-1.28l-2.66-2.9a1,1,0,0,0-1.28-.15l-5.07,3.41a11.57,11.57,0,0,0-4.09-1.28l-2.22-5.7a1,1,0,0,0-1.14-.61l-3.83.86a1,1,0,0,0-.77,1l.41,6.06a10.81,10.81,0,0,0-3.19,2.93l-6-.92a1,1,0,0,0-1.09.68l-1.18,3.75a1,1,0,0,0,.51,1.18l5.49,2.69a11.63,11.63,0,0,0,.93,4.19l-3.82,4.76a1,1,0,0,0,0,1.29l2.66,2.89a1,1,0,0,0,1.28.15l5.07-3.4a11.61,11.61,0,0,0,4.09,1.28l2.21,5.7a1,1,0,0,0,.93.63h.21l3.83-.86a1,1,0,0,0,.77-1l-.41-6a10.86,10.86,0,0,0,3.2-2.93l6,.92h.15a1,1,0,0,0,.94-.69l1.17-3.75A1,1,0,0,0,1319.8,143.9Zm-14,1.14a4.65,4.65,0,1,1,.28-6.57h0a4.64,4.64,0,0,1-.25,6.53Z" transform="translate(-17.5 -14)" fill="none" stroke="#489dbd" stroke-miterlimit="10" stroke-width="2"/><path d="M1289.69,159.42l-6.43-.84a16.22,16.22,0,0,0-1.84-4.45l3.95-5.13a.91.91,0,0,0-.08-1.21l-3.1-3.11a.92.92,0,0,0-1.21-.08l-5.13,3.95a16.19,16.19,0,0,0-4.45-1.84l-.84-6.43a.91.91,0,0,0-.9-.79h-4.4a.92.92,0,0,0-.91.79l-.84,6.42a16.18,16.18,0,0,0-4.44,1.84l-5.13-3.95a.91.91,0,0,0-1.2.08l-3.11,3.11a.91.91,0,0,0-.08,1.2l3.95,5.13a16.18,16.18,0,0,0-1.84,4.45l-6.42.84a.91.91,0,0,0-.8.9v4.39a.91.91,0,0,0,.8.9l6.42.84a16.24,16.24,0,0,0,1.84,4.45l-3.95,5.13a.93.93,0,0,0,.08,1.21l3.11,3.1a.91.91,0,0,0,.65.27.9.9,0,0,0,.56-.19l5.13-3.95a16,16,0,0,0,4.44,1.84l.84,6.43a.91.91,0,0,0,.91.8h4.39a.91.91,0,0,0,.9-.8l.84-6.42a16.22,16.22,0,0,0,4.45-1.84l5.13,3.95a.91.91,0,0,0,1.21-.08l3.1-3.1a.91.91,0,0,0,.08-1.21l-3.95-5.13a16.2,16.2,0,0,0,1.84-4.45l6.43-.84a.91.91,0,0,0,.8-.9v-4.39A.9.9,0,0,0,1289.69,159.42Zm-17.3,8a7,7,0,1,1,2-4.93,7,7,0,0,1-2,4.93Z" transform="translate(-17.5 -14)" fill="none" stroke="#489dbd" stroke-miterlimit="10" stroke-width="2"/><circle cx="1484.68" cy="162.1" r="83.9" fill="none" stroke="#489dbd" stroke-miterlimit="10" stroke-width="4"/><g style="isolation:isolate"><text transform="translate(1427.37 210.35)" font-size="26.63" fill="#489dbd" font-family="SourceSansPro-Regular, Source Sans Pro" style="isolation:isolate">Sales</text><text transform="translate(1486.26 210.35)" font-size="26.63" fill="#489dbd" font-family="SourceSansPro-Regular, Source Sans Pro" style="isolation:isolate">f</text><text transform="translate(1493.77 210.35)" font-size="26.63" fill="#489dbd" font-family="SourceSansPro-Regular, Source Sans Pro" style="isolation:isolate">o</text><text transform="translate(1508.2 210.35)" font-size="26.63" fill="#489dbd" font-family="SourceSansPro-Regular, Source Sans Pro" style="isolation:isolate">r</text><text transform="translate(1517.18 210.35)" font-size="26.63" fill="#489dbd" font-family="SourceSansPro-Regular, Source Sans Pro" style="isolation:isolate">c</text><text transform="translate(1528.76 210.35)" font-size="26.63" fill="#489dbd" font-family="SourceSansPro-Regular, Source Sans Pro" style="isolation:isolate">e</text></g><path d="M1539.58,143.9l-5.49-2.69a11.69,11.69,0,0,0-.93-4.19l3.82-4.76a1,1,0,0,0,0-1.28l-2.66-2.9a1,1,0,0,0-1.28-.15l-5.07,3.41a11.57,11.57,0,0,0-4.09-1.28l-2.22-5.7a1,1,0,0,0-1.14-.61l-3.83.86a1,1,0,0,0-.77,1l.41,6.06a10.81,10.81,0,0,0-3.19,2.93l-6-.92a1,1,0,0,0-1.09.68l-1.18,3.75a1,1,0,0,0,.51,1.18l5.49,2.69a11.63,11.63,0,0,0,.93,4.19l-3.82,4.76a1,1,0,0,0,0,1.29l2.66,2.89a1,1,0,0,0,1.28.15l5.07-3.4a11.61,11.61,0,0,0,4.09,1.28l2.21,5.7a1,1,0,0,0,.93.63h.21l3.83-.86a1,1,0,0,0,.77-1l-.41-6a10.86,10.86,0,0,0,3.2-2.93l6,.92h.18a1,1,0,0,0,.94-.69l1.17-3.75A1,1,0,0,0,1539.58,143.9Zm-14,1.14a4.65,4.65,0,1,1,.28-6.57h0a4.64,4.64,0,0,1-.25,6.53Z" transform="translate(-17.5 -14)" fill="none" stroke="#489dbd" stroke-miterlimit="10" stroke-width="2"/><path d="M1509.47,159.42l-6.43-.84a16.22,16.22,0,0,0-1.84-4.45l3.95-5.13a.91.91,0,0,0-.08-1.21l-3.1-3.11a.92.92,0,0,0-1.21-.08l-5.13,3.95a16.19,16.19,0,0,0-4.45-1.84l-.84-6.43a.91.91,0,0,0-.9-.79H1485a.92.92,0,0,0-.91.79l-.84,6.42a16.18,16.18,0,0,0-4.44,1.84l-5.13-3.95a.91.91,0,0,0-1.2.08l-3.11,3.11a.91.91,0,0,0-.08,1.2l3.95,5.13a16.18,16.18,0,0,0-1.84,4.45l-6.42.84a.91.91,0,0,0-.8.9v4.39a.91.91,0,0,0,.8.9l6.42.84a16.24,16.24,0,0,0,1.84,4.45l-3.95,5.13a.93.93,0,0,0,.08,1.21l3.11,3.1a.91.91,0,0,0,.65.27.9.9,0,0,0,.56-.19l5.13-3.95a16,16,0,0,0,4.44,1.84l.84,6.43a.91.91,0,0,0,.91.8h4.39a.91.91,0,0,0,.9-.8l.84-6.42a16.22,16.22,0,0,0,4.45-1.84l5.13,3.95a.91.91,0,0,0,1.21-.08l3.1-3.1a.91.91,0,0,0,.08-1.21l-3.95-5.13a16.2,16.2,0,0,0,1.84-4.45l6.43-.84a.91.91,0,0,0,.8-.9v-4.39A.9.9,0,0,0,1509.47,159.42Zm-17.3,8a7,7,0,1,1,2-4.93,7,7,0,0,1-2,4.93Z" transform="translate(-17.5 -14)" fill="none" stroke="#489dbd" stroke-miterlimit="10" stroke-width="2"/><circle cx="1705.69" cy="162.1" r="83.9" fill="none" stroke="#489dbd" stroke-miterlimit="10" stroke-width="4"/><g style="isolation:isolate"><text transform="translate(1661.08 210.35)" font-size="27.97" fill="#489dbd" font-family="SourceSansPro-Regular, Source Sans Pro" style="isolation:isolate">Ja</text><text transform="translate(1688.65 210.35)" font-size="27.97" fill="#489dbd" font-family="SourceSansPro-Regular, Source Sans Pro" style="isolation:isolate">v</text><text transform="translate(1701.16 210.35)" font-size="27.97" fill="#489dbd" font-family="SourceSansPro-Regular, Source Sans Pro" style="isolation:isolate">a EE</text></g><path d="M1760.6,143.9l-5.49-2.69a11.69,11.69,0,0,0-.93-4.19l3.82-4.76a1,1,0,0,0,0-1.28l-2.66-2.9a1,1,0,0,0-1.28-.15l-5.07,3.41a11.57,11.57,0,0,0-4.09-1.28l-2.22-5.7a1,1,0,0,0-1.14-.61l-3.83.86a1,1,0,0,0-.77,1l.41,6.06a10.81,10.81,0,0,0-3.19,2.93l-6-.92a1,1,0,0,0-1.09.68l-1.18,3.75a1,1,0,0,0,.51,1.18l5.49,2.69a11.63,11.63,0,0,0,.93,4.19L1729,151a1,1,0,0,0,0,1.29l2.66,2.89a1,1,0,0,0,1.28.15l5.07-3.4a11.61,11.61,0,0,0,4.09,1.28l2.21,5.7a1,1,0,0,0,.93.63h.21l3.83-.86a1,1,0,0,0,.77-1l-.41-6a10.86,10.86,0,0,0,3.2-2.93l6,.92h.16a1,1,0,0,0,.94-.69l1.17-3.75a1,1,0,0,0-.5-1.32Zm-14,1.14a4.65,4.65,0,1,1,.28-6.57h0a4.64,4.64,0,0,1-.26,6.53Z" transform="translate(-17.5 -14)" fill="none" stroke="#489dbd" stroke-miterlimit="10" stroke-width="2"/><path d="M1730.49,159.42l-6.43-.84a16.22,16.22,0,0,0-1.84-4.45l3.95-5.13a.91.91,0,0,0-.08-1.21l-3.1-3.11a.92.92,0,0,0-1.21-.08l-5.13,3.95a16.19,16.19,0,0,0-4.45-1.84l-.84-6.43a.91.91,0,0,0-.9-.79h-4.4a.92.92,0,0,0-.91.79l-.84,6.42a16.18,16.18,0,0,0-4.44,1.84l-5.13-3.95a.91.91,0,0,0-1.2.08l-3.11,3.11a.91.91,0,0,0-.08,1.2l3.95,5.13a16.18,16.18,0,0,0-1.84,4.45l-6.42.84a.91.91,0,0,0-.8.9v4.39a.91.91,0,0,0,.8.9l6.42.84a16.24,16.24,0,0,0,1.84,4.45l-3.95,5.13a.93.93,0,0,0,.08,1.21l3.11,3.1a.91.91,0,0,0,.65.27.9.9,0,0,0,.56-.19l5.13-3.95a16,16,0,0,0,4.44,1.84l.84,6.43a.91.91,0,0,0,.91.8h4.39a.91.91,0,0,0,.9-.8l.84-6.42a16.22,16.22,0,0,0,4.45-1.84l5.13,3.95a.91.91,0,0,0,1.21-.08l3.1-3.1a.91.91,0,0,0,.08-1.21l-3.95-5.13a16.2,16.2,0,0,0,1.84-4.45l6.43-.84a.91.91,0,0,0,.8-.9v-4.39A.9.9,0,0,0,1730.49,159.42Zm-17.3,8a7,7,0,1,1,2-4.93,7,7,0,0,1-2,4.93Z" transform="translate(-17.5 -14)" fill="none" stroke="#489dbd" stroke-miterlimit="10" stroke-width="2"/><g style="isolation:isolate"><text transform="translate(1418.75 54)" font-size="40" fill="#489dbd" font-family="SourceSansPro-Bold, Source Sans Pro" font-weight="700" style="isolation:isolate">Brid</text><text transform="translate(1492.79 54)" font-size="40" fill="#489dbd" font-family="SourceSansPro-Bold, Source Sans Pro" font-weight="700" style="isolation:isolate">g</text><text transform="translate(1513.43 54)" font-size="40" fill="#489dbd" font-family="SourceSansPro-Bold, Source Sans Pro" font-weight="700" style="isolation:isolate">es</text></g></g><g id="dia01-gateways"><polyline points="944 269 944 275 938 275" fill="none" stroke="#489dbd" stroke-miterlimit="10" stroke-width="4"/><line x1="925.94" y1="275" x2="15.03" y2="275" fill="none" stroke="#489dbd" stroke-miterlimit="10" stroke-width="4" stroke-dasharray="12.06 12.06"/><polyline points="9 275 3 275 3 269" fill="none" stroke="#489dbd" stroke-miterlimit="10" stroke-width="4"/><line x1="3" y1="256.57" x2="3" y2="14.21" fill="none" stroke="#489dbd" stroke-miterlimit="10" stroke-width="4" stroke-dasharray="12.43 12.43"/><polyline points="3 8 3 2 9 2" fill="none" stroke="#489dbd" stroke-miterlimit="10" stroke-width="4"/><line x1="21.06" y1="2" x2="931.97" y2="2" fill="none" stroke="#489dbd" stroke-miterlimit="10" stroke-width="4" stroke-dasharray="12.06 12.06"/><polyline points="938 2 944 2 944 8" fill="none" stroke="#489dbd" stroke-miterlimit="10" stroke-width="4"/><line x1="944" y1="20.43" x2="944" y2="262.79" fill="none" stroke="#489dbd" stroke-miterlimit="10" stroke-width="4" stroke-dasharray="12.43 12.43"/><circle cx="252.9" cy="162.1" r="83.9" fill="none" stroke="#489dbd" stroke-miterlimit="10" stroke-width="4"/><text transform="translate(224 210.35)" font-size="27.97" fill="#489dbd" font-family="SourceSansPro-Regular, Source Sans Pro" style="isolation:isolate">Apps</text><path d="M271.89,150.3l17.72,10.23L272,170.75l-17.7-10.23,17.59-10.22m0-2.31-21.58,12.54L272,173.06l21.58-12.54L271.89,148h0Z" transform="translate(-17.5 -14)" fill="#489dbd"/><path d="M291.59,164l-.06,20.32L274,194.53V174.21L291.59,164m2-3.48L272,173.06V198l21.58-12.54.07-25h0Z" transform="translate(-17.5 -14)" fill="#489dbd"/><path d="M252.3,164,270,174.21v20.35l-17.72-10.23,0-20.33m-2-3.46-.07,25L272,198l.07-25-21.71-12.54h0Z" transform="translate(-17.5 -14)" fill="#489dbd"/><path d="M287.15,126l7.93,4.58-7.86,4.57-7.93-4.58,7.86-4.57m0-2.31-11.85,6.89,11.93,6.88,11.85-6.89-11.93-6.88h0Z" transform="translate(-17.5 -14)" fill="#489dbd"/><path d="M297.06,134.1v9.07l-7.84,4.56v-9.07l7.84-4.56m2-3.48-11.85,6.89v13.7L299,144.32v-13.7h.06Z" transform="translate(-17.5 -14)" fill="#489dbd"/><path d="M277.29,134.08l7.93,4.58v9.09l-7.93-4.58v-9.09m-2-3.46v13.7l11.93,6.88V137.5l-11.93-6.88Z" transform="translate(-17.5 -14)" fill="#489dbd"/><path d="M253.23,117.31,266,124.69l-12.68,7.37-12.78-7.38,12.68-7.37m0-2.31-16.67,9.69,16.78,9.69L270,124.69,253.22,115Z" transform="translate(-17.5 -14)" fill="#489dbd"/><path d="M268,128.17v14.64l-12.66,7.36V135.53L268,128.17m2-3.48-16.67,9.69-.05,19.28L269.94,144l.06-19.31Z" transform="translate(-17.5 -14)" fill="#489dbd"/><path d="M238.54,128.14l12.78,7.38v14.67l-12.78-7.38V128.14m-2-3.46,0,19.32,16.78,9.69.05-19.28-16.78-9.69h0Z" transform="translate(-17.5 -14)" fill="#489dbd"/><circle cx="472.68" cy="162.1" r="83.9" fill="none" stroke="#489dbd" stroke-miterlimit="10" stroke-width="4"/><text transform="translate(448.28 210.35)" font-size="26.63" fill="#489dbd" font-family="SourceSansPro-Regular, Source Sans Pro" style="isolation:isolate">Web</text><polygon points="479.22 150 486.4 166.33 473.23 172.11 465.49 154.49 453.85 161.55 453.85 109.14 495 148.28 479.22 150 479.22 150" fill="none" stroke="#489dbd" stroke-width="2"/><circle cx="693.69" cy="162.1" r="83.9" fill="none" stroke="#489dbd" stroke-miterlimit="10" stroke-width="4"/><g style="isolation:isolate"><text transform="translate(675.88 210.35)" font-size="27.97" fill="#489dbd" font-family="SourceSansPro-Regular, Source Sans Pro" style="isolation:isolate">I</text><text transform="translate(683.09 210.35)" font-size="27.97" fill="#489dbd" font-family="SourceSansPro-Regular, Source Sans Pro" letter-spacing="-0.03em" style="isolation:isolate">o</text><text transform="translate(696.66 210.35)" font-size="27.97" fill="#489dbd" font-family="SourceSansPro-Regular, Source Sans Pro" style="isolation:isolate">T</text></g><circle cx="694.08" cy="137.78" r="6.33" fill="#489dbd"/><line x1="694.08" y1="113.45" x2="694.08" y2="162.12" fill="none" stroke="#489dbd" stroke-miterlimit="10" stroke-width="2"/><line x1="712.72" y1="122.14" x2="675.44" y2="153.43" fill="none" stroke="#489dbd" stroke-miterlimit="10" stroke-width="2"/><line x1="675.44" y1="122.14" x2="712.72" y2="153.43" fill="none" stroke="#489dbd" stroke-miterlimit="10" stroke-width="2"/><circle cx="733.48" cy="132.68" r="4.62" transform="translate(103.51 543.51) rotate(-45)" fill="none" stroke="#489dbd" stroke-miterlimit="10" stroke-width="4"/><circle cx="690.12" cy="132.68" r="4.62" transform="translate(90.81 512.85) rotate(-45)" fill="none" stroke="#489dbd" stroke-miterlimit="10" stroke-width="4"/><circle cx="711.58" cy="180.38" r="4.62" transform="translate(63.37 542) rotate(-45)" fill="none" stroke="#489dbd" stroke-miterlimit="10" stroke-width="4"/><circle cx="691.1" cy="170.16" r="4.62" transform="translate(64.6 524.52) rotate(-45)" fill="#489dbd"/><circle cx="733.97" cy="169.67" r="4.62" transform="translate(77.5 554.69) rotate(-45)" fill="#489dbd"/><circle cx="711.58" cy="122.96" r="4.62" transform="translate(103.97 525.18) rotate(-45)" fill="#489dbd"/><g style="isolation:isolate"><text transform="translate(386.93 54)" font-size="40" fill="#489dbd" font-family="SourceSansPro-Bold, Source Sans Pro" font-weight="700" style="isolation:isolate">Ga</text><text transform="translate(433.73 54)" font-size="40" fill="#489dbd" font-family="SourceSansPro-Bold, Source Sans Pro" font-weight="700" style="isolation:isolate">t</text><text transform="translate(448.65 54)" font-size="40" fill="#489dbd" font-family="SourceSansPro-Bold, Source Sans Pro" font-weight="700" style="isolation:isolate">e</text><text transform="translate(469.13 54)" font-size="40" fill="#489dbd" font-family="SourceSansPro-Bold, Source Sans Pro" font-weight="700" style="isolation:isolate">w</text><text transform="translate(499.77 54)" font-size="40" fill="#489dbd" font-family="SourceSansPro-Bold, Source Sans Pro" font-weight="700" style="isolation:isolate">ays</text></g></g><g id="dia01-four"><polygon points="1964 1481 1514 1481 1500 1471 1500 1297 1954 1297 1964 1311 1964 1481" fill="#1a84ad"/><rect x="1504" y="1301" width="450" height="170" fill="#454e57"/><text transform="translate(1602.5 1403)" font-size="40" fill="#489dbd" font-family="SourceSansPro-Bold, Source Sans Pro" font-weight="700" style="isolation:isolate">Mes<tspan x="68.92" y="0" letter-spacing="0em">o</tspan><tspan x="90.92" y="0">s (DC/OS)</tspan></text></g><g id="dia01-three"><polygon points="1464 1481 1014 1481 1000 1471 1000 1297 1454 1297 1464 1311 1464 1481" fill="#1a84ad"/><rect x="1004" y="1301" width="450" height="170" fill="#454e57"/><text transform="translate(1187.5 1403)" font-size="40" fill="#489dbd" font-family="SourceSansPro-Bold, Source Sans Pro" font-weight="700" letter-spacing="-0.03em" style="isolation:isolate">P<tspan x="22.88" y="0" letter-spacing="0em">aaS</tspan></text></g><g id="dia01-two"><polygon points="964 1481 514 1481 500 1471 500 1297 954 1297 964 1311 964 1481" fill="#1a84ad"/><rect x="504" y="1301" width="450" height="170" fill="#454e57"/><text transform="translate(542.5 1403)" font-size="40" fill="#489dbd" font-family="SourceSansPro-Bold, Source Sans Pro" font-weight="700" style="isolation:isolate">Public/Pri<tspan x="175.8" y="0" letter-spacing="-0.02em">v</tspan><tspan x="195.92" y="0" letter-spacing="0em">a</tspan><tspan x="217.28" y="0" letter-spacing="-0.01em">t</tspan><tspan x="232.2" y="0" letter-spacing="0em">e Cloud</tspan></text></g><g id="dia01-one"><polygon points="464 1481 14 1481 0 1471 0 1297 454 1297 464 1311 464 1481" fill="#1a84ad"/><rect x="4" y="1301" width="450" height="170" fill="#454e57"/><text transform="translate(18.5 1403)" font-size="40" fill="#489dbd" font-family="SourceSansPro-Bold, Source Sans Pro" font-weight="700" style="isolation:isolate">Physi<tspan x="96.68" y="0" letter-spacing="-0.01em">c</tspan><tspan x="114.96" y="0">al/Virtual Se</tspan><tspan x="332.64" y="0" letter-spacing="0em">r</tspan><tspan x="348.75" y="0" letter-spacing="-0.01em">v</tspan><tspan x="369.35" y="0" letter-spacing="0em">e</tspan><tspan x="390.07" y="0" letter-spacing="-0.01em">r</tspan><tspan x="405.59" y="0">s</tspan></text></g><polygon points="1964 1241 1434 1241 1420 1231 1420 967 1954 967 1964 981 1964 1241" fill="#9eb1b7"/><rect x="1424" y="971" width="530" height="260" fill="#454e57"/><text transform="translate(1587.5 1051)" font-size="40" fill="#c5d0d4" font-family="SourceSansPro-Bold, Source Sans Pro" font-weight="700" style="isolation:isolate"><tspan letter-spacing="-0.02em">P</tspan><tspan x="23.4" y="0">e</tspan><tspan x="44.12" y="0" letter-spacing="-0.01em">r</tspan><tspan x="59.64" y="0">sis</tspan><tspan x="106.12" y="0" letter-spacing="-0.01em">t</tspan><tspan x="121.04" y="0">en</tspan><tspan x="164.64" y="0" letter-spacing="-0.03em">c</tspan><tspan x="182.2" y="0">e</tspan></text><g style="isolation:isolate"><text transform="translate(1627.5 1136)" font-size="30" fill="#c5d0d4" font-family="SourceSansPro-Regular, Source Sans Pro" style="isolation:isolate">Cassand<tspan x="106.05" y="0" letter-spacing="-0.03em">r</tspan><tspan x="115.71" y="0">a</tspan></text><text transform="translate(1572.64 1176)" font-size="30" fill="#c5d0d4" font-family="SourceSansPro-Regular, Source Sans Pro" style="isolation:isolate">DynamoDB, HD<tspan x="192.99" y="0" letter-spacing="-0.02em">F</tspan><tspan x="207.21" y="0">S</tspan></text></g><g id="dia01-production-suite"><polygon points="1374 1241 14 1241 0 1231 0 967 1364 967 1374 981 1374 1241" fill="#f48122"/><rect x="4" y="971" width="1360" height="260" fill="#454e57"/><g id="enterprise-suite"><path d="M496.7,1064.81v16.47a2.94,2.94,0,0,0,2.94,2.94H582a2.94,2.94,0,0,0,2.94-2.94v-16.47a168.4,168.4,0,0,1-88.25,0Z" transform="translate(-17.5 -14)" fill="#fff"/><path d="M582,1007.75H499.64a3,3,0,0,0-2.94,2.94v48.54a160.67,160.67,0,0,0,88.25,0v-48.54A2.94,2.94,0,0,0,582,1007.75Z" transform="translate(-17.5 -14)" fill="#fff"/><path d="M600.83,1018.67a1.18,1.18,0,1,1,2.37,0v17.75h7.55a1.1,1.1,0,0,1,1.08,1.11,1.08,1.08,0,0,1-1.08,1.08H602a1.2,1.2,0,0,1-1.17-1.2Z" transform="translate(-17.5 -14)" fill="#fff"/><path d="M616.29,1018.25a1.37,1.37,0,0,1,2.73,0v.39a1.37,1.37,0,0,1-2.73,0Zm.21,5.88a1.17,1.17,0,0,1,1.14-1.17,1.15,1.15,0,0,1,1.17,1.17v13.47a1.13,1.13,0,0,1-1.14,1.17,1.15,1.15,0,0,1-1.17-1.17Z" transform="translate(-17.5 -14)" fill="#fff"/><path d="M625,1041.64a1.07,1.07,0,0,1-.6-1,1.1,1.1,0,0,1,1-1,.93.93,0,0,1,.51.15,9.79,9.79,0,0,0,5.49,1.68c3.42,0,5.64-1.89,5.64-5.52v-1.83a7.35,7.35,0,0,1-6.09,3.27,7.17,7.17,0,0,1-7.29-7.26v-.06a7.34,7.34,0,0,1,13.35-4.2v-1.77a1.15,1.15,0,0,1,1.14-1.17,1.17,1.17,0,0,1,1.17,1.17v11.79a7.47,7.47,0,0,1-2,5.49,8.15,8.15,0,0,1-5.91,2.07A12.14,12.14,0,0,1,625,1041.64Zm12.15-11.52v-.06a5.43,5.43,0,0,0-5.7-5.25,5.13,5.13,0,0,0-5.37,5.22v.06a5.25,5.25,0,0,0,5.37,5.28A5.47,5.47,0,0,0,637.19,1030.13Z" transform="translate(-17.5 -14)" fill="#fff"/><path d="M644.72,1017.74a1.15,1.15,0,1,1,2.31,0v8.07a5.87,5.87,0,0,1,5.31-3c3.75,0,5.94,2.52,5.94,6.21v8.61a1.15,1.15,0,1,1-2.31,0v-8c0-2.88-1.56-4.68-4.29-4.68a4.56,4.56,0,0,0-4.65,4.86v7.86a1.13,1.13,0,0,1-1.14,1.17,1.15,1.15,0,0,1-1.17-1.17Z" transform="translate(-17.5 -14)" fill="#fff"/><path d="M663.73,1034.51v-9.36h-1.26a1.05,1.05,0,0,1-1-1,1,1,0,0,1,1-1h1.26v-3.66a1.15,1.15,0,0,1,1.14-1.17,1.19,1.19,0,0,1,1.17,1.17v3.66h4a1.06,1.06,0,0,1,1,1,1,1,0,0,1-1,1h-4v9.06a2.29,2.29,0,0,0,2.61,2.58,6.54,6.54,0,0,0,1.41-.21,1,1,0,0,1,1,1,1,1,0,0,1-.66.9,5.83,5.83,0,0,1-2.28.42C665.62,1038.89,663.73,1037.66,663.73,1034.51Z" transform="translate(-17.5 -14)" fill="#fff"/><path d="M676.06,1017.74a1.15,1.15,0,1,1,2.31,0v8.49a7,7,0,0,1,5.94-3.45c3.72,0,7.41,2.94,7.41,8v.06c0,5.07-3.66,8.07-7.41,8.07a7,7,0,0,1-5.94-3.3v1.95a1.15,1.15,0,0,1-1.14,1.17,1.17,1.17,0,0,1-1.17-1.17Zm13.29,13.17v-.06c0-3.66-2.52-6-5.46-6a5.78,5.78,0,0,0-5.61,6v.06a5.77,5.77,0,0,0,5.61,6C686.89,1036.88,689.35,1034.66,689.35,1030.91Z" transform="translate(-17.5 -14)" fill="#fff"/><path d="M702.45,1039a7.71,7.71,0,0,1-7.74-8.07v-.06c0-4.47,3.15-8.07,7.44-8.07,4.59,0,7.2,3.75,7.2,7.86a1.07,1.07,0,0,1-1.08,1.08H697.05a5.41,5.41,0,0,0,5.46,5.25,6.34,6.34,0,0,0,4.47-1.8,1,1,0,0,1,1.68.72,1,1,0,0,1-.36.75A7.88,7.88,0,0,1,702.45,1039Zm4.59-9c-.24-2.82-1.86-5.28-4.95-5.28-2.7,0-4.74,2.25-5,5.28Z" transform="translate(-17.5 -14)" fill="#fff"/><path d="M713.19,1024.13a1.17,1.17,0,0,1,1.14-1.17,1.15,1.15,0,0,1,1.17,1.17v1.68a5.87,5.87,0,0,1,5.31-3c3.75,0,5.94,2.52,5.94,6.21v8.61a1.15,1.15,0,1,1-2.31,0v-8c0-2.88-1.56-4.68-4.29-4.68a4.56,4.56,0,0,0-4.65,4.86v7.86a1.13,1.13,0,0,1-1.14,1.17,1.15,1.15,0,0,1-1.17-1.17Z" transform="translate(-17.5 -14)" fill="#fff"/><path d="M746.06,1037.6a1.15,1.15,0,1,1-2.31,0v-2.1a7,7,0,0,1-5.94,3.45c-3.72,0-7.41-2.94-7.41-8v-.06c0-5.07,3.69-8.07,7.41-8.07a7,7,0,0,1,5.94,3.3v-8.34a1.13,1.13,0,0,1,1.14-1.17,1.15,1.15,0,0,1,1.17,1.17Zm-13.29-6.78v.06c0,3.66,2.55,6,5.46,6a5.79,5.79,0,0,0,5.61-6v-.06a5.76,5.76,0,0,0-5.61-6C735.23,1024.85,732.77,1027.07,732.77,1030.82Z" transform="translate(-17.5 -14)" fill="#fff"/><path d="M600.47,1046.87h21.74v5.64H606.77v5.85h13.59V1064H606.77v6.05h15.65v5.64H600.47Z" transform="translate(-17.5 -14)" fill="#fff"/><path d="M625,1053.62h6.26v3.13c1.44-1.85,3.29-3.54,6.47-3.54,4.74,0,7.5,3.13,7.5,8.19v14.29H639v-12.31c0-3-1.4-4.49-3.79-4.49s-3.91,1.52-3.91,4.49v12.31H625Z" transform="translate(-17.5 -14)" fill="#fff"/><path d="M649,1069.44V1059h-2.64v-5.35H649V1048h6.26v5.64h5.19V1059h-5.19v9.43c0,1.44.62,2.14,2,2.14a6.36,6.36,0,0,0,3.09-.78v5a9.23,9.23,0,0,1-4.94,1.28C651.61,1076.07,649,1074.54,649,1069.44Z" transform="translate(-17.5 -14)" fill="#fff"/><path d="M661.13,1064.78v-.08c0-6.3,4.49-11.49,10.91-11.49,7.37,0,10.75,5.72,10.75,12,0,.49,0,1.07-.08,1.65H667.34a5.12,5.12,0,0,0,5.39,4.32,7.23,7.23,0,0,0,5.35-2.26l3.58,3.17a11,11,0,0,1-9,4.12C666,1076.19,661.13,1071.54,661.13,1064.78Zm15.57-1.85c-.37-2.8-2-4.69-4.65-4.69s-4.28,1.85-4.78,4.69Z" transform="translate(-17.5 -14)" fill="#fff"/><path d="M684.81,1053.62h6.26v4.45c1.28-3,3.34-5,7-4.86v6.55h-.33c-4.16,0-6.71,2.51-6.71,7.78v8.15h-6.26Z" transform="translate(-17.5 -14)" fill="#fff"/><path d="M700,1053.62h6.26v3.17a8.11,8.11,0,0,1,6.88-3.58c5.15,0,10,4,10,11.41v.08c0,7.37-4.82,11.41-10,11.41a8.48,8.48,0,0,1-6.88-3.29v9.47H700Zm16.93,11.08v-.08c0-3.67-2.47-6.09-5.39-6.09s-5.35,2.43-5.35,6.09v.08c0,3.67,2.43,6.09,5.35,6.09S716.89,1068.41,716.89,1064.7Z" transform="translate(-17.5 -14)" fill="#fff"/><path d="M725.29,1053.62h6.26v4.45c1.28-3,3.34-5,7-4.86v6.55h-.33c-4.16,0-6.71,2.51-6.71,7.78v8.15h-6.26Z" transform="translate(-17.5 -14)" fill="#fff"/><path d="M741,1045.64h6.59v5.56H741Zm.16,8h6.26v22.07h-6.26Z" transform="translate(-17.5 -14)" fill="#fff"/><path d="M749.71,1072.77l2.68-4.12a12.48,12.48,0,0,0,7,2.64c1.81,0,2.64-.66,2.64-1.65v-.08c0-1.36-2.14-1.81-4.57-2.55-3.09-.91-6.59-2.35-6.59-6.63v-.08c0-4.49,3.62-7,8.07-7a15.28,15.28,0,0,1,8.24,2.55l-2.39,4.32a13.08,13.08,0,0,0-6-2.06c-1.52,0-2.31.66-2.31,1.52v.08c0,1.24,2.1,1.81,4.49,2.64,3.09,1,6.67,2.51,6.67,6.55v.08c0,4.9-3.67,7.12-8.44,7.12A15.46,15.46,0,0,1,749.71,1072.77Z" transform="translate(-17.5 -14)" fill="#fff"/><path d="M768.24,1064.78v-.08c0-6.3,4.49-11.49,10.91-11.49,7.37,0,10.75,5.72,10.75,12,0,.49,0,1.07-.08,1.65H774.46a5.12,5.12,0,0,0,5.39,4.32,7.23,7.23,0,0,0,5.35-2.26l3.58,3.17a11,11,0,0,1-9,4.12C773.14,1076.19,768.24,1071.54,768.24,1064.78Zm15.57-1.85c-.37-2.8-2-4.69-4.65-4.69s-4.28,1.85-4.78,4.69Z" transform="translate(-17.5 -14)" fill="#fff"/><path d="M797.35,1071.5l3.75-4.49a13.22,13.22,0,0,0,8.61,3.5c2.59,0,4.16-1,4.16-2.72v-.08c0-1.61-1-2.43-5.81-3.67-5.81-1.48-9.55-3.09-9.55-8.81v-.08c0-5.23,4.2-8.69,10.09-8.69a16.69,16.69,0,0,1,10.71,3.67L816,1054.9a13.53,13.53,0,0,0-7.5-2.84c-2.43,0-3.71,1.11-3.71,2.51v.08c0,1.89,1.24,2.51,6.22,3.79,5.85,1.52,9.14,3.62,9.14,8.65v.08c0,5.72-4.37,8.94-10.58,8.94A18.34,18.34,0,0,1,797.35,1071.5Z" transform="translate(-17.5 -14)" fill="#fff"/><path d="M822.31,1067.91v-14.29h6.26v12.31c0,3,1.4,4.49,3.79,4.49s3.91-1.52,3.91-4.49v-12.31h6.26v22.07h-6.26v-3.13c-1.44,1.85-3.29,3.54-6.47,3.54C825.07,1076.11,822.31,1073,822.31,1067.91Z" transform="translate(-17.5 -14)" fill="#fff"/><path d="M846.48,1045.64h6.59v5.56h-6.59Zm.16,8h6.26v22.07h-6.26Z" transform="translate(-17.5 -14)" fill="#fff"/><path d="M858.78,1069.44V1059h-2.64v-5.35h2.64V1048H865v5.64h5.19V1059H865v9.43c0,1.44.62,2.14,2,2.14a6.36,6.36,0,0,0,3.09-.78v5a9.23,9.23,0,0,1-4.94,1.28C861.37,1076.07,858.78,1074.54,858.78,1069.44Z" transform="translate(-17.5 -14)" fill="#fff"/><path d="M871.71,1064.78v-.08c0-6.3,4.49-11.49,10.91-11.49,7.37,0,10.75,5.72,10.75,12,0,.49,0,1.07-.08,1.65H877.93a5.12,5.12,0,0,0,5.39,4.32,7.23,7.23,0,0,0,5.35-2.26l3.58,3.17a11,11,0,0,1-9,4.12C876.61,1076.19,871.71,1071.54,871.71,1064.78Zm15.57-1.85c-.37-2.8-2-4.69-4.65-4.69s-4.28,1.85-4.78,4.69Z" transform="translate(-17.5 -14)" fill="#fff"/></g><rect x="36" y="1091" width="302" height="110" fill="#454e57" stroke="#f48122" stroke-miterlimit="10" stroke-width="4"/><text transform="translate(99.85 1136)" font-size="36" fill="#fff" font-family="SourceSansPro-Regular, Source Sans Pro">Appli<tspan x="77.58" y="0" letter-spacing="-0.01em">c</tspan><tspan x="93.63" y="0">ation</tspan><tspan x="-12.74" y="43.2">Mana</tspan><tspan x="69.98" y="43.2" letter-spacing="-0.01em">g</tspan><tspan x="87.62" y="43.2">ement</tspan></text><rect x="368.33" y="1091" width="302" height="110" fill="#454e57" stroke="#f48122" stroke-miterlimit="10" stroke-width="4"/><text transform="translate(443.3 1136)" font-size="36" fill="#fff" font-family="SourceSansPro-Regular, Source Sans Pro">In<tspan x="29.16" y="0" letter-spacing="-0.01em">t</tspan><tspan x="40.97" y="0" letter-spacing="0em">elli</tspan><tspan x="86.04" y="0" letter-spacing="-0.01em">g</tspan><tspan x="103.68" y="0" letter-spacing="0em">ent</tspan><tspan x="-5.67" y="43.2">Moni</tspan><tspan x="68.56" y="43.2" letter-spacing="-0.01em">t</tspan><tspan x="80.37" y="43.2">oring</tspan></text><rect x="700.67" y="1091" width="302" height="110" fill="#454e57" stroke="#f48122" stroke-miterlimit="10" stroke-width="4"/><text transform="translate(773.46 1136)" font-size="36" fill="#fff" font-family="SourceSansPro-Regular, Source Sans Pro">En<tspan x="38.66" y="0" letter-spacing="-0.01em">t</tspan><tspan x="50.47" y="0">erprise</tspan><tspan x="-13.43" y="43.2">In</tspan><tspan x="15.73" y="43.2" letter-spacing="-0.01em">te</tspan><tspan x="45.04" y="43.2" letter-spacing="0em">g</tspan><tspan x="63.18" y="43.2" letter-spacing="-0.02em">r</tspan><tspan x="74.77" y="43.2">ations</tspan></text><rect x="1033" y="1091" width="302" height="110" fill="#454e57" stroke="#f48122" stroke-miterlimit="10" stroke-width="4"/><text transform="translate(1109.36 1136)" font-size="36" fill="#fff" font-family="SourceSansPro-Regular, Source Sans Pro">Ad<tspan x="39.56" y="0" letter-spacing="-0.02em">v</tspan><tspan x="55.66" y="0">an</tspan><tspan x="93.78" y="0" letter-spacing="-0.02em">c</tspan><tspan x="109.44" y="0">ed</tspan><tspan x="17.73" y="43.2" letter-spacing="-0.07em">T</tspan><tspan x="34.65" y="43.2">ooling</tspan></text></g></svg>