<?xml version="1.0" encoding="UTF-8" standalone="no"?>
<!DOCTYPE svg PUBLIC "-//W3C//DTD SVG 1.1//EN" "http://www.w3.org/Graphics/SVG/1.1/DTD/svg11.dtd">
<svg version="1.1" xmlns="http://www.w3.org/2000/svg" xmlns:xlink="http://www.w3.org/1999/xlink" preserveAspectRatio="xMidYMid meet" viewBox="0 0 640 640" width="640" height="640"><defs><path d="M301.69 200.61C305.61 199.56 309.65 201.9 310.68 205.84C311.06 207.3 310.34 204.55 310.73 206.02C311.76 209.97 309.41 214.02 305.46 215.08C295.8 217.67 273.94 223.54 264.27 226.14C260.35 227.19 256.31 224.85 255.28 220.91C254.9 219.45 255.62 222.2 255.23 220.73C254.2 216.78 256.55 212.74 260.5 211.68C270.16 209.08 292.02 203.21 301.69 200.61Z" id="a1zDXmdmge"></path><path d="M308.35 226.14C312.28 225.09 316.31 227.43 317.34 231.37C317.72 232.83 317.01 230.08 317.39 231.55C318.42 235.5 316.07 239.54 312.12 240.6C302.46 243.2 280.6 249.07 270.94 251.67C267.01 252.72 262.97 250.38 261.94 246.44C261.56 244.98 262.28 247.73 261.9 246.26C260.87 242.31 263.22 238.26 267.16 237.2C276.83 234.61 298.69 228.74 308.35 226.14Z" id="c1Z9uPgPd"></path><path d="M315.01 251.67C318.94 250.61 322.98 252.96 324.01 256.9C324.39 258.36 323.67 255.61 324.05 257.08C325.08 261.03 322.73 265.07 318.79 266.13C309.13 268.73 287.26 274.6 277.6 277.2C273.67 278.25 269.64 275.9 268.61 271.97C268.23 270.5 268.94 273.25 268.56 271.79C267.53 267.84 269.88 263.79 273.83 262.73C283.49 260.14 305.35 254.26 315.01 251.67Z" id="b7S73aKI"></path></defs><g><g><g><g><filter id="shadow16670478" x="231.99" y="177.36" width="103.98" height="75.03" filterUnits="userSpaceOnUse" primitiveUnits="userSpaceOnUse"><feFlood></feFlood><feComposite in2="SourceAlpha" operator="in"></feComposite><feGaussianBlur stdDeviation="2.65"></feGaussianBlur><feOffset dx="2" dy="3" result="afterOffset"></feOffset><feFlood flood-color="#000000" flood-opacity="0.5"></feFlood><feComposite in2="afterOffset" operator="in"></feComposite><feMorphology operator="dilate" radius="1"></feMorphology><feComposite in2="SourceAlpha" operator="out"></feComposite></filter><path d="M301.69 200.61C305.61 199.56 309.65 201.9 310.68 205.84C311.06 207.3 310.34 204.55 310.73 206.02C311.76 209.97 309.41 214.02 305.46 215.08C295.8 217.67 273.94 223.54 264.27 226.14C260.35 227.19 256.31 224.85 255.28 220.91C254.9 219.45 255.62 222.2 255.23 220.73C254.2 216.78 256.55 212.74 260.5 211.68C270.16 209.08 292.02 203.21 301.69 200.61Z" id="g22lLv3kdh" fill="white" fill-opacity="1" filter="url(#shadow16670478)"></path></g><use xlink:href="#a1zDXmdmge" opacity="1" fill="#df6353" fill-opacity="1"></use></g><g><g><filter id="shadow16644055" x="238.66" y="202.89" width="103.98" height="75.03" filterUnits="userSpaceOnUse" primitiveUnits="userSpaceOnUse"><feFlood></feFlood><feComposite in2="SourceAlpha" operator="in"></feComposite><feGaussianBlur stdDeviation="2.65"></feGaussianBlur><feOffset dx="2" dy="3" result="afterOffset"></feOffset><feFlood flood-color="#000000" flood-opacity="0.5"></feFlood><feComposite in2="afterOffset" operator="in"></feComposite><feMorphology operator="dilate" radius="1"></feMorphology><feComposite in2="SourceAlpha" operator="out"></feComposite></filter><path d="M308.35 226.14C312.28 225.09 316.31 227.43 317.34 231.37C317.72 232.83 317.01 230.08 317.39 231.55C318.42 235.5 316.07 239.54 312.12 240.6C302.46 243.2 280.6 249.07 270.94 251.67C267.01 252.72 262.97 250.38 261.94 246.44C261.56 244.98 262.28 247.73 261.9 246.26C260.87 242.31 263.22 238.26 267.16 237.2C276.83 234.61 298.69 228.74 308.35 226.14Z" id="c163EEJgCV" fill="white" fill-opacity="1" filter="url(#shadow16644055)"></path></g><use xlink:href="#c1Z9uPgPd" opacity="1" fill="#df6353" fill-opacity="1"></use></g><g><g><filter id="shadow6038460" x="245.32" y="228.42" width="103.98" height="75.03" filterUnits="userSpaceOnUse" primitiveUnits="userSpaceOnUse"><feFlood></feFlood><feComposite in2="SourceAlpha" operator="in"></feComposite><feGaussianBlur stdDeviation="2.65"></feGaussianBlur><feOffset dx="2" dy="3" result="afterOffset"></feOffset><feFlood flood-color="#000000" flood-opacity="0.5"></feFlood><feComposite in2="afterOffset" operator="in"></feComposite><feMorphology operator="dilate" radius="1"></feMorphology><feComposite in2="SourceAlpha" operator="out"></feComposite></filter><path d="M315.01 251.67C318.94 250.61 322.98 252.96 324.01 256.9C324.39 258.36 323.67 255.61 324.05 257.08C325.08 261.03 322.73 265.07 318.79 266.13C309.13 268.73 287.26 274.6 277.6 277.2C273.67 278.25 269.64 275.9 268.61 271.97C268.23 270.5 268.94 273.25 268.56 271.79C267.53 267.84 269.88 263.79 273.83 262.73C283.49 260.14 305.35 254.26 315.01 251.67Z" id="b4phR3qxDd" fill="white" fill-opacity="1" filter="url(#shadow6038460)"></path></g><use xlink:href="#b7S73aKI" opacity="1" fill="#df6353" fill-opacity="1"></use></g></g></g></svg>