<?xml version="1.0" encoding="UTF-8" standalone="no"?>
<!DOCTYPE svg PUBLIC "-//W3C//DTD SVG 1.1//EN" "http://www.w3.org/Graphics/SVG/1.1/DTD/svg11.dtd">
<svg version="1.1" xmlns="http://www.w3.org/2000/svg" xmlns:xlink="http://www.w3.org/1999/xlink" preserveAspectRatio="xMidYMid meet" viewBox="0 0 640 640" width="640" height="640"><defs><path d="M260.12 52.55L233.03 119.67L244.79 119.6L269.03 64.37L294.68 119.24L319.26 111.15L312.18 104.34L301.01 107.87L259.88 19.65L237.55 19.78L237.64 32.26L254.06 32.16L260.12 52.55Z" id="b1DEFOFhqN"></path><path d="M332.88 65.28L331.95 67.04L331.08 68.79L330.27 70.55L329.52 72.31L328.96 74.06L328.4 75.76L327.97 77.52L327.66 79.21L327.41 80.91L327.28 82.61L327.22 84.3L327.22 86L327.34 87.64L327.59 89.33L327.9 90.97L328.28 92.61L328.78 94.24L329.4 95.88L330.02 97.51L330.83 99.09L331.7 100.66L332.63 102.3L333.69 103.88L334.81 105.45L336.05 107.03L337.36 108.6L337.61 108.85L337.55 116.48L335.74 114.9L334.06 113.33L332.45 111.75L330.89 110.18L329.52 108.54L328.15 106.97L326.91 105.33L325.79 103.69L324.73 102.06L323.74 100.42L322.87 98.79L322.12 97.15L321.43 95.51L320.87 93.82L320.38 92.12L319.94 90.42L319.63 88.73L319.44 87.03L319.26 85.33L319.26 83.58L319.32 81.88L319.44 80.12L319.69 78.37L320.07 76.61L320.5 74.85L321 73.09L321.62 71.34L322.37 69.52L323.11 67.7L324.05 65.94L325.04 64.13L326.1 62.31L327.28 60.43L328.53 58.61L329.9 56.73L331.39 54.92L332.88 53.04L334.56 51.16L336.24 49.28L338.11 47.4L338.04 57.76L337.73 58.07L336.36 59.89L335.12 61.7L334 63.46L332.88 65.28Z" id="d5Lkk2FIi"></path><path d="M332.88 65.28L331.95 67.04L331.08 68.79L330.27 70.55L329.52 72.31L328.96 74.06L328.4 75.76L327.97 77.52L327.66 79.21L327.41 80.91L327.28 82.61L327.22 84.3L327.22 86L327.34 87.64L327.59 89.33L327.9 90.97L328.28 92.61L328.78 94.24L329.4 95.88L330.02 97.51L330.83 99.09L331.7 100.66L332.63 102.3L333.69 103.88L334.81 105.45L336.05 107.03L337.36 108.6L337.61 108.85L337.55 116.48L335.74 114.9L334.06 113.33L332.45 111.75L330.89 110.18L329.52 108.54L328.15 106.97L326.91 105.33L325.79 103.69L324.73 102.06L323.74 100.42L322.87 98.79L322.12 97.15L321.43 95.51L320.87 93.82L320.38 92.12L319.94 90.42L319.63 88.73L319.44 87.03L319.26 85.33L319.26 83.58L319.32 81.88L319.44 80.12L319.69 78.37L320.07 76.61L320.5 74.85L321 73.09L321.62 71.34L322.37 69.52L323.11 67.7L324.05 65.94L325.04 64.13L326.1 62.31L327.28 60.43L328.53 58.61L329.9 56.73L331.39 54.92L332.88 53.04L334.56 51.16L336.24 49.28L338.11 47.4L338.04 57.76L337.73 58.07L336.36 59.89L335.12 61.7L334 63.46L332.88 65.28Z" id="d1CFzkcowS"></path><path d="M332.88 65.28L331.95 67.04L331.08 68.79L330.27 70.55L329.52 72.31L328.96 74.06L328.4 75.76L327.97 77.52L327.66 79.21L327.41 80.91L327.28 82.61L327.22 84.3L327.22 86L327.34 87.64L327.59 89.33L327.9 90.97L328.28 92.61L328.78 94.24L329.4 95.88L330.02 97.51L330.83 99.09L331.7 100.66L332.63 102.3L333.69 103.88L334.81 105.45L336.05 107.03L337.36 108.6L337.61 108.85L337.55 116.48L335.74 114.9L334.06 113.33L332.45 111.75L330.89 110.18L329.52 108.54L328.15 106.97L326.91 105.33L325.79 103.69L324.73 102.06L323.74 100.42L322.87 98.79L322.12 97.15L321.43 95.51L320.87 93.82L320.38 92.12L319.94 90.42L319.63 88.73L319.44 87.03L319.26 85.33L319.26 83.58L319.32 81.88L319.44 80.12L319.69 78.37L320.07 76.61L320.5 74.85L321 73.09L321.62 71.34L322.37 69.52L323.11 67.7L324.05 65.94L325.04 64.13L326.1 62.31L327.28 60.43L328.53 58.61L329.9 56.73L331.39 54.92L332.88 53.04L334.56 51.16L336.24 49.28L338.11 47.4L338.04 57.76L337.73 58.07L336.36 59.89L335.12 61.7L334 63.46L332.88 65.28Z" id="bCKZPyS6c"></path><path d="M416.18 10.99L397.58 11.23L416.18 10.99Z" id="c4qka3NMo"></path><path d="M416.18 10.99L397.58 11.23L416.18 10.99Z" id="c1nH6333l5"></path><path d="M422.52 39.34C404.23 1.66 403.3 -1.01 419.66 31.35" id="cDMg2xuo"></path><path d="M422.52 39.34C404.23 1.66 403.3 -1.01 419.66 31.35" id="c2cZziqQFm"></path><path d="M463.39 30.38L442.68 33.77L440.44 28.98" id="hcIG8Skks"></path><path d="M463.39 30.38L442.68 33.77L440.44 28.98" id="faez0A9u5"></path><path d="M425.01 73.09L400.44 73.34" id="b81wstDTpo"></path><path d="M425.01 73.09L400.44 73.34" id="b6KheYjpe"></path><path d="M345.82 61.89L374 100.79L381.47 100.79L353.6 61.89L345.82 61.89Z" id="e37UbVzobJ"></path><path d="M345.82 61.89L374 100.79L381.47 100.79L353.6 61.89L345.82 61.89Z" id="aaQwpb6wqd"></path><path d="M345.82 61.89L374 100.79L381.47 100.79L353.6 61.89L345.82 61.89Z" id="d6caQfz8wQ"></path><path d="M345.82 61.89L374 100.79L381.47 100.79L353.6 61.89L345.82 61.89Z" id="b7sASiERz7"></path><path d="M345.82 61.34L374 100.24L381.47 100.24L353.6 61.34L345.82 61.34Z" id="a1e4eXUOo4"></path><path d="M345.82 61.34L374 100.24L381.47 100.24L353.6 61.34L345.82 61.34Z" id="g32fZCyqqT"></path><path d="M345.82 61.34L374 100.24L381.47 100.24L353.6 61.34L345.82 61.34Z" id="b2UgXKgJJV"></path><path d="M345.82 60.7L374 99.6L381.47 99.6L353.6 60.7L345.82 60.7Z" id="a31P5JlSy"></path><path d="M373.81 60.37L345.26 100.24L352.91 99.94L381.84 60.07L373.81 60.37Z" id="b19FRKniBf"></path><path d="M373.81 60.37L345.26 100.24L352.91 99.94L381.84 60.07L373.81 60.37Z" id="c2IWsF6sBi"></path><path d="M373.81 60.37L345.26 100.24L352.91 99.94L381.84 60.07L373.81 60.37Z" id="bctARhI8O"></path><path d="M373.81 60.37L345.26 100.24L352.91 99.94L381.84 60.07L373.81 60.37Z" id="e1d1vjWK8T"></path><path d="M373.81 60.73L345.26 100.66L352.91 100.36L381.84 60.43L373.81 60.73Z" id="akMoZQ1Xx"></path><path d="M373.81 60.73L345.26 100.66L352.91 100.36L381.84 60.43L373.81 60.73Z" id="f1blX6m2ah"></path><path d="M373.81 60.73L345.26 100.66L352.91 100.36L381.84 60.43L373.81 60.73Z" id="k1lFyAqIcx"></path><path d="M373.81 60.73L345.26 100.66L352.91 100.36L381.84 60.43L373.81 60.73Z" id="f65RnC8Mk"></path><path d="M393.72 53.64C400.44 135.87 405.48 134.84 408.96 50.43C409.15 45.83 409.34 41.34 409.52 37.1C412.51 -35.73 413.69 -24.22 413.01 71.58C414.06 68.25 414.75 66.13 415 65.28C415.49 63.7 417.86 64.01 417.86 65.7C417.86 65.7 417.86 65.7 417.86 65.7" id="a1RUbE1ydq"></path><path d="M332.88 65.28L331.95 67.04L331.08 68.79L330.27 70.55L329.52 72.31L328.96 74.06L328.4 75.76L327.97 77.52L327.66 79.21L327.41 80.91L327.28 82.61L327.22 84.3L327.22 86L327.34 87.64L327.59 89.33L327.9 90.97L328.28 92.61L328.78 94.24L329.4 95.88L330.02 97.51L330.83 99.09L331.7 100.66L332.63 102.3L333.69 103.88L334.81 105.45L336.05 107.03L337.36 108.6L337.61 108.85L337.55 116.48L335.74 114.9L334.06 113.33L332.45 111.75L330.89 110.18L329.52 108.54L328.15 106.97L326.91 105.33L325.79 103.69L324.73 102.06L323.74 100.42L322.87 98.79L322.12 97.15L321.43 95.51L320.87 93.82L320.38 92.12L319.94 90.42L319.63 88.73L319.44 87.03L319.26 85.33L319.26 83.58L319.32 81.88L319.44 80.12L319.69 78.37L320.07 76.61L320.5 74.85L321 73.09L321.62 71.34L322.37 69.52L323.11 67.7L324.05 65.94L325.04 64.13L326.1 62.31L327.28 60.43L328.53 58.61L329.9 56.73L331.39 54.92L332.88 53.04L334.56 51.16L336.24 49.28L338.11 47.4L338.04 57.76L337.73 58.07L336.36 59.89L335.12 61.7L334 63.46L332.88 65.28Z" id="a5sA9tG3Ac"></path><path d="M393.72 53.64C400.44 135.87 405.48 134.84 408.96 50.43C409.15 45.83 409.34 41.34 409.52 37.1C412.51 -35.73 413.69 -24.22 413.01 71.58C414.06 68.25 414.75 66.13 415 65.28C415.49 63.7 417.86 64.01 417.86 65.7C417.86 65.7 417.86 65.7 417.86 65.7" id="g2bF4dwEdl"></path><path d="M393.72 53.64C400.44 135.87 405.48 134.84 408.96 50.43C409.15 45.83 409.34 41.34 409.52 37.1C412.51 -35.73 413.69 -24.22 413.01 71.58C414.06 68.25 414.75 66.13 415 65.28C415.49 63.7 417.86 64.01 417.86 65.7C417.86 65.7 417.86 65.7 417.86 65.7" id="cr0p0xhlo"></path><path d="M393.72 53.64C400.44 135.87 405.48 134.84 408.96 50.43C409.15 45.83 409.34 41.34 409.52 37.1C412.51 -35.73 413.69 -24.22 413.01 71.58C414.06 68.25 414.75 66.13 415 65.28C415.49 63.7 417.86 64.01 417.86 65.7C417.86 65.7 417.86 65.7 417.86 65.7" id="axHudqheG"></path><path d="M396.89 57.89L398.08 59.7L399.2 61.52L400.25 63.34L401.25 65.1L402.12 66.91L402.87 68.67L403.55 70.49L404.17 72.25L404.73 74L405.17 75.76L405.48 77.52L405.79 79.21L405.91 80.97L406.04 82.67L406.04 84.43L405.98 86.12L405.79 87.82L405.54 89.58L405.17 91.27L404.79 92.97L404.23 94.61L403.67 96.3L402.99 97.94L402.18 99.63L401.37 101.27L400.38 102.97L399.38 104.6L398.26 106.24L397.08 107.88L395.77 109.45L394.41 111.09L392.91 112.72L391.36 114.3L389.74 115.93L389.55 108.3L389.86 107.88L391.11 106.24L392.23 104.6L393.29 102.97L394.22 101.27L395.03 99.63L395.84 98L396.46 96.3L397.08 94.61L397.58 92.97L397.95 91.27L398.26 89.58L398.51 87.82L398.64 86.12L398.7 84.43L398.64 82.67L398.51 80.97L398.26 79.21L397.95 77.46L397.52 75.7L397.02 73.94L396.46 72.19L395.77 70.37L394.97 68.61L394.16 66.79L393.16 65.04L392.17 63.22L391.05 61.4L389.8 59.58L388.5 57.76L388.06 57.22L387.81 46.86L389.55 48.74L391.17 50.55L392.73 52.43L394.22 54.25L395.59 56.07L396.89 57.89Z" id="cExMrs7lL"></path><path d="M396.89 57.89L398.08 59.7L399.2 61.52L400.25 63.34L401.25 65.1L402.12 66.91L402.87 68.67L403.55 70.49L404.17 72.25L404.73 74L405.17 75.76L405.48 77.52L405.79 79.21L405.91 80.97L406.04 82.67L406.04 84.43L405.98 86.12L405.79 87.82L405.54 89.58L405.17 91.27L404.79 92.97L404.23 94.61L403.67 96.3L402.99 97.94L402.18 99.63L401.37 101.27L400.38 102.97L399.38 104.6L398.26 106.24L397.08 107.88L395.77 109.45L394.41 111.09L392.91 112.72L391.36 114.3L389.74 115.93L389.55 108.3L389.86 107.88L391.11 106.24L392.23 104.6L393.29 102.97L394.22 101.27L395.03 99.63L395.84 98L396.46 96.3L397.08 94.61L397.58 92.97L397.95 91.27L398.26 89.58L398.51 87.82L398.64 86.12L398.7 84.43L398.64 82.67L398.51 80.97L398.26 79.21L397.95 77.46L397.52 75.7L397.02 73.94L396.46 72.19L395.77 70.37L394.97 68.61L394.16 66.79L393.16 65.04L392.17 63.22L391.05 61.4L389.8 59.58L388.5 57.76L388.06 57.22L387.81 46.86L389.55 48.74L391.17 50.55L392.73 52.43L394.22 54.25L395.59 56.07L396.89 57.89Z" id="aL4hQPXWR"></path><path d="M396.89 57.89L398.08 59.7L399.2 61.52L400.25 63.34L401.25 65.1L402.12 66.91L402.87 68.67L403.55 70.49L404.17 72.25L404.73 74L405.17 75.76L405.48 77.52L405.79 79.21L405.91 80.97L406.04 82.67L406.04 84.43L405.98 86.12L405.79 87.82L405.54 89.58L405.17 91.27L404.79 92.97L404.23 94.61L403.67 96.3L402.99 97.94L402.18 99.63L401.37 101.27L400.38 102.97L399.38 104.6L398.26 106.24L397.08 107.88L395.77 109.45L394.41 111.09L392.91 112.72L391.36 114.3L389.74 115.93L389.55 108.3L389.86 107.88L391.11 106.24L392.23 104.6L393.29 102.97L394.22 101.27L395.03 99.63L395.84 98L396.46 96.3L397.08 94.61L397.58 92.97L397.95 91.27L398.26 89.58L398.51 87.82L398.64 86.12L398.7 84.43L398.64 82.67L398.51 80.97L398.26 79.21L397.95 77.46L397.52 75.7L397.02 73.94L396.46 72.19L395.77 70.37L394.97 68.61L394.16 66.79L393.16 65.04L392.17 63.22L391.05 61.4L389.8 59.58L388.5 57.76L388.06 57.22L387.81 46.86L389.55 48.74L391.17 50.55L392.73 52.43L394.22 54.25L395.59 56.07L396.89 57.89Z" id="d1dDGtTznc"></path><path d="M396.89 57.89L398.08 59.7L399.2 61.52L400.25 63.34L401.25 65.1L402.12 66.91L402.87 68.67L403.55 70.49L404.17 72.25L404.73 74L405.17 75.76L405.48 77.52L405.79 79.21L405.91 80.97L406.04 82.67L406.04 84.43L405.98 86.12L405.79 87.82L405.54 89.58L405.17 91.27L404.79 92.97L404.23 94.61L403.67 96.3L402.99 97.94L402.18 99.63L401.37 101.27L400.38 102.97L399.38 104.6L398.26 106.24L397.08 107.88L395.77 109.45L394.41 111.09L392.91 112.72L391.36 114.3L389.74 115.93L389.55 108.3L389.86 107.88L391.11 106.24L392.23 104.6L393.29 102.97L394.22 101.27L395.03 99.63L395.84 98L396.46 96.3L397.08 94.61L397.58 92.97L397.95 91.27L398.26 89.58L398.51 87.82L398.64 86.12L398.7 84.43L398.64 82.67L398.51 80.97L398.26 79.21L397.95 77.46L397.52 75.7L397.02 73.94L396.46 72.19L395.77 70.37L394.97 68.61L394.16 66.79L393.16 65.04L392.17 63.22L391.05 61.4L389.8 59.58L388.5 57.76L388.06 57.22L387.81 46.86L389.55 48.74L391.17 50.55L392.73 52.43L394.22 54.25L395.59 56.07L396.89 57.89Z" id="b1fD05ow3x"></path><path d="M396.89 57.58L398.08 59.4L399.2 61.22L400.25 62.98L401.19 64.79L402.12 66.61L402.87 68.37L403.55 70.13L404.17 71.88L404.67 73.7L405.11 75.4L405.48 77.15L405.73 78.91L405.91 80.67L406.04 82.37L406.04 84.12L405.98 85.82L405.79 87.52L405.54 89.21L405.17 90.91L404.79 92.61L404.23 94.3L403.67 96L402.99 97.64L402.18 99.33L401.37 100.97L400.38 102.6L399.38 104.24L398.26 105.88L397.02 107.51L395.77 109.15L394.41 110.78L392.91 112.36L391.36 114L389.74 115.57L389.55 108L389.86 107.51L391.11 105.94L392.23 104.3L393.22 102.66L394.22 100.97L395.03 99.33L395.84 97.64L396.46 96L397.08 94.3L397.58 92.61L397.95 90.91L398.26 89.21L398.51 87.52L398.64 85.82L398.7 84.12L398.64 82.37L398.51 80.61L398.26 78.91L397.95 77.15L397.52 75.4L397.02 73.64L396.46 71.82L395.77 70.07L394.97 68.31L394.16 66.49L393.16 64.67L392.17 62.92L391.05 61.1L389.8 59.28L388.5 57.46L388.06 56.92L387.75 46.55L389.49 48.43L391.17 50.25L392.73 52.13L394.22 53.95L395.59 55.77L396.89 57.58Z" id="d13lm2PjKx"></path><path d="M396.89 57.58L398.08 59.4L399.2 61.22L400.25 62.98L401.19 64.79L402.12 66.61L402.87 68.37L403.55 70.13L404.17 71.88L404.67 73.7L405.11 75.4L405.48 77.15L405.73 78.91L405.91 80.67L406.04 82.37L406.04 84.12L405.98 85.82L405.79 87.52L405.54 89.21L405.17 90.91L404.79 92.61L404.23 94.3L403.67 96L402.99 97.64L402.18 99.33L401.37 100.97L400.38 102.6L399.38 104.24L398.26 105.88L397.02 107.51L395.77 109.15L394.41 110.78L392.91 112.36L391.36 114L389.74 115.57L389.55 108L389.86 107.51L391.11 105.94L392.23 104.3L393.22 102.66L394.22 100.97L395.03 99.33L395.84 97.64L396.46 96L397.08 94.3L397.58 92.61L397.95 90.91L398.26 89.21L398.51 87.52L398.64 85.82L398.7 84.12L398.64 82.37L398.51 80.61L398.26 78.91L397.95 77.15L397.52 75.4L397.02 73.64L396.46 71.82L395.77 70.07L394.97 68.31L394.16 66.49L393.16 64.67L392.17 62.92L391.05 61.1L389.8 59.28L388.5 57.46L388.06 56.92L387.75 46.55L389.49 48.43L391.17 50.25L392.73 52.13L394.22 53.95L395.59 55.77L396.89 57.58Z" id="bqJ79idjU"></path><path d="M396.89 57.58L398.08 59.4L399.2 61.22L400.25 62.98L401.19 64.79L402.12 66.61L402.87 68.37L403.55 70.13L404.17 71.88L404.67 73.7L405.11 75.4L405.48 77.15L405.73 78.91L405.91 80.67L406.04 82.37L406.04 84.12L405.98 85.82L405.79 87.52L405.54 89.21L405.17 90.91L404.79 92.61L404.23 94.3L403.67 96L402.99 97.64L402.18 99.33L401.37 100.97L400.38 102.6L399.38 104.24L398.26 105.88L397.02 107.51L395.77 109.15L394.41 110.78L392.91 112.36L391.36 114L389.74 115.57L389.55 108L389.86 107.51L391.11 105.94L392.23 104.3L393.22 102.66L394.22 100.97L395.03 99.33L395.84 97.64L396.46 96L397.08 94.3L397.58 92.61L397.95 90.91L398.26 89.21L398.51 87.52L398.64 85.82L398.7 84.12L398.64 82.37L398.51 80.61L398.26 78.91L397.95 77.15L397.52 75.4L397.02 73.64L396.46 71.82L395.77 70.07L394.97 68.31L394.16 66.49L393.16 64.67L392.17 62.92L391.05 61.1L389.8 59.28L388.5 57.46L388.06 56.92L387.75 46.55L389.49 48.43L391.17 50.25L392.73 52.13L394.22 53.95L395.59 55.77L396.89 57.58Z" id="b2VIMJP9v"></path><path d="M396.89 57.58L398.08 59.4L399.2 61.22L400.25 62.98L401.19 64.79L402.12 66.61L402.87 68.37L403.55 70.13L404.17 71.88L404.67 73.7L405.11 75.4L405.48 77.15L405.73 78.91L405.91 80.67L406.04 82.37L406.04 84.12L405.98 85.82L405.79 87.52L405.54 89.21L405.17 90.91L404.79 92.61L404.23 94.3L403.67 96L402.99 97.64L402.18 99.33L401.37 100.97L400.38 102.6L399.38 104.24L398.26 105.88L397.02 107.51L395.77 109.15L394.41 110.78L392.91 112.36L391.36 114L389.74 115.57L389.55 108L389.86 107.51L391.11 105.94L392.23 104.3L393.22 102.66L394.22 100.97L395.03 99.33L395.84 97.64L396.46 96L397.08 94.3L397.58 92.61L397.95 90.91L398.26 89.21L398.51 87.52L398.64 85.82L398.7 84.12L398.64 82.37L398.51 80.61L398.26 78.91L397.95 77.15L397.52 75.4L397.02 73.64L396.46 71.82L395.77 70.07L394.97 68.31L394.16 66.49L393.16 64.67L392.17 62.92L391.05 61.1L389.8 59.28L388.5 57.46L388.06 56.92L387.75 46.55L389.49 48.43L391.17 50.25L392.73 52.13L394.22 53.95L395.59 55.77L396.89 57.58Z" id="a2T57K1t31"></path><path d="M441.19 35.59L442.99 37.65L444.61 39.77L446.16 41.89L447.53 43.95L448.78 46.01L449.9 48.07L450.95 50.13L451.82 52.19L452.57 54.25L453.19 56.31L453.69 58.31L454.06 60.37L454.37 62.37L454.5 64.37L454.5 66.37L454.37 68.37L454.13 70.37L453.75 72.37L453.25 74.31L452.57 76.31L451.82 78.25L450.95 80.18L449.96 82.12L448.84 84.06L447.59 86L446.22 87.94L444.67 89.82L443.05 91.76L441.31 93.64L439.44 95.51L437.39 97.39L435.28 99.33L432.97 101.15L430.61 103.03L430.3 94.18L430.86 93.7L432.6 91.76L434.28 89.88L435.77 87.94L437.14 86.06L438.39 84.12L439.51 82.18L440.5 80.24L441.37 78.25L442.12 76.31L442.68 74.37L443.18 72.37L443.49 70.37L443.67 68.37L443.74 66.37L443.67 64.37L443.49 62.37L443.18 60.37L442.68 58.31L442.12 56.25L441.37 54.19L440.56 52.13L439.57 50.07L438.45 48.01L437.2 45.95L435.77 43.83L434.28 41.77L432.66 39.65L430.86 37.53L428.99 35.41L428.37 34.8L428 22.8L430.49 24.92L432.91 27.04L435.15 29.23L437.33 31.35L439.32 33.47L441.19 35.59Z" id="bDC9MKasn"></path><path d="M441.19 35.59L442.99 37.65L444.61 39.77L446.16 41.89L447.53 43.95L448.78 46.01L449.9 48.07L450.95 50.13L451.82 52.19L452.57 54.25L453.19 56.31L453.69 58.31L454.06 60.37L454.37 62.37L454.5 64.37L454.5 66.37L454.37 68.37L454.13 70.37L453.75 72.37L453.25 74.31L452.57 76.31L451.82 78.25L450.95 80.18L449.96 82.12L448.84 84.06L447.59 86L446.22 87.94L444.67 89.82L443.05 91.76L441.31 93.64L439.44 95.51L437.39 97.39L435.28 99.33L432.97 101.15L430.61 103.03L430.3 94.18L430.86 93.7L432.6 91.76L434.28 89.88L435.77 87.94L437.14 86.06L438.39 84.12L439.51 82.18L440.5 80.24L441.37 78.25L442.12 76.31L442.68 74.37L443.18 72.37L443.49 70.37L443.67 68.37L443.74 66.37L443.67 64.37L443.49 62.37L443.18 60.37L442.68 58.31L442.12 56.25L441.37 54.19L440.56 52.13L439.57 50.07L438.45 48.01L437.2 45.95L435.77 43.83L434.28 41.77L432.66 39.65L430.86 37.53L428.99 35.41L428.37 34.8L428 22.8L430.49 24.92L432.91 27.04L435.15 29.23L437.33 31.35L439.32 33.47L441.19 35.59Z" id="b162UNgcSA"></path><path d="M441.19 35.59L442.99 37.65L444.61 39.77L446.16 41.89L447.53 43.95L448.78 46.01L449.9 48.07L450.95 50.13L451.82 52.19L452.57 54.25L453.19 56.31L453.69 58.31L454.06 60.37L454.37 62.37L454.5 64.37L454.5 66.37L454.37 68.37L454.13 70.37L453.75 72.37L453.25 74.31L452.57 76.31L451.82 78.25L450.95 80.18L449.96 82.12L448.84 84.06L447.59 86L446.22 87.94L444.67 89.82L443.05 91.76L441.31 93.64L439.44 95.51L437.39 97.39L435.28 99.33L432.97 101.15L430.61 103.03L430.3 94.18L430.86 93.7L432.6 91.76L434.28 89.88L435.77 87.94L437.14 86.06L438.39 84.12L439.51 82.18L440.5 80.24L441.37 78.25L442.12 76.31L442.68 74.37L443.18 72.37L443.49 70.37L443.67 68.37L443.74 66.37L443.67 64.37L443.49 62.37L443.18 60.37L442.68 58.31L442.12 56.25L441.37 54.19L440.56 52.13L439.57 50.07L438.45 48.01L437.2 45.95L435.77 43.83L434.28 41.77L432.66 39.65L430.86 37.53L428.99 35.41L428.37 34.8L428 22.8L430.49 24.92L432.91 27.04L435.15 29.23L437.33 31.35L439.32 33.47L441.19 35.59Z" id="cMX8NNw90"></path><path d="M441.19 35.59L442.99 37.65L444.61 39.77L446.16 41.89L447.53 43.95L448.78 46.01L449.9 48.07L450.95 50.13L451.82 52.19L452.57 54.25L453.19 56.31L453.69 58.31L454.06 60.37L454.37 62.37L454.5 64.37L454.5 66.37L454.37 68.37L454.13 70.37L453.75 72.37L453.25 74.31L452.57 76.31L451.82 78.25L450.95 80.18L449.96 82.12L448.84 84.06L447.59 86L446.22 87.94L444.67 89.82L443.05 91.76L441.31 93.64L439.44 95.51L437.39 97.39L435.28 99.33L432.97 101.15L430.61 103.03L430.3 94.18L430.86 93.7L432.6 91.76L434.28 89.88L435.77 87.94L437.14 86.06L438.39 84.12L439.51 82.18L440.5 80.24L441.37 78.25L442.12 76.31L442.68 74.37L443.18 72.37L443.49 70.37L443.67 68.37L443.74 66.37L443.67 64.37L443.49 62.37L443.18 60.37L442.68 58.31L442.12 56.25L441.37 54.19L440.56 52.13L439.57 50.07L438.45 48.01L437.2 45.95L435.77 43.83L434.28 41.77L432.66 39.65L430.86 37.53L428.99 35.41L428.37 34.8L428 22.8L430.49 24.92L432.91 27.04L435.15 29.23L437.33 31.35L439.32 33.47L441.19 35.59Z" id="b42IyC5T7"></path><path d="M441.19 35.59L442.99 37.65L444.61 39.77L446.16 41.89L447.53 43.95L448.78 46.01L449.9 48.07L450.95 50.13L451.82 52.19L452.57 54.25L453.19 56.31L453.69 58.31L454.06 60.37L454.37 62.37L454.5 64.37L454.5 66.37L454.37 68.37L454.13 70.37L453.75 72.37L453.25 74.31L452.57 76.31L451.82 78.25L450.95 80.18L449.96 82.12L448.84 84.06L447.59 86L446.22 87.94L444.67 89.82L443.05 91.76L441.31 93.64L439.44 95.51L437.39 97.39L435.28 99.33L432.97 101.15L430.61 103.03L430.3 94.18L430.86 93.7L432.6 91.76L434.28 89.88L435.77 87.94L437.14 86.06L438.39 84.12L439.51 82.18L440.5 80.24L441.37 78.25L442.12 76.31L442.68 74.37L443.18 72.37L443.49 70.37L443.67 68.37L443.74 66.37L443.67 64.37L443.49 62.37L443.18 60.37L442.68 58.31L442.12 56.25L441.37 54.19L440.56 52.13L439.57 50.07L438.45 48.01L437.2 45.95L435.77 43.83L434.28 41.77L432.66 39.65L430.86 37.53L428.99 35.41L428.37 34.8L428 22.8L430.49 24.92L432.91 27.04L435.15 29.23L437.33 31.35L439.32 33.47L441.19 35.59Z" id="cl2sIb7NY"></path><path d="M441.19 35.59L442.99 37.65L444.61 39.77L446.16 41.89L447.53 43.95L448.78 46.01L449.9 48.07L450.95 50.13L451.82 52.19L452.57 54.25L453.19 56.31L453.69 58.31L454.06 60.37L454.37 62.37L454.5 64.37L454.5 66.37L454.37 68.37L454.13 70.37L453.75 72.37L453.25 74.31L452.57 76.31L451.82 78.25L450.95 80.18L449.96 82.12L448.84 84.06L447.59 86L446.22 87.94L444.67 89.82L443.05 91.76L441.31 93.64L439.44 95.51L437.39 97.39L435.28 99.33L432.97 101.15L430.61 103.03L430.3 94.18L430.86 93.7L432.6 91.76L434.28 89.88L435.77 87.94L437.14 86.06L438.39 84.12L439.51 82.18L440.5 80.24L441.37 78.25L442.12 76.31L442.68 74.37L443.18 72.37L443.49 70.37L443.67 68.37L443.74 66.37L443.67 64.37L443.49 62.37L443.18 60.37L442.68 58.31L442.12 56.25L441.37 54.19L440.56 52.13L439.57 50.07L438.45 48.01L437.2 45.95L435.77 43.83L434.28 41.77L432.66 39.65L430.86 37.53L428.99 35.41L428.37 34.8L428 22.8L430.49 24.92L432.91 27.04L435.15 29.23L437.33 31.35L439.32 33.47L441.19 35.59Z" id="bPQylJRDO"></path><path d="M441.19 35.59L442.99 37.65L444.61 39.77L446.16 41.89L447.53 43.95L448.78 46.01L449.9 48.07L450.95 50.13L451.82 52.19L452.57 54.25L453.19 56.31L453.69 58.31L454.06 60.37L454.37 62.37L454.5 64.37L454.5 66.37L454.37 68.37L454.13 70.37L453.75 72.37L453.25 74.31L452.57 76.31L451.82 78.25L450.95 80.18L449.96 82.12L448.84 84.06L447.59 86L446.22 87.94L444.67 89.82L443.05 91.76L441.31 93.64L439.44 95.51L437.39 97.39L435.28 99.33L432.97 101.15L430.61 103.03L430.3 94.18L430.86 93.7L432.6 91.76L434.28 89.88L435.77 87.94L437.14 86.06L438.39 84.12L439.51 82.18L440.5 80.24L441.37 78.25L442.12 76.31L442.68 74.37L443.18 72.37L443.49 70.37L443.67 68.37L443.74 66.37L443.67 64.37L443.49 62.37L443.18 60.37L442.68 58.31L442.12 56.25L441.37 54.19L440.56 52.13L439.57 50.07L438.45 48.01L437.2 45.95L435.77 43.83L434.28 41.77L432.66 39.65L430.86 37.53L428.99 35.41L428.37 34.8L428 22.8L430.49 24.92L432.91 27.04L435.15 29.23L437.33 31.35L439.32 33.47L441.19 35.59Z" id="bCi7ojyJQ"></path><path d="M441.19 35.59L442.99 37.65L444.61 39.77L446.16 41.89L447.53 43.95L448.78 46.01L449.9 48.07L450.95 50.13L451.82 52.19L452.57 54.25L453.19 56.31L453.69 58.31L454.06 60.37L454.37 62.37L454.5 64.37L454.5 66.37L454.37 68.37L454.13 70.37L453.75 72.37L453.25 74.31L452.57 76.31L451.82 78.25L450.95 80.18L449.96 82.12L448.84 84.06L447.59 86L446.22 87.94L444.67 89.82L443.05 91.76L441.31 93.64L439.44 95.51L437.39 97.39L435.28 99.33L432.97 101.15L430.61 103.03L430.3 94.18L430.86 93.7L432.6 91.76L434.28 89.88L435.77 87.94L437.14 86.06L438.39 84.12L439.51 82.18L440.5 80.24L441.37 78.25L442.12 76.31L442.68 74.37L443.18 72.37L443.49 70.37L443.67 68.37L443.74 66.37L443.67 64.37L443.49 62.37L443.18 60.37L442.68 58.31L442.12 56.25L441.37 54.19L440.56 52.13L439.57 50.07L438.45 48.01L437.2 45.95L435.77 43.83L434.28 41.77L432.66 39.65L430.86 37.53L428.99 35.41L428.37 34.8L428 22.8L430.49 24.92L432.91 27.04L435.15 29.23L437.33 31.35L439.32 33.47L441.19 35.59Z" id="b1txgwXgnX"></path><path d="M265.88 58.25L221.78 116.42L265.88 58.25Z" id="e2dllQ4WhY"></path><path d="M265.88 58.25L221.78 116.42L265.88 58.25Z" id="b4Cnxsrq6t"></path><path d="M265.88 58.25L221.78 116.42L265.88 58.25Z" id="a485a1anZr"></path><path d="M279.92 75.46L223.54 123.75L279.92 75.46Z" id="cjie5TmZT"></path></defs><g><g><g><g><filter id="shadow5959806" x="216.03" y="2.65" width="129.22" height="135.02" filterUnits="userSpaceOnUse" primitiveUnits="userSpaceOnUse"><feFlood></feFlood><feComposite in2="SourceAlpha" operator="in"></feComposite><feGaussianBlur stdDeviation="1"></feGaussianBlur><feOffset dx="9" dy="1" result="afterOffset"></feOffset><feFlood flood-color="#000000" flood-opacity="0.5"></feFlood><feComposite in2="afterOffset" operator="in"></feComposite><feMorphology operator="dilate" radius="1"></feMorphology><feComposite in2="SourceAlpha" operator="out"></feComposite></filter><path d="M260.12 52.55L233.03 119.67L244.79 119.6L269.03 64.37L294.68 119.24L319.26 111.15L312.18 104.34L301.01 107.87L259.88 19.65L237.55 19.78L237.64 32.26L254.06 32.16L260.12 52.55Z" id="i1AErLOlK0" fill="white" fill-opacity="1" filter="url(#shadow5959806)"></path></g><use xlink:href="#b1DEFOFhqN" opacity="1" fill="#17cba3" fill-opacity="1"></use><g><use xlink:href="#b1DEFOFhqN" opacity="1" fill-opacity="0" stroke="#000000" stroke-width="1" stroke-opacity="0"></use></g></g><g><use xlink:href="#d5Lkk2FIi" opacity="1" fill="#000000" fill-opacity="0"></use><g><use xlink:href="#d5Lkk2FIi" opacity="1" fill-opacity="0" stroke="#000000" stroke-width="1" stroke-opacity="0"></use></g></g><g><use xlink:href="#d1CFzkcowS" opacity="1" fill="#000000" fill-opacity="0"></use><g><use xlink:href="#d1CFzkcowS" opacity="1" fill-opacity="0" stroke="#000000" stroke-width="1" stroke-opacity="0"></use></g></g><g><g><filter id="shadow2288817" x="306.26" y="34.4" width="49.85" height="96.08" filterUnits="userSpaceOnUse" primitiveUnits="userSpaceOnUse"><feFlood></feFlood><feComposite in2="SourceAlpha" operator="in"></feComposite><feGaussianBlur stdDeviation="1"></feGaussianBlur><feOffset dx="5" dy="1" result="afterOffset"></feOffset><feFlood flood-color="#000000" flood-opacity="0.5"></feFlood><feComposite in2="afterOffset" operator="in"></feComposite><feMorphology operator="dilate" radius="1"></feMorphology><feComposite in2="SourceAlpha" operator="out"></feComposite></filter><path d="M332.88 65.28L331.95 67.04L331.08 68.79L330.27 70.55L329.52 72.31L328.96 74.06L328.4 75.76L327.97 77.52L327.66 79.21L327.41 80.91L327.28 82.61L327.22 84.3L327.22 86L327.34 87.64L327.59 89.33L327.9 90.97L328.28 92.61L328.78 94.24L329.4 95.88L330.02 97.51L330.83 99.09L331.7 100.66L332.63 102.3L333.69 103.88L334.81 105.45L336.05 107.03L337.36 108.6L337.61 108.85L337.55 116.48L335.74 114.9L334.06 113.33L332.45 111.75L330.89 110.18L329.52 108.54L328.15 106.97L326.91 105.33L325.79 103.69L324.73 102.06L323.74 100.42L322.87 98.79L322.12 97.15L321.43 95.51L320.87 93.82L320.38 92.12L319.94 90.42L319.63 88.73L319.44 87.03L319.26 85.33L319.26 83.58L319.32 81.88L319.44 80.12L319.69 78.37L320.07 76.61L320.5 74.85L321 73.09L321.62 71.34L322.37 69.52L323.11 67.7L324.05 65.94L325.04 64.13L326.1 62.31L327.28 60.43L328.53 58.61L329.9 56.73L331.39 54.92L332.88 53.04L334.56 51.16L336.24 49.28L338.11 47.4L338.04 57.76L337.73 58.07L336.36 59.89L335.12 61.7L334 63.46L332.88 65.28Z" id="g6x34JuAQL" fill="white" fill-opacity="1" filter="url(#shadow2288817)"></path></g><use xlink:href="#bCKZPyS6c" opacity="1" fill="#000000" fill-opacity="0"></use><g><use xlink:href="#bCKZPyS6c" opacity="1" fill-opacity="0" stroke="#000000" stroke-width="1" stroke-opacity="0"></use></g></g><g><use xlink:href="#c4qka3NMo" opacity="1" fill="#000000" fill-opacity="0"></use><g><use xlink:href="#c4qka3NMo" opacity="1" fill-opacity="0" stroke="#000000" stroke-width="1" stroke-opacity="0"></use></g></g><g><use xlink:href="#c1nH6333l5" opacity="1" fill="#000000" fill-opacity="0"></use><g><use xlink:href="#c1nH6333l5" opacity="1" fill-opacity="0" stroke="#000000" stroke-width="0" stroke-opacity="1"></use></g></g><g><use xlink:href="#cDMg2xuo" opacity="1" fill="#000000" fill-opacity="0"></use><g><use xlink:href="#cDMg2xuo" opacity="1" fill-opacity="0" stroke="#000000" stroke-width="1" stroke-opacity="0"></use></g></g><g><use xlink:href="#c2cZziqQFm" opacity="1" fill="#000000" fill-opacity="0"></use><g><use xlink:href="#c2cZziqQFm" opacity="1" fill-opacity="0" stroke="#000000" stroke-width="0" stroke-opacity="1"></use></g></g><g><use xlink:href="#hcIG8Skks" opacity="1" fill="#000000" fill-opacity="0"></use><g><use xlink:href="#hcIG8Skks" opacity="1" fill-opacity="0" stroke="#000000" stroke-width="1" stroke-opacity="0"></use></g></g><g><use xlink:href="#faez0A9u5" opacity="1" fill="#000000" fill-opacity="0"></use><g><use xlink:href="#faez0A9u5" opacity="1" fill-opacity="0" stroke="#000000" stroke-width="0" stroke-opacity="1"></use></g></g><g><use xlink:href="#b81wstDTpo" opacity="1" fill="#000000" fill-opacity="0"></use><g><use xlink:href="#b81wstDTpo" opacity="1" fill-opacity="0" stroke="#000000" stroke-width="1" stroke-opacity="0"></use></g></g><g><use xlink:href="#b6KheYjpe" opacity="1" fill="#000000" fill-opacity="0"></use><g><use xlink:href="#b6KheYjpe" opacity="1" fill-opacity="0" stroke="#000000" stroke-width="0" stroke-opacity="1"></use></g></g><g><use xlink:href="#e37UbVzobJ" opacity="1" fill="#213e8d" fill-opacity="1"></use><g><use xlink:href="#e37UbVzobJ" opacity="1" fill-opacity="0" stroke="#000000" stroke-width="1" stroke-opacity="0"></use></g></g><g><use xlink:href="#aaQwpb6wqd" opacity="1" fill="#000000" fill-opacity="0"></use><g><use xlink:href="#aaQwpb6wqd" opacity="1" fill-opacity="0" stroke="#000000" stroke-width="1" stroke-opacity="0"></use></g></g><g><use xlink:href="#d6caQfz8wQ" opacity="1" fill="#000000" fill-opacity="0"></use><g><use xlink:href="#d6caQfz8wQ" opacity="1" fill-opacity="0" stroke="#000000" stroke-width="1" stroke-opacity="0"></use></g></g><g><use xlink:href="#b7sASiERz7" opacity="1" fill="#000000" fill-opacity="0"></use><g><use xlink:href="#b7sASiERz7" opacity="1" fill-opacity="0" stroke="#000000" stroke-width="1" stroke-opacity="0"></use></g></g><g><use xlink:href="#a1e4eXUOo4" opacity="1" fill="#3947a7" fill-opacity="1"></use><g><use xlink:href="#a1e4eXUOo4" opacity="1" fill-opacity="0" stroke="#000000" stroke-width="1" stroke-opacity="0"></use></g></g><g><use xlink:href="#g32fZCyqqT" opacity="1" fill="#000000" fill-opacity="0"></use><g><use xlink:href="#g32fZCyqqT" opacity="1" fill-opacity="0" stroke="#000000" stroke-width="1" stroke-opacity="0"></use></g></g><g><use xlink:href="#b2UgXKgJJV" opacity="1" fill="#000000" fill-opacity="0"></use><g><use xlink:href="#b2UgXKgJJV" opacity="1" fill-opacity="0" stroke="#000000" stroke-width="1" stroke-opacity="0"></use></g></g><g><g><filter id="shadow3137707" x="330.82" y="45.7" width="72.65" height="69.9" filterUnits="userSpaceOnUse" primitiveUnits="userSpaceOnUse"><feFlood></feFlood><feComposite in2="SourceAlpha" operator="in"></feComposite><feGaussianBlur stdDeviation="1"></feGaussianBlur><feOffset dx="-7" dy="1" result="afterOffset"></feOffset><feFlood flood-color="#000000" flood-opacity="0.5"></feFlood><feComposite in2="afterOffset" operator="in"></feComposite><feMorphology operator="dilate" radius="1"></feMorphology><feComposite in2="SourceAlpha" operator="out"></feComposite></filter><path d="M345.82 60.7L374 99.6L381.47 99.6L353.6 60.7L345.82 60.7Z" id="ca9o5v6jS" fill="white" fill-opacity="1" filter="url(#shadow3137707)"></path></g><use xlink:href="#a31P5JlSy" opacity="1" fill="#000000" fill-opacity="0"></use><g><use xlink:href="#a31P5JlSy" opacity="1" fill-opacity="0" stroke="#000000" stroke-width="0" stroke-opacity="1"></use></g></g><g><use xlink:href="#b19FRKniBf" opacity="1" fill="#091d3e" fill-opacity="1"></use><g><use xlink:href="#b19FRKniBf" opacity="1" fill-opacity="0" stroke="#000000" stroke-width="1" stroke-opacity="0"></use></g></g><g><use xlink:href="#c2IWsF6sBi" opacity="1" fill="#000000" fill-opacity="0"></use><g><use xlink:href="#c2IWsF6sBi" opacity="1" fill-opacity="0" stroke="#000000" stroke-width="1" stroke-opacity="0"></use></g></g><g><use xlink:href="#bctARhI8O" opacity="1" fill="#000000" fill-opacity="0"></use><g><use xlink:href="#bctARhI8O" opacity="1" fill-opacity="0" stroke="#000000" stroke-width="1" stroke-opacity="0"></use></g></g><g><use xlink:href="#e1d1vjWK8T" opacity="1" fill="#000000" fill-opacity="0"></use><g><use xlink:href="#e1d1vjWK8T" opacity="1" fill-opacity="0" stroke="#000000" stroke-width="1" stroke-opacity="0"></use></g></g><g><use xlink:href="#akMoZQ1Xx" opacity="1" fill="#3947a7" fill-opacity="1"></use><g><use xlink:href="#akMoZQ1Xx" opacity="1" fill-opacity="0" stroke="#000000" stroke-width="1" stroke-opacity="0"></use></g></g><g><use xlink:href="#f1blX6m2ah" opacity="1" fill="#000000" fill-opacity="0"></use><g><use xlink:href="#f1blX6m2ah" opacity="1" fill-opacity="0" stroke="#000000" stroke-width="1" stroke-opacity="0"></use></g></g><g><use xlink:href="#k1lFyAqIcx" opacity="1" fill="#000000" fill-opacity="0"></use><g><use xlink:href="#k1lFyAqIcx" opacity="1" fill-opacity="0" stroke="#000000" stroke-width="1" stroke-opacity="0"></use></g></g><g><g><filter id="shadow1507306" x="332.26" y="47.43" width="67.58" height="67.23" filterUnits="userSpaceOnUse" primitiveUnits="userSpaceOnUse"><feFlood></feFlood><feComposite in2="SourceAlpha" operator="in"></feComposite><feGaussianBlur stdDeviation="1"></feGaussianBlur><feOffset dx="-5" dy="1" result="afterOffset"></feOffset><feFlood flood-color="#000000" flood-opacity="0.5"></feFlood><feComposite in2="afterOffset" operator="in"></feComposite><feMorphology operator="dilate" radius="1"></feMorphology><feComposite in2="SourceAlpha" operator="out"></feComposite></filter><path d="M373.81 60.73L345.26 100.66L352.91 100.36L381.84 60.43L373.81 60.73Z" id="d8r7TctwV" fill="white" fill-opacity="1" filter="url(#shadow1507306)"></path></g><use xlink:href="#f65RnC8Mk" opacity="1" fill="#000000" fill-opacity="0"></use><g><use xlink:href="#f65RnC8Mk" opacity="1" fill-opacity="0" stroke="#000000" stroke-width="0" stroke-opacity="1"></use></g></g><g><use xlink:href="#a1RUbE1ydq" opacity="1" fill="#000000" fill-opacity="0"></use><g><use xlink:href="#a1RUbE1ydq" opacity="1" fill-opacity="0" stroke="#000000" stroke-width="1" stroke-opacity="0"></use></g></g><g><use xlink:href="#a5sA9tG3Ac" opacity="1" fill="#d76155" fill-opacity="1"></use><g><use xlink:href="#a5sA9tG3Ac" opacity="1" fill-opacity="0" stroke="#000000" stroke-width="1" stroke-opacity="0"></use></g></g><g><use xlink:href="#g2bF4dwEdl" opacity="1" fill="#000000" fill-opacity="0"></use><g><use xlink:href="#g2bF4dwEdl" opacity="1" fill-opacity="0" stroke="#000000" stroke-width="1" stroke-opacity="0"></use></g></g><g><use xlink:href="#cr0p0xhlo" opacity="1" fill="#000000" fill-opacity="0"></use><g><use xlink:href="#cr0p0xhlo" opacity="1" fill-opacity="0" stroke="#000000" stroke-width="1" stroke-opacity="0"></use></g></g><g><use xlink:href="#axHudqheG" opacity="1" fill="#000000" fill-opacity="0"></use><g><use xlink:href="#axHudqheG" opacity="1" fill-opacity="0" stroke="#000000" stroke-width="0" stroke-opacity="1"></use></g></g><g><use xlink:href="#cExMrs7lL" opacity="1" fill="#0cd3e0" fill-opacity="1"></use><g><use xlink:href="#cExMrs7lL" opacity="1" fill-opacity="0" stroke="#000000" stroke-width="1" stroke-opacity="0"></use></g></g><g><use xlink:href="#aL4hQPXWR" opacity="1" fill="#000000" fill-opacity="0"></use><g><use xlink:href="#aL4hQPXWR" opacity="1" fill-opacity="0" stroke="#000000" stroke-width="1" stroke-opacity="0"></use></g></g><g><use xlink:href="#d1dDGtTznc" opacity="1" fill="#000000" fill-opacity="0"></use><g><use xlink:href="#d1dDGtTznc" opacity="1" fill-opacity="0" stroke="#000000" stroke-width="1" stroke-opacity="0"></use></g></g><g><use xlink:href="#b1fD05ow3x" opacity="1" fill="#000000" fill-opacity="0"></use><g><use xlink:href="#b1fD05ow3x" opacity="1" fill-opacity="0" stroke="#000000" stroke-width="1" stroke-opacity="0"></use></g></g><g><use xlink:href="#d13lm2PjKx" opacity="1" fill="#d76155" fill-opacity="1"></use><g><use xlink:href="#d13lm2PjKx" opacity="1" fill-opacity="0" stroke="#000000" stroke-width="1" stroke-opacity="0"></use></g></g><g><use xlink:href="#bqJ79idjU" opacity="1" fill="#000000" fill-opacity="0"></use><g><use xlink:href="#bqJ79idjU" opacity="1" fill-opacity="0" stroke="#000000" stroke-width="1" stroke-opacity="0"></use></g></g><g><use xlink:href="#b2VIMJP9v" opacity="1" fill="#000000" fill-opacity="0"></use><g><use xlink:href="#b2VIMJP9v" opacity="1" fill-opacity="0" stroke="#000000" stroke-width="1" stroke-opacity="0"></use></g></g><g><g><filter id="shadow13721987" x="374.75" y="33.55" width="49.29" height="96.02" filterUnits="userSpaceOnUse" primitiveUnits="userSpaceOnUse"><feFlood></feFlood><feComposite in2="SourceAlpha" operator="in"></feComposite><feGaussianBlur stdDeviation="1"></feGaussianBlur><feOffset dx="-5" dy="1" result="afterOffset"></feOffset><feFlood flood-color="#000000" flood-opacity="0.5"></feFlood><feComposite in2="afterOffset" operator="in"></feComposite><feMorphology operator="dilate" radius="1"></feMorphology><feComposite in2="SourceAlpha" operator="out"></feComposite></filter><path d="M396.89 57.58L398.08 59.4L399.2 61.22L400.25 62.98L401.19 64.79L402.12 66.61L402.87 68.37L403.55 70.13L404.17 71.88L404.67 73.7L405.11 75.4L405.48 77.15L405.73 78.91L405.91 80.67L406.04 82.37L406.04 84.12L405.98 85.82L405.79 87.52L405.54 89.21L405.17 90.91L404.79 92.61L404.23 94.3L403.67 96L402.99 97.64L402.18 99.33L401.37 100.97L400.38 102.6L399.38 104.24L398.26 105.88L397.02 107.51L395.77 109.15L394.41 110.78L392.91 112.36L391.36 114L389.74 115.57L389.55 108L389.86 107.51L391.11 105.94L392.23 104.3L393.22 102.66L394.22 100.97L395.03 99.33L395.84 97.64L396.46 96L397.08 94.3L397.58 92.61L397.95 90.91L398.26 89.21L398.51 87.52L398.64 85.82L398.7 84.12L398.64 82.37L398.51 80.61L398.26 78.91L397.95 77.15L397.52 75.4L397.02 73.64L396.46 71.82L395.77 70.07L394.97 68.31L394.16 66.49L393.16 64.67L392.17 62.92L391.05 61.1L389.8 59.28L388.5 57.46L388.06 56.92L387.75 46.55L389.49 48.43L391.17 50.25L392.73 52.13L394.22 53.95L395.59 55.77L396.89 57.58Z" id="c2QcpC6zU" fill="white" fill-opacity="1" filter="url(#shadow13721987)"></path></g><use xlink:href="#a2T57K1t31" opacity="1" fill="#000000" fill-opacity="0"></use><g><use xlink:href="#a2T57K1t31" opacity="1" fill-opacity="0" stroke="#000000" stroke-width="1" stroke-opacity="0"></use></g></g><g><use xlink:href="#bDC9MKasn" opacity="1" fill="#000000" fill-opacity="0"></use><g><use xlink:href="#bDC9MKasn" opacity="1" fill-opacity="0" stroke="#000000" stroke-width="1" stroke-opacity="0"></use></g></g><g><use xlink:href="#b162UNgcSA" opacity="1" fill="#000000" fill-opacity="0"></use><g><use xlink:href="#b162UNgcSA" opacity="1" fill-opacity="0" stroke="#000000" stroke-width="1" stroke-opacity="0"></use></g></g><g><use xlink:href="#cMX8NNw90" opacity="1" fill="#000000" fill-opacity="0"></use><g><use xlink:href="#cMX8NNw90" opacity="1" fill-opacity="0" stroke="#000000" stroke-width="1" stroke-opacity="0"></use></g></g><g><use xlink:href="#b42IyC5T7" opacity="1" fill="#000000" fill-opacity="0"></use><g><use xlink:href="#b42IyC5T7" opacity="1" fill-opacity="0" stroke="#000000" stroke-width="1" stroke-opacity="0"></use></g></g><g><use xlink:href="#cl2sIb7NY" opacity="1" fill="#000000" fill-opacity="0"></use><g><use xlink:href="#cl2sIb7NY" opacity="1" fill-opacity="0" stroke="#000000" stroke-width="1" stroke-opacity="0"></use></g></g><g><use xlink:href="#bPQylJRDO" opacity="1" fill="#000000" fill-opacity="0"></use><g><use xlink:href="#bPQylJRDO" opacity="1" fill-opacity="0" stroke="#000000" stroke-width="1" stroke-opacity="0"></use></g></g><g><use xlink:href="#bCi7ojyJQ" opacity="1" fill="#000000" fill-opacity="0"></use><g><use xlink:href="#bCi7ojyJQ" opacity="1" fill-opacity="0" stroke="#000000" stroke-width="1" stroke-opacity="0"></use></g></g><g><use xlink:href="#b1txgwXgnX" opacity="1" fill="#000000" fill-opacity="0"></use><g><use xlink:href="#b1txgwXgnX" opacity="1" fill-opacity="0" stroke="#000000" stroke-width="0" stroke-opacity="1"></use></g></g><g><use xlink:href="#e2dllQ4WhY" opacity="1" fill="#000000" fill-opacity="0"></use><g><use xlink:href="#e2dllQ4WhY" opacity="1" fill-opacity="0" stroke="#000000" stroke-width="1" stroke-opacity="0"></use></g></g><g><use xlink:href="#b4Cnxsrq6t" opacity="1" fill="#000000" fill-opacity="0"></use><g><use xlink:href="#b4Cnxsrq6t" opacity="1" fill-opacity="0" stroke="#000000" stroke-width="1" stroke-opacity="0"></use></g></g><g><use xlink:href="#a485a1anZr" opacity="1" fill="#000000" fill-opacity="0"></use><g><use xlink:href="#a485a1anZr" opacity="1" fill-opacity="0" stroke="#000000" stroke-width="1" stroke-opacity="0"></use></g></g><g><use xlink:href="#cjie5TmZT" opacity="1" fill="#000000" fill-opacity="0"></use><g><use xlink:href="#cjie5TmZT" opacity="1" fill-opacity="0" stroke="#d4462a" stroke-width="0" stroke-opacity="1"></use></g></g></g></g></svg>